<svg xmlns="http://www.w3.org/2000/svg" viewBox="0 0 500 500"><g id="freepik--data-sheet--inject-483"><path d="M378,99.88h29.13c5.8,0,10.51,6.79,7.14,13.58H298.77c4-8-3.15-13.58-7.15-13.58Z" style="fill:#6F87F6"></path><path d="M286.24,99.88h118.5c-16.23,0-30.7,13.15-32.34,29.37l-21,208.17c-1.64,16.22-16.11,29.37-32.34,29.37H259.33c-16.22,0-28-13.15-26.41-29.37l21-208.17C255.54,113,270,99.88,286.24,99.88Z" style="fill:#6F87F6"></path><path d="M286.24,99.88h118.5c-16.23,0-30.7,13.15-32.34,29.37l-21,208.17c-1.64,16.22-16.11,29.37-32.34,29.37H259.33c-16.22,0-28-13.15-26.41-29.37l21-208.17C255.54,113,270,99.88,286.24,99.88Z" style="fill:#fff;opacity:0.7000000000000001"></path><path d="M292.67,337.42h0a8.52,8.52,0,0,0-8.63-9.6H165.54a8.52,8.52,0,0,1,8.64,9.6h0c-1.64,16.22,10.19,29.37,26.41,29.37H319.08C302.86,366.79,291,353.64,292.67,337.42Z" style="fill:#6F87F6"></path><path d="M171.79,327.81H142.66a9.81,9.81,0,0,0-9.77,9.61H274.27a9.81,9.81,0,0,1,9.77-9.61Z" style="fill:#6F87F6"></path><path d="M171.79,327.81H142.66a9.81,9.81,0,0,0-9.77,9.61H274.27a9.81,9.81,0,0,1,9.77-9.61Z" style="fill:#fff;opacity:0.6000000000000001"></path><g style="opacity:0.5"><polygon points="273.07 201.93 264.13 201.93 265.04 193 273.97 193 273.07 201.93" style="fill:#fff"></polygon><polygon points="287.82 201.93 278.89 201.93 279.79 193 288.72 193 287.82 201.93" style="fill:#fff"></polygon><polygon points="302.58 201.93 293.64 201.93 294.54 193 303.48 193 302.58 201.93" style="fill:#fff"></polygon><polygon points="317.33 201.93 308.39 201.93 309.3 193 318.23 193 317.33 201.93" style="fill:#fff"></polygon><polygon points="332.08 201.93 323.15 201.93 324.05 193 332.98 193 332.08 201.93" style="fill:#fff"></polygon><polygon points="346.84 201.93 337.9 201.93 338.8 193 347.74 193 346.84 201.93" style="fill:#fff"></polygon><polygon points="271.58 216.69 262.65 216.69 263.55 207.75 272.48 207.75 271.58 216.69" style="fill:#fff"></polygon><polygon points="286.34 216.69 277.4 216.69 278.3 207.75 287.24 207.75 286.34 216.69" style="fill:#fff"></polygon><polygon points="301.09 216.69 292.15 216.69 293.06 207.75 301.99 207.75 301.09 216.69" style="fill:#fff"></polygon><polygon points="315.84 216.69 306.91 216.69 307.81 207.75 316.74 207.75 315.84 216.69" style="fill:#fff"></polygon><polygon points="330.6 216.69 321.66 216.69 322.56 207.75 331.5 207.75 330.6 216.69" style="fill:#fff"></polygon><polygon points="345.35 216.69 336.41 216.69 337.31 207.75 346.25 207.75 345.35 216.69" style="fill:#fff"></polygon><polygon points="270.1 231.44 261.16 231.44 262.06 222.5 271 222.5 270.1 231.44" style="fill:#fff"></polygon><polygon points="284.85 231.44 275.91 231.44 276.81 222.5 285.75 222.5 284.85 231.44" style="fill:#fff"></polygon><polygon points="299.6 231.44 290.67 231.44 291.57 222.5 300.5 222.5 299.6 231.44" style="fill:#fff"></polygon><polygon points="314.36 231.44 305.42 231.44 306.32 222.5 315.26 222.5 314.36 231.44" style="fill:#fff"></polygon><polygon points="329.11 231.44 320.17 231.44 321.07 222.5 330.01 222.5 329.11 231.44" style="fill:#fff"></polygon><polygon points="343.86 231.44 334.93 231.44 335.83 222.5 344.76 222.5 343.86 231.44" style="fill:#fff"></polygon><polygon points="268.61 246.19 259.67 246.19 260.57 237.26 269.51 237.26 268.61 246.19" style="fill:#fff"></polygon><polygon points="283.36 246.19 274.43 246.19 275.33 237.26 284.26 237.26 283.36 246.19" style="fill:#fff"></polygon><polygon points="298.11 246.19 289.18 246.19 290.08 237.26 299.01 237.26 298.11 246.19" style="fill:#fff"></polygon><polygon points="312.87 246.19 303.93 246.19 304.83 237.26 313.77 237.26 312.87 246.19" style="fill:#fff"></polygon><polygon points="327.62 246.19 318.69 246.19 319.59 237.26 328.52 237.26 327.62 246.19" style="fill:#fff"></polygon><polygon points="342.37 246.19 333.44 246.19 334.34 237.26 343.27 237.26 342.37 246.19" style="fill:#fff"></polygon><polygon points="267.12 260.95 258.19 260.95 259.09 252.01 268.02 252.01 267.12 260.95" style="fill:#fff"></polygon><polygon points="281.87 260.95 272.94 260.95 273.84 252.01 282.77 252.01 281.87 260.95" style="fill:#fff"></polygon><polygon points="296.63 260.95 287.69 260.95 288.59 252.01 297.53 252.01 296.63 260.95" style="fill:#fff"></polygon><polygon points="311.38 260.95 302.44 260.95 303.35 252.01 312.28 252.01 311.38 260.95" style="fill:#fff"></polygon><polygon points="326.13 260.95 317.2 260.95 318.1 252.01 327.03 252.01 326.13 260.95" style="fill:#fff"></polygon><polygon points="340.89 260.95 331.95 260.95 332.85 252.01 341.79 252.01 340.89 260.95" style="fill:#fff"></polygon><polygon points="265.63 275.7 256.7 275.7 257.6 266.76 266.53 266.76 265.63 275.7" style="fill:#fff"></polygon><polygon points="280.39 275.7 271.45 275.7 272.35 266.76 281.29 266.76 280.39 275.7" style="fill:#fff"></polygon><polygon points="295.14 275.7 286.2 275.7 287.11 266.76 296.04 266.76 295.14 275.7" style="fill:#fff"></polygon><polygon points="309.89 275.7 300.96 275.7 301.86 266.76 310.79 266.76 309.89 275.7" style="fill:#fff"></polygon><polygon points="324.65 275.7 315.71 275.7 316.61 266.76 325.55 266.76 324.65 275.7" style="fill:#fff"></polygon><polygon points="339.4 275.7 330.46 275.7 331.37 266.76 340.3 266.76 339.4 275.7" style="fill:#fff"></polygon></g><path d="M270.26,266.76a4.22,4.22,0,0,1-4.1,3.73,3.31,3.31,0,0,1-3.35-3.73,4.2,4.2,0,0,1,4.1-3.72A3.3,3.3,0,0,1,270.26,266.76Z" style="fill:#6F87F6"></path><path d="M289.48,222.5a4.23,4.23,0,0,1-4.11,3.73A3.31,3.31,0,0,1,282,222.5a4.23,4.23,0,0,1,4.11-3.72A3.32,3.32,0,0,1,289.48,222.5Z" style="fill:#6F87F6"></path><path d="M317.5,237.26a4.23,4.23,0,0,1-4.11,3.73,3.31,3.31,0,0,1-3.35-3.73,4.23,4.23,0,0,1,4.1-3.73A3.32,3.32,0,0,1,317.5,237.26Z" style="fill:#6F87F6"></path><path d="M350,207.75a4.23,4.23,0,0,1-4.11,3.73,3.31,3.31,0,0,1-3.35-3.73,4.23,4.23,0,0,1,4.11-3.73A3.31,3.31,0,0,1,350,207.75Z" style="fill:#6F87F6"></path><path d="M266.53,267.86a1.09,1.09,0,0,1-1-1.53l19.22-44.26a1.08,1.08,0,0,1,.64-.6,1.1,1.1,0,0,1,.87.07l27.34,14.39,31.91-29a1.1,1.1,0,0,1,1.55.08,1.09,1.09,0,0,1-.08,1.54L314.5,238.07a1.07,1.07,0,0,1-1.24.15l-27-14.2L267.54,267.2A1.1,1.1,0,0,1,266.53,267.86Z" style="fill:#6F87F6"></path><polygon points="262.44 307.34 253.51 307.34 253.96 302.87 262.89 302.87 262.44 307.34" style="fill:#6F87F6;opacity:0.5"></polygon><polygon points="277.2 307.34 268.26 307.34 269.81 291.95 278.75 291.95 277.2 307.34" style="fill:#6F87F6;opacity:0.6000000000000001"></polygon><polygon points="291.95 307.34 283.01 307.34 283.92 298.4 292.85 298.4 291.95 307.34" style="fill:#6F87F6;opacity:0.7000000000000001"></polygon><polygon points="306.7 307.34 297.77 307.34 298.95 295.59 307.89 295.59 306.7 307.34" style="fill:#6F87F6;opacity:0.8"></polygon><polygon points="321.46 307.34 312.52 307.34 313.24 300.21 322.18 300.21 321.46 307.34" style="fill:#6F87F6;opacity:0.9"></polygon><polygon points="336.21 307.34 327.27 307.34 327.73 302.87 336.66 302.87 336.21 307.34" style="fill:#6F87F6"></polygon><path d="M346.74,177.41H269.18a2.28,2.28,0,0,1-2.31-2.57l3.53-35.1a2.91,2.91,0,0,1,2.83-2.57H350.8a2.29,2.29,0,0,1,2.31,2.57l-3.54,35.1A2.91,2.91,0,0,1,346.74,177.41Z" style="fill:#fff;opacity:0.5"></path><path d="M293.55,157.29l6.42-13.8a13,13,0,0,1,8.28,13.8,16.78,16.78,0,0,1-13.6,14.47Z" style="fill:#6F87F6"></path><path d="M293.55,157.29l1.1,14.47a15,15,0,0,1-2.58.22,13.1,13.1,0,0,1-13.21-14.69A16.72,16.72,0,0,1,295,142.6a13.85,13.85,0,0,1,4.93.89Z" style="fill:#fff"></path><polygon points="328.47 153.72 334.04 153.72 332.2 171.96 326.63 171.96 328.47 153.72" style="fill:#fff"></polygon><polygon points="336.96 163.42 342.53 163.42 341.67 171.96 336.1 171.96 336.96 163.42" style="fill:#fff"></polygon><polygon points="336.96 163.42 342.53 163.42 343.06 158.21 337.49 158.21 336.96 163.42" style="fill:#6F87F6"></polygon><polygon points="328.47 153.72 334.04 153.72 335.16 142.6 329.59 142.6 328.47 153.72" style="fill:#6F87F6"></polygon><polygon points="318.67 157.04 324.24 157.04 322.74 171.96 317.17 171.96 318.67 157.04" style="fill:#fff"></polygon><polygon points="318.67 157.04 324.24 157.04 324.93 150.2 319.36 150.2 318.67 157.04" style="fill:#6F87F6"></polygon></g></svg>