<svg height="413pt" viewBox="0 -30 413.44008 413" width="413pt" xmlns="http://www.w3.org/2000/svg" xmlns:xlink="http://www.w3.org/1999/xlink"><linearGradient id="linear0" gradientUnits="userSpaceOnUse" x1="44.516" x2="367.444" y1="71.497896" y2="394.425896"><stop offset="0" stop-color="#ffca6c"/><stop offset="1" stop-color="#ff654f"/></linearGradient><path d="m21.140625 122.9375c1.285156-2.433594 2.734375-4.777344 4.339844-7.015625 1.632812-2.394531 4.4375-3.71875 7.324219-3.457031 2.890624.257812 5.410156 2.0625 6.589843 4.710937 1.179688 2.648438.835938 5.730469-.902343 8.050781-1.183594 1.648438-2.25 3.378907-3.199219 5.171876-1.300781 2.582031-3.894531 4.265624-6.78125 4.394531-2.890625.132812-5.625-1.304688-7.15625-3.761719-1.527344-2.453125-1.613281-5.542969-.222657-8.078125zm392.300781 146.054688v76.128906c0 4.417968-3.582031 8-8 8h-397.441406c-4.417969 0-8-3.582032-8-8v-76.128906c.0429688-28.820313 16.757812-55.015626 42.878906-67.199219-17.742187-10.875-28.570312-30.183594-28.597656-50.996094 0-4.417969 3.582031-8 8-8s8 3.582031 8 8c.003906 19.835937 13.296875 37.210937 32.441406 42.402344 19.148438 5.195312 39.398438-3.082031 49.425782-20.199219 10.027343-17.113281 7.34375-38.824219-6.542969-52.988281-13.890625-14.160157-35.546875-17.261719-52.851563-7.570313-2.496094 1.46875-5.59375 1.472656-8.09375.015625-2.5-1.460937-4.015625-4.160156-3.964844-7.054687.050782-2.894532 1.664063-5.535156 4.214844-6.90625 13.828125-7.820313 30.21875-9.757813 45.484375-5.375-16.476562-25.039063-11.925781-58.40625 10.660157-78.117188 22.582031-19.710937 56.257812-19.710937 78.839843 0 22.585938 19.710938 27.136719 53.078125 10.65625 78.117188 10.558594-3.074219 21.773438-3.074219 32.328125 0-15.058594-22.972656-12.574218-53.238282 6.03125-73.449219 18.605469-20.207031 48.566406-25.175781 72.703125-12.0625 2.546875 1.347656 4.171875 3.960937 4.253907 6.84375.082031 2.878906-1.390626 5.582031-3.855469 7.074219-2.464844 1.492187-5.542969 1.539062-8.054688.128906-18.539062-10.050781-41.605469-5.488281-54.925781 10.859375-13.316406 16.351563-13.117188 39.867187.480469 55.988281 13.59375 16.121094 36.734375 20.285156 55.101562 9.917969 18.363281-10.367187 26.75-32.335937 19.972657-52.304687-.960938-2.714844-.386719-5.738282 1.503906-7.914063 1.890625-2.171875 4.804687-3.160156 7.625-2.589844 2.824218.570313 5.121094 2.617188 6.015625 5.355469 5.9375 17.484375 3.46875 36.730469-6.6875 52.152344 28.761719-8.121094 59.109375 6.21875 71.097656 33.597656 11.988281 27.375 1.949219 59.398438-23.523437 75.03125 7.839843 3.640625 14.976562 8.628906 21.089843 14.738281 3.121094 3.132813 3.113281 8.195313-.015625 11.316407-3.128906 3.117187-8.195312 3.109374-11.316406-.019532-10.890625-10.960937-25.722656-17.09375-41.175781-17.03125-32.148438.039063-58.199219 26.089844-58.238281 58.238282v68.128906h116.480468v-68.128906c.011719-7.175782-1.3125-14.292969-3.898437-20.992188-1.589844-4.121094.460937-8.753906 4.582031-10.34375 4.125-1.59375 8.753906.460938 10.347656 4.582031 3.296875 8.535157 4.980469 17.605469 4.96875 26.753907zm-154.21875-52.484376c1.332032 1.332032 2.601563 2.714844 3.820313 4.132813.402343.480469.800781.984375 1.199219 1.472656.800781.964844 1.570312 1.929688 2.304687 2.929688.433594.585937.832031 1.199219 1.246094 1.785156.648437.941406 1.292969 1.882813 1.894531 2.851563.402344.636718.78125 1.292968 1.160156 1.945312.558594.960938 1.105469 1.929688 1.621094 2.914062.167969.320313.363281.621094.527344.941407.035156-.070313.082031-.136719.121094-.214844.511718-1 1.09375-1.957031 1.652343-2.925781.472657-.828125.917969-1.679688 1.425781-2.484375.589844-.941407 1.238282-1.832031 1.863282-2.746094.546875-.800781 1.066406-1.597656 1.640625-2.367187.652343-.871094 1.363281-1.695313 2.058593-2.539063.613282-.753906 1.199219-1.523437 1.851563-2.25.710937-.800781 1.46875-1.550781 2.21875-2.324219.683594-.707031 1.347656-1.433594 2.058594-2.113281.714843-.683594 1.578125-1.410156 2.375-2.109375.792969-.699219 1.476562-1.335938 2.253906-1.964844s1.664063-1.257812 2.503906-1.882812c.839844-.625 1.601563-1.226563 2.4375-1.796875.835938-.570313 1.75-1.117188 2.636719-1.667969.882812-.550781 1.707031-1.097656 2.589844-1.601562.882812-.503907 1.839844-.96875 2.765625-1.445313.773437-.402344 1.527343-.839844 2.320312-1.199219-.507812-.316406-.996093-.660156-1.492187-.988281-.3125-.207031-.625-.402344-.929688-.617187-1.390625-.957032-2.742187-1.96875-4.050781-3.03125-.226563-.183594-.4375-.382813-.660156-.566407-1.140625-.957031-2.238281-1.957031-3.300781-3-.25-.246093-.511719-.488281-.761719-.738281-1.175781-1.191406-2.300781-2.429688-3.378907-3.714844-.222656-.269531-.429687-.542968-.652343-.800781-.925781-1.148437-1.808594-2.328125-2.648438-3.539063-.179687-.265624-.371093-.519531-.546875-.800781-.933594-1.394531-1.804687-2.832031-2.621094-4.308593-.183593-.335938-.359374-.679688-.539062-1.019532-.707031-1.335937-1.363281-2.695312-1.972656-4.085937-.101563-.238281-.21875-.472657-.320313-.710938-.660156-1.570312-1.238281-3.175781-1.761719-4.800781-.125-.398438-.242187-.800781-.355468-1.171875-.460938-1.542969-.878906-3.105469-1.203125-4.703125-.03125-.160156-.078125-.3125-.109375-.472656-.347656-1.714844-.605469-3.464844-.800782-5.230469-.046874-.425781-.089843-.851563-.128906-1.28125-.164062-1.800781-.273437-3.601563-.273437-5.453125 0-1.5625.082031-3.117188.203125-4.671875.035156-.445313.082031-.886719.128906-1.335937.117188-1.1875.273438-2.371094.464844-3.550782.066406-.398437.117187-.800781.1875-1.199218.277344-1.507813.601562-3.007813.988281-4.488282.078125-.285156.167969-.558594.25-.839844.339844-1.21875.714844-2.417968 1.132813-3.601562.152343-.4375.3125-.878906.476562-1.316406.4375-1.167969.910156-2.320313 1.417969-3.460938.128906-.285156.242187-.578125.371093-.859375.570313-1.21875 1.171876-2.425781 1.824219-3.597656-9.023437-2.152344-18.429687-2.152344-27.453125 0 .648438 1.199219 1.257813 2.398437 1.832032 3.628906.121093.261719.226562.53125.34375.796875.519531 1.160156 1 2.335938 1.445312 3.53125.160156.425782.316406.855469.46875 1.285156.417969 1.203126.800781 2.417969 1.140625 3.648438.074219.277344.167969.546875.238281.824219.402344 1.484375.71875 2.980469.992188 4.492187.074218.398438.125.800782.1875 1.199219.191406 1.179687.347656 2.363281.46875 3.554687.042968.441407.09375.886719.128906 1.335938.121094 1.550781.203125 3.105469.203125 4.671875 0 1.839844-.109375 3.652344-.273437 5.449219-.042969.425781-.082032.847656-.128907 1.273437-.199219 1.765625-.453125 3.511719-.800781 5.226563-.035156.167968-.078125.335937-.117188.503906-.335937 1.601562-.746093 3.144531-1.199218 4.683594-.117188.402344-.226563.773437-.351563 1.15625-.523437 1.632812-1.109375 3.242187-1.765625 4.800781-.101562.253906-.222656.492187-.335937.746094-.605469 1.386719-1.261719 2.75-1.964844 4.082031-.171875.328125-.339844.65625-.523437.980469-.8125 1.476562-1.6875 2.914062-2.621094 4.3125-.183594.273437-.378906.535156-.566406.800781-.84375 1.21875-1.730469 2.410156-2.664063 3.5625-.203125.253906-.398437.507812-.601563.757812-1.066406 1.285157-2.195312 2.527344-3.382812 3.71875-.257812.265626-.527344.511719-.796875.773438-1.066406 1.046875-2.175781 2.054688-3.328125 3.023438-.203125.167968-.402344.347656-.597656.515624-1.296875 1.0625-2.644532 2.058594-4.023438 3.011719-.335937.230469-.675781.453125-1.015625.675781-.445312.292969-.875.605469-1.328125.882813.667969.3125 1.300782.691406 1.957032 1.023437.796874.402344 1.621093.828126 2.421874 1.273438 1.242188.6875 2.453126 1.433594 3.652344 2.195312.742188.46875 1.484375.921876 2.207032 1.417969 1.28125.875 2.515624 1.824219 3.746093 2.800781.589844.460938 1.199219.890626 1.777344 1.375 1.765625 1.410157 3.492187 2.96875 5.144531 4.625zm79.976563-109.675781c-13.089844 0-25.496094 5.835938-33.847657 15.914063-5.640624 6.910156-9.105468 15.34375-9.949218 24.222656-.109375 1.269531-.167969 2.542969-.167969 3.824219 0 24.28125 19.683594 43.960937 43.960937 43.960937 24.277344 0 43.960938-19.679687 43.960938-43.960937 0-24.277344-19.683594-43.960938-43.960938-43.960938zm-132.480469 0c-22.738281.15625-41.664062 17.503907-43.792969 40.140625-.113281 1.269532-.167969 2.542969-.167969 3.824219 0 24.277344 19.683594 43.957031 43.960938 43.957031s43.957031-19.679687 43.957031-43.957031-19.679687-43.960937-43.957031-43.964844zm-33.738281 96.195313c.765625-.402344 1.511719-.832032 2.292969-1.203125-.503907-.308594-.980469-.648438-1.476563-.972657-.316406-.210937-.632813-.402343-.945313-.628906-1.390624-.957031-2.742187-1.964844-4.046874-3.03125-.21875-.179687-.429688-.375-.644532-.554687-1.144531-.964844-2.25-1.96875-3.316406-3.015625-.246094-.242188-.503906-.480469-.75-.730469-1.183594-1.195313-2.3125-2.4375-3.390625-3.730469-.214844-.257812-.417969-.527344-.632813-.796875-.933593-1.15625-1.824218-2.34375-2.671874-3.570312-.175782-.253907-.359376-.503907-.535157-.757813-.933593-1.402344-1.8125-2.84375-2.628906-4.324218-.179687-.328126-.351563-.664063-.527344-.996094-.710937-1.335938-1.378906-2.707032-2-4.117188-.097656-.230468-.210937-.457031-.3125-.691406-.660156-1.574219-1.238281-3.199219-1.765625-4.820312-.125-.398438-.238281-.777344-.351562-1.164063-.464844-1.546875-.878906-3.117187-1.203125-4.714844-.03125-.15625-.074219-.304687-.105469-.460937-.347656-1.714844-.605469-3.46875-.800781-5.230469-.046875-.429687-.089844-.855469-.128907-1.28125-.164062-1.800781-.273437-3.601563-.273437-5.453125 0-1.5625.082031-3.121094.203125-4.671875.035156-.449219.082031-.886719.128906-1.335937.117188-1.191407.273438-2.375.464844-3.550782.066406-.402344.121094-.800781.195312-1.199218.273438-1.507813.597657-3.007813.988282-4.492188.074218-.28125.164062-.554688.246094-.832031.339843-1.226563.722656-2.4375 1.140624-3.636719.152344-.433594.308594-.867188.46875-1.296875.441407-1.1875.921876-2.359375 1.441407-3.519531.121093-.265625.226562-.535156.347656-.800782.574219-1.226562 1.175781-2.4375 1.832031-3.628906-9.023437-2.148437-18.429687-2.148437-27.453125 0 .652344 1.203125 1.253907 2.402344 1.824219 3.601563.125.273437.234375.554687.359375.828125.511719 1.148437.992187 2.3125 1.429687 3.492187.164063.429688.320313.867188.472657 1.304688.417969 1.199219.796875 2.410156 1.136719 3.636719.074218.273437.167968.550781.242187.828124.402344 1.476563.71875 2.976563.992187 4.484376.074219.402343.128907.800781.1875 1.203124.195313 1.175782.351563 2.359376.46875 3.550782.046876.445312.09375.886718.128907 1.335937.121093 1.550781.203125 3.109375.203125 4.671875 0 1.839844-.109375 3.652344-.273438 5.453125-.042968.421875-.082031.847657-.128906 1.269531-.199219 1.769532-.453125 3.519532-.800781 5.238282-.03125.160156-.074219.3125-.113281.472656-.339844 1.597656-.75 3.171875-1.199219 4.71875-.109375.375-.222657.753906-.34375 1.128906-.527344 1.640625-1.113281 3.253906-1.769531 4.835938-.101563.234375-.214844.460937-.316407.695312-.613281 1.40625-1.28125 2.785156-2 4.136719-.167969.316406-.328125.636719-.5.945313-.824219 1.488281-1.703125 2.933593-2.636719 4.335937-.175781.261719-.359374.511719-.539062.773437-.855469 1.234376-1.753906 2.433594-2.695312 3.601563-.195313.242187-.398438.496094-.585938.734375-1.066406 1.292969-2.199219 2.539062-3.390625 3.730469-.253906.257812-.519531.503906-.773437.757812-1.066407 1.054688-2.183594 2.066407-3.34375 3.039063-.199219.167968-.402344.34375-.589844.507812-1.300782 1.066406-2.648438 2.066406-4.035156 3.019532-.332032.230468-.664063.445312-1 .664062-.449219.296875-.886719.613281-1.34375.898438.664062.3125 1.296874.691406 1.949218 1.023437.800782.398437 1.597656.824219 2.398438 1.265625 1.238281.691406 2.445312 1.429688 3.644531 2.191406.742187.464844 1.492187.921875 2.21875 1.417969 1.28125.875 2.519531 1.824219 3.75 2.800781.589844.460938 1.199219.886719 1.773437 1.367188 1.78125 1.480468 3.515626 3.03125 5.171876 4.691406 1.328124 1.335938 2.597656 2.722656 3.8125 4.140625.402343.484375.800781.992187 1.203124 1.484375.777344.957031 1.550782 1.917969 2.28125 2.90625.445313.605469.855469 1.226562 1.28125 1.84375.632813.914062 1.253907 1.835938 1.847657 2.777344.421875.671875.800781 1.355468 1.199219 2.039062.535156.925782 1.0625 1.855469 1.558593 2.800782.179688.339843.398438.664062.558594 1.007812.035156-.070312.082031-.140625.121094-.210938.53125-1.039062 1.132812-2.03125 1.710937-3.039062.453125-.800781.875-1.601562 1.355469-2.363281.625-.996094 1.308594-1.945313 1.976563-2.910157.507812-.730468.988281-1.488281 1.523437-2.199218.699219-.9375 1.460937-1.820313 2.199219-2.71875.570312-.6875 1.113281-1.402344 1.699218-2.070313.765626-.863281 1.601563-1.671875 2.402344-2.5.632813-.648437 1.238282-1.320312 1.890625-1.941406.800781-.800781 1.679688-1.507813 2.53125-2.253906.699219-.609375 1.375-1.238281 2.09375-1.824219.859375-.695312 1.757813-1.335938 2.648438-2 .761719-.5625 1.511719-1.15625 2.296875-1.691406.890625-.613282 1.824218-1.164063 2.746094-1.734375.828124-.519531 1.640624-1.054688 2.492187-1.539063.914063-.496094 1.863281-.949218 2.808594-1.445312zm-76.453125-142.75c.003906 24.269531 19.683594 43.945312 43.953125 43.941406 24.273437-.003906 43.945312-19.679688 43.945312-43.953125-.003906-24.269531-19.679687-43.945313-43.949219-43.945313-24.261718.03125-43.925781 19.695313-43.949218 43.957032zm-80.527344 276.84375h116.480469v-68.128906c-.019531-14.007813-5.074219-27.542969-14.238281-38.140626-.902344-1.050781-1.847657-2.066406-2.832032-3.054687-16.65625-16.652344-41.707031-21.628906-63.46875-12.609375-21.757812 9.019531-35.945312 30.253906-35.941406 53.808594zm132.480469 0h116.480469v-68.128906c-.023438-14-5.066407-27.53125-14.21875-38.132813-.90625-1.046875-1.851563-2.0625-2.839844-3.050781-10.890625-10.96875-25.722656-17.113282-41.183594-17.054688-32.144531.042969-58.195312 26.09375-58.238281 58.238282zm0 0" fill="url(#linear0)"/></svg>