<svg height="496pt" viewBox="0 0 496 496" width="496pt" xmlns="http://www.w3.org/2000/svg" xmlns:xlink="http://www.w3.org/1999/xlink"><linearGradient id="a" gradientUnits="userSpaceOnUse" x1="248" x2="248" y1="496" y2="0"><stop offset="0" stop-color="#9f2fff"/><stop offset="1" stop-color="#0bb1d3"/></linearGradient><path d="m176 48c-26.472656 0-48 21.527344-48 48h-16c0-35.289062 28.710938-64 64-64zm144 184v40h112v80h64v144h-144v-144h64v-64h-112v-72h120c30.878906 0 56-25.121094 56-56s-25.121094-56-56-56h-56v-16h31.59375c-4.027344-40.367188-38.179688-72-79.59375-72-24.183594 0-46.960938 11.152344-62.113281 29.910156 2.90625 4.777344 5.472656 9.824219 7.570312 15.1875l-14.90625 5.824219c-12.078125-30.9375-41.34375-50.921875-74.550781-50.921875-44.113281 0-80 35.886719-80 80 0 7.414062 1.007812 14.753906 3.007812 21.824219l-15.398437 4.351562c-1.601563-5.664062-2.625-11.488281-3.160156-17.367187-9.035157-1.449219-17.714844-.738282-26.296875 2.40625-23.511719 8.601562-38.488282 29.640625-38.144532 53.601562.433594 30.429688 25.550782 55.183594 55.992188 55.183594h184v136h64v144h-144v-144h64v-120h-32v56h-128v64h64v144h-144v-144h64v-80h128v-40h-120c-39.144531 0-71.433594-31.832031-71.9921875-70.960938-.4414065-30.855468 18.6562495-57.878906 48.6484375-68.847656 10.265625-3.765625 20.902344-4.933594 31.71875-3.617187 3.816406-49.460938 45.199219-88.574219 95.625-88.574219 28.351562 0 54.265625 12.183594 72.105469 32.558594 18.125-20.527344 44.277343-32.558594 71.894531-32.558594 50.230469 0 91.503906 38.808594 95.59375 88h8.40625c39.695312 0 72 32.304688 72 72s-32.304688 72-72 72zm-192 248v-48h-112v48zm0-112h-112v48h112zm176 112v-48h-112v48zm0-112h-112v48h112zm176 112v-48h-112v48zm0-112h-112v48h112zm-272-232v16h16v-16zm32 0v16h16v-16zm32 0v16h16v-16zm48 0h-16v32h-160v16h176zm-88 248h-16v16h16zm48 0h-16v16h16zm-64 80h16v-16h-16zm48 0h16v-16h-16zm-208-80h-16v16h16zm48 0h-16v16h16zm-64 80h16v-16h-16zm48 0h16v-16h-16zm320-80h-16v16h16zm48 0h-16v16h16zm-64 80h16v-16h-16zm48 0h16v-16h-16zm0 0" fill="url(#a)"/></svg>