<svg width="362" height="284" viewBox="0 0 362 284" fill="none" xmlns="http://www.w3.org/2000/svg">
<path d="M250.43 118.45C256.609 133.888 257.432 150.953 252.768 166.915C248.103 182.877 238.221 196.814 224.702 206.497C211.183 216.18 194.807 221.049 178.193 220.327C161.579 219.605 145.688 213.332 133.059 202.513C120.431 191.693 111.796 176.951 108.535 160.645C105.273 144.338 107.574 127.409 115.07 112.565C122.565 97.7206 134.821 85.8183 149.879 78.7616C164.937 71.7049 181.926 69.9014 198.13 73.6396C209.816 76.3339 220.677 81.8167 229.785 89.6199C238.892 97.423 245.976 107.314 250.43 118.45V118.45Z" fill="#455A64"/>
<path d="M172.52 82.6396C169.12 82.6996 164.76 83.8996 167.92 85.8296C171.08 87.7596 173.09 87.9496 173.12 90.4496C173.15 92.9496 171.51 95.5896 172.31 97.3696C173.11 99.1496 174.44 101.22 175.74 100.62C177.04 100.02 180.57 96.0696 182.59 96.2496C184.61 96.4296 191.49 96.7396 192.49 94.4896C193.49 92.2396 194.49 92.3896 196.15 89.8896C197.81 87.3896 197.71 84.0596 195.7 84.0396C193.69 84.0196 193.42 84.8896 190.06 84.6396C186.7 84.3896 185.14 82.1796 181.87 82.7596C178.6 83.3396 175.03 82.5996 172.52 82.6396Z" fill="#6F87F6"/>
<path d="M159.89 83.5296C156.04 85.5896 147.89 88.6996 144.16 87.6496C142.29 87.1196 140.07 86.3796 137.7 85.9396C123.208 96.4814 113.001 111.893 108.95 129.35C109.846 131.218 110.975 132.965 112.31 134.55C115.25 138 118.31 138.44 122.02 139.16C125.73 139.88 124.58 141.98 126.41 144.16C128.24 146.34 129.03 147.64 131.12 148.82C133.21 150 130.38 152.21 129.56 154.62C128.74 157.03 128.5 158.38 130.22 163.26C131.94 168.14 136.92 172.12 138.4 174.01C139.88 175.9 137.4 178.1 138.01 182.01C138.62 185.92 138.45 196.5 142.25 202.41C146.05 208.32 148.33 207.64 148.02 203.65C147.71 199.66 146.43 195.89 148.73 192.89C151.03 189.89 155.73 190.69 157.31 185.21C158.89 179.73 159.92 180 162.46 178.14C165 176.28 163.86 174.68 166.22 170.45C168.58 166.22 169.27 162.23 165.78 160.45C162.29 158.67 159.99 158.89 156.99 154.77C153.763 150.487 149.675 146.927 144.99 144.32C140.67 141.98 133.81 144.84 131.07 144.04C128.33 143.24 126.59 138.04 126.77 136.04C126.95 134.04 124.91 133.5 122.94 133.99C120.97 134.48 119.87 133.23 119.33 130.59C118.79 127.95 122.89 124.59 126.22 124.37C129.55 124.15 131.33 125.66 131.99 129.95C132.195 131.685 132.939 133.312 134.118 134.602C135.297 135.892 136.85 136.779 138.56 137.14C141.63 137.91 139.71 134.72 137.56 132.54C135.41 130.36 135.23 128.37 136.87 123.54C138.51 118.71 142.55 119.09 145.56 114.67C148.57 110.25 149.15 113.57 152.19 114.01C155.23 114.45 154.78 112.81 155.9 110.01C157.02 107.21 160.9 109.63 164.06 107.38C167.22 105.13 160.61 101.62 161.06 98.5796C161.51 95.5396 164.52 95.6496 162.84 91.0896C161.16 86.5296 163.48 86.3596 164.68 84.6596C165.88 82.9596 163.75 81.4696 159.89 83.5296ZM155.39 94.6496C154.39 96.8996 153.53 96.4696 151.88 98.9296C150.527 100.989 148.413 102.428 146 102.93C144.34 103.13 141.61 100.18 141.47 98.3496C141.33 96.5196 143.96 95.9796 146.94 95.5996C149.986 95.1148 152.838 93.7961 155.18 91.7896C157.32 90.1496 156.4 92.4096 155.39 94.6496V94.6496Z" fill="#6F87F6"/>
<path d="M255.52 140.42V140.63C254.857 140.891 254.255 141.285 253.75 141.787C253.244 142.289 252.846 142.889 252.58 143.55C250.89 147.7 250.58 145.88 246.58 148.7C242.58 151.52 244.13 153.7 244.34 156.55C244.55 159.4 239.96 162.55 237.69 163.55C235.42 164.55 234.41 170.99 235.16 174.12C235.91 177.25 232.16 178.52 229.86 181.37C227.56 184.22 226.26 189 224.76 191.29C224.04 192.438 223.002 193.353 221.771 193.923C220.541 194.493 219.172 194.693 217.83 194.5C215.11 194.04 212.59 189.5 211.13 185.64C209.598 181.676 209.21 177.363 210.01 173.19C210.86 168.95 210.56 169.48 209.55 162.86C209.323 160.651 208.405 158.571 206.927 156.914C205.45 155.257 203.488 154.108 201.32 153.63C198.76 152.99 194.53 154.48 192.25 153.15C189.97 151.82 189 149.89 187.51 143.66C186.02 137.43 189.11 136.01 191.51 132.66C194.398 128.861 198.385 126.043 202.93 124.59C204.561 124.13 206.268 124.004 207.949 124.221C209.629 124.437 211.249 124.991 212.71 125.85C215.32 127.15 216.55 130.07 218.41 130.27C220.27 130.47 221.86 129.5 223.72 129.86C225.58 130.22 226.83 131.13 228.64 130.86C230.45 130.59 229.3 128.47 229.04 127.32C228.78 126.17 227.14 126.46 224.96 126.44C222.78 126.42 222.24 125.83 221.47 124.38C220.7 122.93 219.47 124.21 218.4 123.62C217.33 123.03 217.55 125.69 217.46 126.72C217.37 127.75 216.57 125.93 216.57 125.93C216.57 125.93 215.67 127.34 215.28 126.69C214.89 126.04 215.79 124.49 215.66 122.89C215.53 121.29 213.23 121.67 211.79 120.44C211.033 119.856 210.136 119.48 209.189 119.348C208.243 119.217 207.278 119.334 206.39 119.69C204.39 120.34 204.07 119.87 203.2 121.6C202.33 123.33 198.06 124.5 196.71 124.27C195.36 124.04 196.31 121.27 197.47 118.87C198.63 116.47 201.02 117.25 202.47 114.8C203.92 112.35 201.92 112 200.55 111.61C199.18 111.22 198.75 109.9 200.18 106.78C201.61 103.66 203.51 104.52 204.3 105.96C204.766 106.677 205.414 107.257 206.179 107.64C206.944 108.023 207.797 108.196 208.65 108.14C210.48 108.14 210.05 106.87 210.01 104.14C209.97 101.41 211.2 100.04 213.63 99.0196C216.06 97.9996 220.12 96.3496 221.63 94.8896C223.14 93.4296 225.94 94.3896 227.39 95.9596C228.84 97.5296 232.07 98.1096 235.46 98.6796C235.894 98.746 236.338 98.7091 236.755 98.5718C237.172 98.4346 237.55 98.2008 237.86 97.8896C248.12 109.827 254.307 124.725 255.52 140.42V140.42Z" fill="#6F87F6"/>
<path d="M241.61 177C239.8 176.69 239.96 177.29 238.9 178.71C237.84 180.13 236.29 181.71 236.57 183.23C236.85 184.75 236.99 186.54 238.24 185.45C239.49 184.36 239.06 183.04 240.84 182.24C242.62 181.44 244.32 177.46 241.61 177Z" fill="#6F87F6"/>
<g style="mix-blend-mode:soft-light" opacity="0.4">
<path d="M200.78 80.1996C153.45 66.5296 144.61 98.7996 169.7 119.13C194.79 139.46 237.78 146.13 243.57 132.76C249.36 119.39 235.97 90.3496 200.78 80.1996Z" fill="white"/>
</g>
<g style="mix-blend-mode:multiply" opacity="0.05">
<path d="M161.27 183.35C124.48 153.17 125.63 94.5696 157.87 75.6296C156.51 76.0896 155.15 76.5696 153.8 77.1096C142.429 81.6606 132.359 88.9512 124.486 98.3331C116.613 107.715 111.18 118.897 108.671 130.885C106.163 142.873 106.656 155.296 110.106 167.047C113.557 178.799 119.858 189.516 128.45 198.244C137.042 206.973 147.658 213.443 159.354 217.078C171.049 220.714 183.462 221.403 195.489 219.084C207.515 216.765 218.781 211.509 228.286 203.785C237.791 196.061 245.24 186.107 249.97 174.81C239.58 189.18 198.03 213.47 161.27 183.35Z" fill="black"/>
</g>
<path d="M353.6 76.4696C351.12 75.0296 347.69 75.2396 343.91 77.4196C336.35 81.7896 330.22 92.4196 330.22 101.14C330.22 105.52 331.76 108.6 334.22 110.02L339.04 112.82C341.52 114.25 344.94 114.05 348.72 111.82C356.29 107.46 362.42 96.8196 362.42 88.0996C362.42 83.7396 360.89 80.6696 358.42 79.2396" fill="#6F87F6"/>
<path d="M348.76 80.2296C341.2 84.5996 335.07 95.2296 335.07 103.96C335.07 112.69 341.2 116.23 348.76 111.86C356.32 107.49 362.47 96.8596 362.46 88.1396C362.45 79.4196 356.32 75.8696 348.76 80.2296Z" fill="#6F87F6"/>
<path d="M356.32 99.6096V100.61C354.51 103.846 351.909 106.571 348.76 108.53C345.82 110.23 343.15 110.41 341.2 109.33V107.27C341.303 105.128 341.915 103.041 342.986 101.183C344.058 99.3258 345.557 97.7509 347.36 96.5896L349.36 95.4396C351.13 94.4396 352.84 94.2896 354.18 95.0696C355.52 95.8496 356.32 97.5096 356.32 99.6096Z" fill="#6F87F6"/>
<path opacity="0.4" d="M353.6 76.4696L358.45 79.2796C355.97 77.8396 352.55 78.0496 348.76 80.2296C343.81 83.0996 339.47 88.6396 337.07 94.5796L332.21 91.7596C334.62 85.8196 338.96 80.2796 343.91 77.4196C347.69 75.2396 351.12 75.0296 353.6 76.4696Z" fill="white"/>
<path opacity="0.2" d="M338.9 112.71L334.26 110.02C331.76 108.6 330.26 105.52 330.26 101.14L335.11 103.96C335.07 108.21 336.52 111.24 338.9 112.71Z" fill="black"/>
<path opacity="0.1" d="M332.21 91.7596L337.07 94.5796C335.813 97.5506 335.134 100.734 335.07 103.96V103.96L330.22 101.14C330.286 97.9154 330.961 94.7329 332.21 91.7596Z" fill="black"/>
<path d="M347.04 94.9796C346.578 94.9833 346.123 94.8661 345.72 94.6396C345.234 94.3145 344.844 93.8642 344.593 93.3362C344.341 92.8082 344.236 92.222 344.29 91.6396C344.355 90.2801 344.745 88.956 345.427 87.7781C346.109 86.6002 347.063 85.6029 348.21 84.8696V84.8696C348.67 84.5017 349.229 84.2813 349.816 84.2372C350.403 84.1932 350.99 84.3276 351.499 84.6227C352.009 84.9179 352.417 85.3601 352.67 85.8913C352.924 86.4226 353.011 87.018 352.92 87.5996C352.857 88.9584 352.469 90.2822 351.788 91.4602C351.108 92.6381 350.155 93.6358 349.01 94.3696C348.418 94.7416 347.739 94.9519 347.04 94.9796V94.9796Z" fill="white"/>
<path d="M354.17 95.0696C352.83 94.2896 351.17 94.4296 349.35 95.4396L347.35 96.5896C345.547 97.7509 344.048 99.3258 342.976 101.183C341.905 103.041 341.293 105.128 341.19 107.27V109.35C343.14 110.43 345.81 110.25 348.75 108.55C351.899 106.591 354.5 103.866 356.31 100.63V99.6296C356.32 97.5096 355.52 95.8596 354.17 95.0696Z" fill="white"/>
<path d="M283.3 194.51C284.722 191.344 285.449 187.91 285.43 184.44C286.124 183.361 286.707 182.216 287.17 181.02C286.574 181.721 285.904 182.354 285.17 182.91C285.913 181.874 286.434 180.696 286.7 179.45C286.063 180.342 285.317 181.152 284.48 181.86C284.113 181.587 283.667 181.44 283.21 181.44C282.753 181.44 282.307 181.587 281.94 181.86C280.738 182.719 279.789 183.884 279.191 185.235C278.593 186.586 278.368 188.072 278.54 189.54C275.64 191.02 273.07 190.65 271.35 188.83C270.43 191.45 270.87 193.93 272.43 194.42C271.952 194.695 271.398 194.811 270.85 194.75C270.85 196.92 271.97 198.27 273.64 197.75C273.196 198.193 272.66 198.534 272.07 198.75C272.123 199.101 272.266 199.432 272.485 199.712C272.703 199.991 272.991 200.209 273.319 200.345C273.647 200.481 274.004 200.53 274.357 200.487C274.709 200.444 275.044 200.31 275.33 200.1C274.139 202.218 272.337 203.929 270.16 205.01C271.073 205.209 272.017 205.223 272.936 205.051C273.855 204.879 274.73 204.525 275.51 204.01C278.96 202.01 281.61 198.42 283.3 194.52" fill="#6F87F6"/>
<path d="M17.0601 181.92C19.5401 180.49 22.9601 180.69 26.7501 182.92C34.3101 187.29 40.44 197.92 40.44 206.65C40.44 211.03 38.89 214.1 36.44 215.52L31.61 218.32C29.14 219.75 25.7101 219.55 21.9301 217.37C14.3701 213 8.24005 202.37 8.24005 193.64C8.24005 189.28 9.77005 186.21 12.2401 184.78" fill="#6F87F6"/>
<path d="M21.89 185.69C29.45 190.06 35.59 200.69 35.59 209.41C35.59 218.13 29.45 221.68 21.89 217.32C14.33 212.96 8.19002 202.32 8.20002 193.59C8.21002 184.86 14.34 181.35 21.89 185.69Z" fill="#6F87F6"/>
<path d="M20.92 196.99C19.24 195.99 17.92 197.05 17.92 199.29C17.9324 200.425 18.2101 201.542 18.731 202.55C19.2519 203.559 20.0016 204.432 20.92 205.1C22.6 206.1 23.92 205.04 23.92 202.8C23.9077 201.664 23.6299 200.548 23.109 199.539C22.5881 198.53 21.8385 197.657 20.92 196.99V196.99ZM20.92 203.68C20.3132 203.251 19.8159 202.685 19.4685 202.029C19.121 201.372 18.9331 200.642 18.92 199.9C18.92 198.45 19.8 197.78 20.92 198.41C21.5249 198.838 22.021 199.402 22.3683 200.057C22.7157 200.712 22.9046 201.439 22.92 202.18C22.9 203.64 22.01 204.35 20.92 203.68V203.68Z" fill="white"/>
<path d="M25.39 198.63C25.39 199.16 25.07 199.4 24.68 199.17C24.4609 199.016 24.2814 198.813 24.1562 198.576C24.0311 198.34 23.9638 198.077 23.96 197.81C23.96 197.29 24.28 197.05 24.68 197.28C24.8959 197.433 25.0727 197.635 25.196 197.87C25.3193 198.104 25.3858 198.365 25.39 198.63" fill="white"/>
<path d="M26.62 195.01L16.07 188.91C15.32 188.48 14.72 188.91 14.72 189.91V203.98C14.7273 204.484 14.8534 204.979 15.0879 205.426C15.3225 205.872 15.6589 206.257 16.07 206.55L19.85 208.74L22.99 210.55L26.62 212.64C27.36 213.07 27.97 212.64 27.97 211.64V197.58C27.9619 197.075 27.8356 196.58 27.6011 196.134C27.3666 195.687 27.0306 195.302 26.62 195.01V195.01ZM26.62 210.94L16.54 205.12C16.3765 205.023 16.2408 204.885 16.1462 204.721C16.0516 204.556 16.0012 204.37 16 204.18V190.64L26.08 196.46C26.2456 196.554 26.383 196.691 26.4779 196.856C26.5728 197.021 26.6219 197.209 26.62 197.4V210.94Z" fill="white"/>
<path opacity="0.4" d="M17.06 181.92L12.21 184.73C14.69 183.3 18.11 183.5 21.89 185.73C26.84 188.59 31.18 194.13 33.59 200.07L38.44 197.25C36.04 191.32 31.7 185.77 26.75 182.91C22.96 180.69 19.52 180.49 17.06 181.92Z" fill="white"/>
<path opacity="0.2" d="M31.76 218.17L36.4 215.47C38.89 214.05 40.4 210.98 40.4 206.6L35.55 209.41C35.58 213.67 34.12 216.69 31.76 218.17Z" fill="black"/>
<path opacity="0.1" d="M38.44 197.21L33.59 200.03C34.8463 203.001 35.5251 206.184 35.59 209.41V209.41L40.44 206.6C40.3761 203.371 39.6973 200.184 38.44 197.21Z" fill="black"/>
<path d="M276.31 9.3496C273.84 7.9096 270.41 8.1196 266.63 10.2996C259.06 14.6696 252.93 25.2996 252.93 34.0196C252.93 38.4096 254.48 41.4796 256.93 42.8996L261.76 45.6996C264.24 47.1296 267.66 46.9296 271.44 44.7496C279 40.3796 285.14 29.7496 285.14 21.0196C285.14 16.6596 283.6 13.5896 281.14 12.1596" fill="#6F87F6"/>
<path d="M271.52 13.1496C263.96 17.5196 257.83 28.1496 257.83 36.8696C257.83 45.5896 263.92 49.1396 271.52 44.7796C279.12 40.4196 285.22 29.7796 285.22 21.0496C285.22 12.3196 279.04 8.7796 271.52 13.1496Z" fill="#6F87F6"/>
<path opacity="0.4" d="M276.31 9.34959L281.17 12.1596C278.69 10.7296 275.26 10.9296 271.48 13.1596C266.53 16.0196 262.19 21.5596 259.78 27.4996L254.93 24.6796C257.34 18.7496 261.67 13.1996 266.63 10.3396C270.41 8.14959 273.84 7.93959 276.31 9.34959Z" fill="white"/>
<path opacity="0.2" d="M261.62 45.6296L256.97 42.9296C254.48 41.5096 252.97 38.4396 252.97 34.0596L257.83 36.8696C257.79 41.1296 259.25 44.1496 261.62 45.6296Z" fill="black"/>
<path opacity="0.1" d="M254.93 24.6696L259.78 27.4896C258.528 30.4622 257.849 33.6448 257.78 36.8696V36.8696L252.92 34.0596C252.987 30.8303 253.669 27.6434 254.93 24.6696V24.6696Z" fill="black"/>
<path d="M269.3 42.2796L272.78 40.2796V28.6296L275.21 27.2296L275.47 23.2296L272.78 24.7796V22.5196C272.78 21.5996 272.92 21.1596 273.59 20.7796L275.52 19.6896V15.6396L273.11 17.0396C271.919 17.6686 270.932 18.625 270.266 19.796C269.599 20.9671 269.282 22.3041 269.35 23.6496V26.7496L267.52 27.7996V31.7396L269.33 30.7396L269.3 42.2796Z" fill="white"/>
<path d="M236.91 245.84C234.44 244.4 231.01 244.61 227.23 246.79C219.66 251.16 213.53 261.79 213.53 270.51C213.53 274.9 215.08 277.97 217.53 279.39L222.36 282.19C224.84 283.62 228.26 283.42 232.04 281.19C239.6 276.83 245.74 266.19 245.74 257.47C245.74 253.11 244.2 250.04 241.74 248.61" fill="#6F87F6"/>
<path d="M232.08 249.61C224.52 253.97 218.39 264.61 218.39 273.33C218.39 282.05 224.52 285.6 232.08 281.23C239.64 276.86 245.78 266.23 245.78 257.51C245.78 248.79 239.64 245.24 232.08 249.61Z" fill="#6F87F6"/>
<path opacity="0.4" d="M236.91 245.84L241.77 248.65C239.29 247.22 235.86 247.42 232.08 249.6C227.13 252.47 222.79 258.01 220.38 263.95L215.52 261.13C217.93 255.19 222.26 249.65 227.22 246.79C231.01 244.61 234.44 244.4 236.91 245.84Z" fill="white"/>
<path opacity="0.2" d="M222.22 282.08L217.57 279.35C215.08 277.93 213.57 274.86 213.57 270.47L218.43 273.29C218.39 277.59 219.85 280.61 222.22 282.08Z" fill="black"/>
<path opacity="0.1" d="M215.52 261.13L220.37 263.95C219.117 266.922 218.438 270.105 218.37 273.33V273.33L213.52 270.51C213.585 267.284 214.264 264.101 215.52 261.13Z" fill="black"/>
<path d="M228.9 264.6C228.9 264.6 231.12 259.5 231.33 258.76C231.436 257.495 231.436 256.224 231.33 254.96C231.33 254.47 233.33 253.11 234 254.51C234.626 256.003 234.746 257.661 234.34 259.23L239.26 256.36C240.26 255.75 240.73 256.61 240.73 257.28C240.693 258.051 240.416 258.792 239.94 259.4C239.94 259.4 240.94 259.1 240.94 260.4C240.912 260.86 240.793 261.311 240.589 261.725C240.384 262.139 240.099 262.508 239.75 262.81C239.75 262.81 240.07 263.06 240.08 263.98C239.941 264.942 239.449 265.819 238.7 266.44C238.849 266.808 238.924 267.202 238.92 267.6C238.858 268.178 238.663 268.734 238.351 269.225C238.039 269.716 237.618 270.128 237.12 270.43L228.98 275.18L228.9 264.6Z" fill="white"/>
<path d="M224.23 279.38L227.78 277.31L227.73 264.98L224.18 267.04L224.23 279.38Z" fill="white"/>
<path d="M67.2 119.26L69.46 119.08C72.46 118.84 75.99 117.67 75.99 113.41C75.9045 111.841 75.4507 110.315 74.6654 108.955C73.8801 107.594 72.7854 106.438 71.47 105.58C69.52 104.46 67.86 104.92 67.22 106.58C66.5874 104.166 65.075 102.075 62.98 100.72C60.48 99.2796 58.46 100.45 58.46 103.33C58.46 107.51 61.99 112.79 64.95 116.49L67.2 119.26Z" fill="#6F87F6"/>
<path d="M119.84 242.89C122.32 241.46 125.74 241.66 129.53 243.89C137.09 248.26 143.22 258.89 143.22 267.61C143.22 271.99 141.67 275.06 139.22 276.49L134.39 279.29C131.92 280.72 128.49 280.51 124.71 278.29C117.15 273.92 111.02 263.29 111.02 254.57C111.02 250.2 112.55 247.14 115.02 245.71" fill="#6F87F6"/>
<path d="M124.67 246.66C132.24 251.03 138.37 261.66 138.37 270.38C138.37 279.1 132.23 282.66 124.67 278.29C117.11 273.92 110.97 263.29 110.98 254.57C110.99 245.85 117.12 242.35 124.67 246.66Z" fill="#6F87F6"/>
<path opacity="0.4" d="M119.84 242.89L114.99 245.71C117.47 244.27 120.89 244.48 124.67 246.66C129.62 249.52 133.96 255.07 136.37 261L141.22 258.19C138.82 252.25 134.52 246.71 129.52 243.85C125.74 241.66 122.32 241.46 119.84 242.89Z" fill="white"/>
<path opacity="0.2" d="M134.52 279.14L139.16 276.45C141.65 275.02 143.16 271.95 143.16 267.57L138.37 270.35C138.36 274.64 136.9 277.67 134.52 279.14Z" fill="black"/>
<path opacity="0.1" d="M141.22 258.19L136.37 261C137.626 263.971 138.305 267.154 138.37 270.38V270.38L143.22 267.56C143.154 264.338 142.475 261.158 141.22 258.19V258.19Z" fill="black"/>
<path d="M120.36 253.78V267.05C120.36 268.05 120.75 268.77 121.24 268.68L130.43 266.91C130.91 266.81 130.71 265.91 129.96 264.91L121.71 253.79C120.96 252.8 120.36 252.79 120.36 253.78Z" fill="white"/>
<path d="M8.86004 69.5296C11.34 68.0896 14.76 68.2996 18.55 70.4796C26.11 74.8496 32.24 85.4796 32.24 94.1996C32.24 98.5896 30.7 101.66 28.24 103.08L23.42 105.88C20.94 107.31 17.52 107.11 13.73 104.88C6.17004 100.52 0.0400391 89.8796 0.0400391 81.1596C0.0400391 76.7996 1.57004 73.7296 4.04004 72.2996" fill="#6F87F6"/>
<path d="M13.7 73.3496C21.26 77.7196 27.39 88.3496 27.39 97.0696C27.39 105.79 21.26 109.34 13.69 104.97C6.12001 100.6 -0.00998778 89.9696 1.22175e-05 81.2496C0.0100122 72.5296 6.14001 68.9296 13.7 73.3496Z" fill="#6F87F6"/>
<path opacity="0.4" d="M8.86001 69.5296L4.01001 72.3496C6.49001 70.9196 9.91001 71.1196 13.69 73.3496C18.69 76.2096 22.99 81.7496 25.39 87.6896L30.24 84.8696C27.84 78.8796 23.52 73.3496 18.52 70.4796C14.76 68.3496 11.34 68.0896 8.86001 69.5296Z" fill="white"/>
<path opacity="0.2" d="M23.52 105.77L28.16 103.08C30.66 101.66 32.16 98.5896 32.16 94.1996L27.31 97.0196C27.39 101.28 25.93 104.35 23.52 105.77Z" fill="black"/>
<path opacity="0.1" d="M30.24 84.8196L25.39 87.6396C26.6463 90.6109 27.3251 93.7943 27.39 97.0196V97.0196L32.24 94.1996C32.1751 90.9743 31.4963 87.7909 30.24 84.8196V84.8196Z" fill="black"/>
<path d="M10.52 77.3996V90.9996C10.249 90.7341 9.94678 90.5024 9.62003 90.3096C8.62003 89.7096 7.75004 90.5196 7.75004 92.1096C7.73559 92.8677 7.8969 93.6188 8.22134 94.3041C8.54577 94.9894 9.02451 95.5903 9.62003 96.0596C10.62 96.6596 11.89 96.0596 11.89 94.4796V82.0096L17.89 85.5296V95.2896C17.6164 95.0271 17.3146 94.7957 16.99 94.5996C15.99 93.9996 15.46 94.9896 15.46 96.5996C15.4393 97.3658 15.5976 98.1263 15.9222 98.8207C16.2468 99.515 16.7288 100.124 17.33 100.6C18.33 101.2 19.2 100.39 19.2 98.7996V82.4996L10.52 77.3996Z" fill="white"/>
<path d="M347.39 187.69C344.91 186.26 341.48 186.46 337.7 188.69C330.14 193.06 324.01 203.69 324.01 212.41C324.01 216.79 325.55 219.86 328.01 221.29L332.83 224.09C335.31 225.52 338.73 225.31 342.51 223.09C350.08 218.72 356.21 208.09 356.21 199.37C356.21 195 354.68 191.94 352.21 190.51" fill="#6F87F6"/>
<path d="M342.52 191.46C334.96 195.83 328.83 206.46 328.83 215.18C328.83 223.9 334.96 227.46 342.52 223.09C350.08 218.72 356.23 208.09 356.22 199.37C356.21 190.65 350.11 187.1 342.52 191.46Z" fill="#6F87F6"/>
<path opacity="0.4" d="M347.39 187.69L352.24 190.51C349.76 189.07 346.34 189.28 342.55 191.51C337.6 194.37 333.26 199.92 330.86 205.85L326 203.04C328.41 197.1 332.75 191.56 337.7 188.7C341.52 186.46 344.91 186.26 347.39 187.69Z" fill="white"/>
<path opacity="0.2" d="M332.69 223.94L328.05 221.25C325.55 219.82 324.05 216.75 324.05 212.37L328.9 215.19C328.86 219.44 330.32 222.47 332.69 223.94Z" fill="black"/>
<path opacity="0.1" d="M326 202.99L330.86 205.8C329.604 208.771 328.925 211.954 328.86 215.18V215.18L324.01 212.35C324.079 209.132 324.754 205.957 326 202.99V202.99Z" fill="black"/>
<path d="M335.71 202.63V219.83C335.71 220.35 336.07 220.56 336.52 220.3L348.59 213.3C348.825 213.146 349.021 212.94 349.162 212.696C349.303 212.453 349.384 212.18 349.4 211.9V194.72C349.4 194.21 349.04 194 348.59 194.25L336.52 201.25C336.286 201.399 336.09 201.602 335.949 201.842C335.808 202.082 335.726 202.352 335.71 202.63V202.63ZM347.83 212.63L337.28 218.73C336.83 218.98 336.47 218.73 336.47 218.26V203.35C336.485 203.069 336.566 202.796 336.707 202.552C336.848 202.309 337.044 202.102 337.28 201.95L347.83 195.86C348.28 195.6 348.64 195.81 348.64 196.32V211.19C348.627 211.471 348.546 211.745 348.405 211.988C348.264 212.232 348.067 212.438 347.83 212.59V212.63Z" fill="white"/>
<path d="M336.47 219.15V214.31L340.31 206.94L344.3 211.32L343.44 209.2L345.02 206.29L348.64 208.77V212.13L336.47 219.15Z" fill="white"/>
<path d="M345.62 200.29C346.1 200.01 346.5 200.39 346.5 201.14C346.505 201.496 346.428 201.849 346.275 202.172C346.123 202.494 345.899 202.777 345.62 203C345.13 203.28 344.74 202.9 344.74 202.15C344.732 201.793 344.808 201.439 344.96 201.116C345.113 200.793 345.339 200.51 345.62 200.29V200.29Z" fill="white"/>
<path d="M100 50.0796L97.29 44.9896L99.52 38.7096V34.8596L92.85 38.7096V42.5496L95.72 47.5496C95.7663 47.6266 95.8365 47.6864 95.92 47.7196L100 50.0796Z" fill="#6F87F6"/>
<path opacity="0.2" d="M100 50.0796L97.29 44.9896L99.52 38.7096V34.8596L92.85 38.7096V42.5496L95.72 47.5496C95.7663 47.6266 95.8365 47.6864 95.92 47.7196L100 50.0796Z" fill="black"/>
<path d="M128.66 4.87959C128.62 4.18668 128.419 3.51274 128.071 2.91185C127.724 2.31096 127.241 1.79987 126.66 1.41959L125.03 0.479591C124.41 0.164331 123.725 0 123.03 0C122.335 0 121.65 0.164331 121.03 0.479591L83.34 22.2596C82.7572 22.6375 82.2721 23.148 81.9245 23.7494C81.5769 24.3508 81.3766 25.0259 81.34 25.7196V45.2096C81.3759 45.9048 81.5758 46.5816 81.9234 47.1847C82.271 47.7878 82.7564 48.3001 83.34 48.6796L84.97 49.6196C85.5905 49.9318 86.2754 50.0944 86.97 50.0944C87.6646 50.0944 88.3495 49.9318 88.97 49.6196L96.97 44.9796L99.83 49.9796C99.869 50.0522 99.9285 50.1118 100.001 50.1509C100.074 50.19 100.156 50.2068 100.238 50.1994C100.32 50.1919 100.398 50.1605 100.463 50.1089C100.527 50.0574 100.575 49.9881 100.6 49.9096L103.6 41.1796L126.6 27.8896C127.181 27.5093 127.664 26.9982 128.011 26.3973C128.359 25.7964 128.56 25.1225 128.6 24.4296L128.66 4.87959Z" fill="#6F87F6"/>
<path opacity="0.2" d="M81.34 45.2096C81.3759 45.9048 81.5758 46.5816 81.9234 47.1847C82.271 47.7878 82.7564 48.3001 83.34 48.6796L84.97 49.6196C85.5334 49.9 86.1493 50.0591 86.778 50.0867C87.4068 50.1142 88.0343 50.0096 88.62 49.7796C87.68 50.1296 86.96 49.5996 86.96 48.4596V28.9696C86.9801 28.2631 87.1834 27.5739 87.55 26.9696L81.93 23.7196C81.56 24.3224 81.3564 25.0125 81.34 25.7196V45.2096Z" fill="black"/>
<path opacity="0.2" d="M128.59 4.34959C128.36 3.49959 127.59 3.22959 126.66 3.75959L88.96 25.5496C88.36 25.8967 87.863 26.3972 87.52 26.9996L81.9 23.7496C82.2376 23.1425 82.7225 22.6301 83.31 22.2596L121 0.479589C121.621 0.168938 122.306 0.00720215 123 0.00720215C123.694 0.00720215 124.379 0.168938 125 0.479589L126.63 1.41959C127.141 1.74602 127.58 2.17492 127.917 2.67922C128.254 3.18352 128.484 3.75228 128.59 4.34959V4.34959Z" fill="white"/>
<path d="M97.98 29.2796C97.2022 29.7846 96.5548 30.4664 96.0908 31.2693C95.6267 32.0722 95.3592 32.9735 95.31 33.8996C95.31 35.5996 96.5 36.2896 97.98 35.4396C98.7549 34.9323 99.3994 34.2498 99.8616 33.4472C100.324 32.6445 100.59 31.7444 100.64 30.8196C100.64 29.1196 99.45 28.4296 97.98 29.2796Z" fill="white"/>
<path d="M107.81 23.5896C107.034 24.0963 106.388 24.7785 105.924 25.5811C105.46 26.3837 105.192 27.2841 105.14 28.2096C105.14 29.9096 106.34 30.5996 107.81 29.7496C108.594 29.2473 109.248 28.5671 109.718 27.7642C110.189 26.9614 110.464 26.0587 110.52 25.1296C110.52 23.4296 109.28 22.7396 107.81 23.5896Z" fill="white"/>
<path d="M117.65 17.8996C116.872 18.4046 116.225 19.0863 115.761 19.8893C115.297 20.6922 115.029 21.5935 114.98 22.5196C114.98 24.2196 116.17 24.9096 117.65 24.0596C118.425 23.5523 119.069 22.8698 119.532 22.0672C119.994 21.2645 120.26 20.3644 120.31 19.4396C120.31 17.7396 119.12 17.0496 117.65 17.8996Z" fill="white"/>
<path d="M283.14 116.56L300.45 106.56C300.63 106.426 300.777 106.253 300.879 106.053C300.982 105.854 301.037 105.634 301.04 105.41V89.8496C301.04 89.4096 300.78 89.2096 300.45 89.3996L283.14 99.3996C282.958 99.5294 282.809 99.7002 282.704 99.8982C282.6 100.096 282.544 100.316 282.54 100.54V116.12C282.52 116.55 282.81 116.75 283.14 116.56Z" fill="#6F87F6"/>
<path d="M282.52 116.11V115.8L289.68 103.94L282.62 100.03C282.631 99.9841 282.647 99.9404 282.67 99.8996L291.47 103.57C291.65 103.65 291.89 103.51 292.08 103.21L300.87 89.4096C300.887 89.4061 300.904 89.4061 300.92 89.4096L293.87 101.47L301.02 105.07V105.37C301.016 105.617 300.954 105.86 300.84 106.08L293.51 102.08L292.51 103.86C292.09 104.56 291.51 104.86 291.12 104.66L290.12 104.08L282.8 116.52C282.724 116.478 282.66 116.419 282.611 116.348C282.562 116.277 282.531 116.195 282.52 116.11V116.11Z" fill="white"/>
<path d="M86.52 180.22C87.0612 180.775 87.5437 181.385 87.96 182.04C88.3825 182.707 88.7536 183.406 89.07 184.13C89.3648 184.81 89.6055 185.512 89.79 186.23C89.9542 186.837 90.0514 187.461 90.08 188.09C90.0923 188.24 90.0497 188.389 89.96 188.51C89.9333 188.552 89.891 188.582 89.8424 188.593C89.7937 188.604 89.7426 188.596 89.7 188.57L87.39 187.23C87.2303 187.143 87.0933 187.019 86.99 186.87C86.8713 186.695 86.7676 186.511 86.68 186.32L86.51 185.91C86.4219 185.684 86.3149 185.467 86.19 185.26C86.0327 185.007 85.8519 184.769 85.65 184.55C85.4294 184.302 85.1692 184.092 84.88 183.93C84.6736 183.809 84.4559 183.708 84.23 183.63C84.0548 183.563 83.8655 183.542 83.68 183.57C83.5997 183.581 83.5229 183.61 83.4554 183.655C83.3878 183.7 83.3313 183.76 83.29 183.83C83.1745 184.044 83.1224 184.287 83.14 184.53C83.1395 184.831 83.1972 185.13 83.31 185.41C83.4546 185.739 83.6467 186.046 83.88 186.32C84.1854 186.717 84.5196 187.091 84.88 187.44C85.32 187.86 85.88 188.38 86.51 188.98C87.1213 189.554 87.6863 190.176 88.2 190.84C88.6797 191.457 89.0858 192.128 89.41 192.84C89.7427 193.575 89.9877 194.347 90.14 195.14C90.3064 196.03 90.3868 196.934 90.38 197.84C90.3916 198.602 90.2974 199.363 90.1 200.1C89.9474 200.65 89.6741 201.159 89.3 201.59C88.9734 201.951 88.5382 202.197 88.06 202.29C87.5296 202.383 86.9845 202.349 86.47 202.19V204.42C86.4825 204.601 86.4332 204.78 86.33 204.93C86.313 204.957 86.2903 204.981 86.2633 205C86.2364 205.018 86.2058 205.031 86.1736 205.036C86.1414 205.042 86.1084 205.041 86.0768 205.033C86.0451 205.025 86.0156 205.01 85.99 204.99L83.68 203.65C83.5231 203.543 83.4041 203.388 83.34 203.21C83.2497 202.994 83.2021 202.763 83.2 202.53V200.2C82.64 199.639 82.1437 199.019 81.72 198.35C81.2739 197.668 80.8827 196.953 80.55 196.21C80.2347 195.497 79.9837 194.757 79.8 194C79.6342 193.315 79.5403 192.614 79.52 191.91C79.5098 191.761 79.5485 191.614 79.63 191.49C79.6584 191.449 79.7006 191.421 79.7486 191.41C79.7965 191.399 79.8469 191.406 79.89 191.43L82.21 192.77C82.3589 192.855 82.4911 192.967 82.6 193.1C82.7045 193.26 82.798 193.427 82.88 193.6C82.88 193.71 83 193.88 83.09 194.13C83.1976 194.405 83.3246 194.672 83.47 194.93C83.6403 195.236 83.8413 195.524 84.07 195.79C84.3197 196.088 84.6212 196.339 84.96 196.53C85.43 196.838 85.9698 197.024 86.53 197.07C86.95 197.07 87.16 196.76 87.16 196.13C87.1563 195.809 87.0776 195.494 86.93 195.21C86.7345 194.854 86.5033 194.519 86.24 194.21C85.93 193.86 85.54 193.46 85.06 193.01C84.58 192.56 84.06 192.01 83.37 191.41C82.2151 190.334 81.3075 189.02 80.71 187.56C80.1262 186.028 79.8411 184.399 79.87 182.76C79.8628 182.086 79.9401 181.414 80.1 180.76C80.2317 180.227 80.4586 179.722 80.77 179.27C81.0318 178.886 81.4003 178.587 81.83 178.41C82.2797 178.227 82.771 178.171 83.25 178.25V175.93C83.2376 175.746 83.2869 175.563 83.39 175.41C83.4281 175.358 83.4847 175.323 83.548 175.311C83.6113 175.3 83.6765 175.314 83.73 175.35L86.04 176.69C86.1972 176.801 86.316 176.958 86.38 177.14C86.4704 177.352 86.5179 177.579 86.52 177.81V180.22Z" fill="#6F87F6"/>
<path d="M193.14 18.1596L189.95 16.3496C188.44 15.3496 186.33 15.3496 183.95 16.7196C179.32 19.3896 175.58 26.1696 175.58 31.8596V33.1496C175.58 38.8396 183.23 45.0296 183.23 45.0296L186.36 46.7996C186.36 46.7996 184.48 44.6596 184.69 44.2196C186.69 40.0096 192.32 28.1296 192.32 23.4896V22.1896C192.329 21.2508 192.208 20.3153 191.96 19.4096L192.32 19.6196L193.14 18.1596ZM184 31.1596C181.69 32.4896 179.81 31.4096 179.81 28.7396C181.06 28.5496 184.19 23.2096 184 21.4896C186.31 20.1596 188.18 21.2396 188.18 23.9096C188.109 25.37 187.693 26.7928 186.967 28.0616C186.24 29.3305 185.224 30.4092 184 31.2096V31.1596Z" fill="#6F87F6"/>
<g opacity="0.2">
<path opacity="0.2" d="M193.14 18.1596L189.95 16.3496C188.44 15.3496 186.33 15.3496 183.95 16.7196C179.32 19.3896 175.58 26.1696 175.58 31.8596V33.1496C175.58 38.8396 183.23 45.0296 183.23 45.0296L186.36 46.7996C186.36 46.7996 184.48 44.6596 184.69 44.2196C186.69 40.0096 192.32 28.1296 192.32 23.4896V22.1896C192.329 21.2508 192.208 20.3153 191.96 19.4096L192.32 19.6196L193.14 18.1596ZM184 31.1596C181.69 32.4896 179.81 31.4096 179.81 28.7396C181.06 28.5496 184.19 23.2096 184 21.4896C186.31 20.1596 188.18 21.2396 188.18 23.9096C188.109 25.37 187.693 26.7928 186.967 28.0616C186.24 29.3305 185.224 30.4092 184 31.2096V31.1596Z" fill="black"/>
</g>
<path d="M195.72 24.1096C195.72 18.4196 191.97 15.9696 187.35 18.6396C182.73 21.3096 178.97 28.0896 178.97 33.7796V35.0796C178.97 39.4596 183.97 44.5396 186.22 46.6496C186.349 46.7689 186.504 46.8563 186.673 46.9051C186.842 46.9539 187.02 46.9626 187.193 46.9306C187.366 46.8985 187.528 46.8266 187.669 46.7206C187.809 46.6145 187.922 46.4772 188 46.3196C190 42.3196 195.72 30.1196 195.72 25.4096V24.1096ZM187.35 33.1096C185.03 34.4496 183.16 33.3696 183.16 30.6996C183.237 29.2464 183.657 27.8321 184.386 26.5721C185.114 25.3121 186.13 24.2422 187.35 23.4496C189.66 22.1096 191.53 23.1896 191.53 25.8596C191.458 27.3169 191.041 28.7363 190.314 30.0017C189.588 31.2671 188.572 32.3424 187.35 33.1396V33.1096Z" fill="#6F87F6"/>
<g opacity="0.8">
<path opacity="0.8" d="M341.73 82.9196C341.642 82.9183 341.557 82.8865 341.49 82.8296L279.68 32.5396C279.642 32.5087 279.61 32.4707 279.587 32.4276C279.564 32.3845 279.549 32.3372 279.544 32.2885C279.533 32.19 279.563 32.0915 279.625 32.0146C279.687 31.9377 279.778 31.8887 279.876 31.8784C279.975 31.8681 280.073 31.8973 280.15 31.9596L341.97 82.2596C342.031 82.3078 342.075 82.374 342.096 82.4488C342.118 82.5236 342.115 82.6032 342.088 82.6762C342.062 82.7492 342.013 82.8121 341.948 82.8558C341.884 82.8995 341.808 82.9218 341.73 82.9196V82.9196Z" fill="#6F87F6"/>
<path opacity="0.8" d="M340.68 189.72C340.583 189.712 340.492 189.667 340.427 189.595C340.362 189.522 340.327 189.427 340.33 189.33L343.94 111.05C343.945 110.951 343.989 110.857 344.062 110.79C344.135 110.723 344.231 110.687 344.33 110.69C344.429 110.695 344.522 110.738 344.589 110.811C344.657 110.884 344.693 110.98 344.69 111.08L341.05 189.35C341.05 189.448 341.011 189.542 340.942 189.611C340.872 189.681 340.778 189.72 340.68 189.72V189.72Z" fill="#6F87F6"/>
<path opacity="0.8" d="M335.12 194.52C335.051 194.522 334.984 194.505 334.925 194.469C334.866 194.434 334.819 194.382 334.79 194.32L293.86 117.32C293.817 117.232 293.81 117.131 293.84 117.038C293.87 116.944 293.934 116.866 294.02 116.82C294.106 116.773 294.207 116.763 294.301 116.791C294.395 116.819 294.473 116.884 294.52 116.97L335.44 193.97C335.464 194.012 335.48 194.059 335.485 194.107C335.491 194.156 335.486 194.205 335.472 194.252C335.458 194.299 335.435 194.342 335.403 194.379C335.372 194.417 335.334 194.448 335.29 194.47C335.238 194.5 335.18 194.517 335.12 194.52Z" fill="#6F87F6"/>
<path opacity="0.8" d="M303.91 97.6996C303.824 97.7008 303.74 97.6712 303.674 97.6162C303.608 97.5612 303.564 97.4843 303.55 97.3996C303.532 97.303 303.552 97.2032 303.606 97.1212C303.66 97.0391 303.744 96.9812 303.84 96.9596L334.52 90.8796C334.567 90.8695 334.616 90.869 334.664 90.8782C334.711 90.8874 334.756 90.9061 334.797 90.9331C334.837 90.9602 334.871 90.9951 334.897 91.0357C334.924 91.0764 334.942 91.1219 334.95 91.1696C334.968 91.2662 334.948 91.366 334.894 91.448C334.84 91.5301 334.756 91.588 334.66 91.6096L304.02 97.6896L303.91 97.6996Z" fill="#6F87F6"/>
<path opacity="0.8" d="M288.13 92.1296C288.058 92.1299 287.988 92.1093 287.927 92.0702C287.867 92.0312 287.819 91.9753 287.79 91.9096L267.71 45.7696C267.69 45.725 267.679 45.6769 267.678 45.628C267.677 45.5792 267.685 45.5306 267.703 45.485C267.721 45.4395 267.747 45.3978 267.781 45.3626C267.815 45.3273 267.855 45.2991 267.9 45.2796C267.945 45.26 267.994 45.2496 268.043 45.249C268.093 45.2485 268.141 45.2578 268.187 45.2765C268.233 45.2951 268.274 45.3227 268.309 45.3576C268.344 45.3924 268.371 45.4339 268.39 45.4796L288.52 91.6096C288.541 91.654 288.553 91.7023 288.555 91.7515C288.557 91.8008 288.549 91.8499 288.531 91.8958C288.513 91.9417 288.486 91.9835 288.452 92.0186C288.417 92.0536 288.376 92.0812 288.33 92.0996C288.267 92.1266 288.198 92.1369 288.13 92.1296V92.1296Z" fill="#6F87F6"/>
<path opacity="0.8" d="M195.9 31.5596C195.812 31.5588 195.727 31.5274 195.659 31.4709C195.592 31.4144 195.546 31.3361 195.53 31.2496C195.52 31.2008 195.52 31.1504 195.531 31.1017C195.541 31.053 195.561 31.007 195.591 30.9665C195.62 30.9261 195.657 30.8922 195.7 30.8669C195.743 30.8416 195.79 30.8255 195.84 30.8196L261.52 20.0696C261.617 20.0553 261.715 20.0798 261.794 20.1379C261.873 20.196 261.925 20.2829 261.94 20.3796C261.949 20.4275 261.948 20.4767 261.937 20.5243C261.927 20.5719 261.907 20.617 261.879 20.6569C261.851 20.6969 261.816 20.7309 261.775 20.7571C261.734 20.7833 261.688 20.8012 261.64 20.8096L195.96 31.5496L195.9 31.5596Z" fill="#6F87F6"/>
<path opacity="0.8" d="M283.33 95.1796C283.259 95.1772 283.19 95.1565 283.13 95.1196L195.06 38.6096C195.019 38.5827 194.984 38.548 194.957 38.5076C194.93 38.4671 194.911 38.4217 194.901 38.3738C194.891 38.326 194.891 38.2768 194.9 38.2288C194.909 38.1809 194.928 38.1353 194.955 38.0946C194.982 38.0539 195.017 38.0189 195.057 37.9916C195.097 37.9643 195.143 37.9452 195.191 37.9354C195.239 37.9257 195.288 37.9255 195.336 37.9347C195.384 37.944 195.429 37.9627 195.47 37.9896L283.52 94.4996C283.587 94.5435 283.639 94.6082 283.666 94.6838C283.693 94.7595 283.695 94.842 283.672 94.9189C283.648 94.9957 283.6 95.0628 283.534 95.1098C283.469 95.1569 283.39 95.1814 283.31 95.1796H283.33Z" fill="#6F87F6"/>
<path opacity="0.8" d="M282.98 177.51C282.881 177.497 282.791 177.446 282.729 177.367C282.667 177.289 282.639 177.189 282.65 177.09L289.4 117.09C289.405 117.04 289.42 116.992 289.444 116.948C289.468 116.904 289.5 116.866 289.54 116.835C289.579 116.804 289.624 116.782 289.672 116.769C289.72 116.756 289.771 116.753 289.82 116.76C289.868 116.764 289.915 116.779 289.958 116.803C290 116.826 290.038 116.858 290.068 116.896C290.097 116.935 290.119 116.979 290.132 117.026C290.144 117.072 290.147 117.122 290.14 117.17L283.39 177.17C283.386 177.219 283.373 177.267 283.35 177.312C283.327 177.356 283.296 177.395 283.257 177.427C283.219 177.458 283.175 177.482 283.127 177.496C283.079 177.511 283.029 177.515 282.98 177.51V177.51Z" fill="#6F87F6"/>
<path opacity="0.8" d="M242.74 263.24C242.675 263.239 242.611 263.221 242.554 263.188C242.498 263.154 242.452 263.107 242.42 263.05C242.395 263.008 242.378 262.961 242.371 262.913C242.364 262.864 242.366 262.815 242.379 262.767C242.391 262.72 242.412 262.675 242.441 262.636C242.471 262.597 242.508 262.564 242.55 262.54L326.55 213.64C326.592 213.614 326.638 213.598 326.687 213.591C326.735 213.583 326.785 213.586 326.832 213.598C326.88 213.61 326.924 213.632 326.963 213.661C327.002 213.69 327.035 213.727 327.06 213.77C327.085 213.812 327.101 213.859 327.107 213.908C327.114 213.957 327.11 214.007 327.097 214.054C327.084 214.102 327.062 214.146 327.031 214.185C327.001 214.223 326.963 214.256 326.92 214.28L242.92 263.19C242.864 263.219 242.803 263.236 242.74 263.24V263.24Z" fill="#6F87F6"/>
<path opacity="0.8" d="M328.35 204.72H328.24L288.83 193.25C288.737 193.22 288.66 193.155 288.613 193.07C288.567 192.984 288.555 192.884 288.58 192.79C288.593 192.742 288.615 192.698 288.645 192.659C288.675 192.62 288.713 192.587 288.755 192.563C288.798 192.539 288.845 192.523 288.894 192.518C288.943 192.512 288.993 192.516 289.04 192.53L328.45 204C328.545 204.028 328.625 204.091 328.673 204.177C328.722 204.263 328.735 204.364 328.71 204.46C328.685 204.535 328.637 204.601 328.572 204.648C328.507 204.694 328.43 204.719 328.35 204.72V204.72Z" fill="#6F87F6"/>
<path opacity="0.8" d="M241.77 249.02C241.688 249.021 241.607 248.997 241.54 248.95C241.464 248.889 241.414 248.8 241.401 248.704C241.388 248.607 241.413 248.509 241.47 248.43L271.26 208.43C271.289 208.39 271.325 208.356 271.367 208.331C271.409 208.305 271.455 208.289 271.503 208.281C271.552 208.274 271.601 208.276 271.649 208.288C271.696 208.299 271.741 208.32 271.78 208.35C271.861 208.409 271.914 208.499 271.929 208.598C271.944 208.697 271.919 208.799 271.86 208.88L242.07 248.88C242.034 248.924 241.988 248.96 241.936 248.984C241.884 249.008 241.827 249.02 241.77 249.02V249.02Z" fill="#6F87F6"/>
<path opacity="0.8" d="M126.02 245.17C125.963 245.17 125.907 245.157 125.856 245.13C125.806 245.104 125.763 245.066 125.73 245.02L92.88 202.95C92.8498 202.912 92.8274 202.868 92.8141 202.821C92.8007 202.774 92.7967 202.725 92.8023 202.677C92.8079 202.629 92.8229 202.582 92.8465 202.54C92.8702 202.497 92.9019 202.46 92.94 202.43C92.9781 202.399 93.0218 202.377 93.0685 202.364C93.1152 202.35 93.1641 202.346 93.2124 202.352C93.2607 202.357 93.3074 202.372 93.3499 202.396C93.3924 202.42 93.4298 202.452 93.46 202.49L126.32 244.56C126.363 244.616 126.389 244.683 126.396 244.753C126.403 244.823 126.39 244.894 126.359 244.957C126.327 245.021 126.279 245.074 126.219 245.112C126.16 245.149 126.091 245.169 126.02 245.17Z" fill="#6F87F6"/>
<path opacity="0.8" d="M37.01 204.15C36.9373 204.148 36.8665 204.125 36.8063 204.084C36.746 204.044 36.6987 203.986 36.67 203.92C36.6506 203.874 36.6407 203.824 36.6409 203.775C36.641 203.725 36.6512 203.676 36.6708 203.63C36.6904 203.584 36.719 203.543 36.755 203.508C36.7909 203.474 36.8335 203.447 36.88 203.43L72.52 189.24C72.6095 189.216 72.7044 189.227 72.787 189.268C72.8695 189.31 72.9339 189.38 72.9683 189.466C73.0026 189.552 73.0045 189.648 72.9735 189.735C72.9425 189.822 72.8808 189.895 72.8 189.94L37.18 204.13L37.01 204.15Z" fill="#6F87F6"/>
<path opacity="0.8" d="M82.04 170.02C81.9569 170.022 81.8756 169.995 81.81 169.944C81.7444 169.893 81.6985 169.821 81.68 169.74L70.79 125.07C70.778 125.022 70.7755 124.973 70.7826 124.925C70.7897 124.877 70.8063 124.83 70.8314 124.788C70.8565 124.747 70.8896 124.71 70.9288 124.681C70.9681 124.652 71.0126 124.631 71.06 124.62C71.1567 124.598 71.2578 124.616 71.3419 124.668C71.4259 124.72 71.4862 124.804 71.51 124.9L82.4 169.56C82.412 169.607 82.4145 169.656 82.4074 169.704C82.4003 169.753 82.3837 169.799 82.3586 169.841C82.3335 169.883 82.3004 169.919 82.2611 169.948C82.2219 169.977 82.1773 169.998 82.13 170.01L82.04 170.02Z" fill="#6F87F6"/>
<path opacity="0.8" d="M26.69 186.58C26.6342 186.594 26.5758 186.594 26.52 186.58C26.4766 186.557 26.4379 186.527 26.4063 186.49C26.3748 186.452 26.3508 186.409 26.336 186.363C26.3211 186.316 26.3156 186.267 26.3197 186.219C26.3238 186.17 26.3375 186.123 26.36 186.08L60.36 118.29C60.405 118.202 60.4824 118.135 60.5756 118.104C60.6689 118.072 60.7709 118.078 60.86 118.12C60.9483 118.167 61.0153 118.246 61.0469 118.341C61.0786 118.436 61.0725 118.539 61.03 118.63L27.02 186.35C26.9953 186.417 26.9504 186.476 26.8913 186.517C26.8323 186.558 26.762 186.58 26.69 186.58V186.58Z" fill="#6F87F6"/>
<path opacity="0.8" d="M21.89 184.19C21.7968 184.19 21.707 184.155 21.6384 184.092C21.5698 184.029 21.5275 183.942 21.52 183.85L13.77 102.85C13.7645 102.8 13.769 102.75 13.7832 102.703C13.7975 102.655 13.8212 102.611 13.8529 102.572C13.8846 102.534 13.9237 102.503 13.9679 102.48C14.0121 102.457 14.0604 102.443 14.11 102.44C14.1589 102.434 14.2084 102.439 14.2554 102.453C14.3025 102.467 14.3461 102.491 14.3836 102.523C14.4211 102.555 14.4516 102.594 14.4734 102.638C14.4951 102.682 14.5076 102.73 14.51 102.78L22.26 183.78C22.2655 183.828 22.2614 183.877 22.2477 183.925C22.2341 183.972 22.2113 184.015 22.1806 184.054C22.1499 184.092 22.112 184.123 22.0689 184.147C22.0259 184.17 21.9787 184.185 21.93 184.19H21.89Z" fill="#6F87F6"/>
<path opacity="0.8" d="M117.42 262.35C117.353 262.352 117.287 262.335 117.23 262.3L35.4 215.06C35.3138 215.011 35.2506 214.929 35.2243 214.834C35.1981 214.738 35.2109 214.636 35.26 214.55C35.309 214.463 35.3903 214.4 35.486 214.374C35.5816 214.348 35.6838 214.361 35.77 214.41L117.61 261.66C117.681 261.701 117.736 261.764 117.767 261.84C117.798 261.915 117.803 261.999 117.781 262.078C117.759 262.157 117.712 262.226 117.647 262.275C117.581 262.324 117.502 262.351 117.42 262.35V262.35Z" fill="#6F87F6"/>
<path opacity="0.8" d="M70.25 101.42C70.2004 101.429 70.1495 101.429 70.1 101.42C70.0113 101.378 69.942 101.304 69.9066 101.213C69.8712 101.121 69.8724 101.02 69.91 100.93L91.7 51.1396C91.7195 51.0948 91.7477 51.0543 91.783 51.0205C91.8182 50.9867 91.8598 50.9602 91.9054 50.9425C91.9509 50.9248 91.9996 50.9164 92.0484 50.9176C92.0972 50.9188 92.1454 50.9297 92.19 50.9496C92.2357 50.968 92.2771 50.9956 92.3117 51.0306C92.3463 51.0657 92.3734 51.1075 92.3912 51.1534C92.409 51.1993 92.4172 51.2484 92.4153 51.2977C92.4133 51.3469 92.4013 51.3952 92.38 51.4396L70.6 101.23C70.5649 101.291 70.5137 101.341 70.4519 101.374C70.3901 101.408 70.3202 101.423 70.25 101.42V101.42Z" fill="#6F87F6"/>
<path opacity="0.8" d="M174.05 31.0896H173.96L132.61 20.8896C132.514 20.8658 132.431 20.8055 132.379 20.7215C132.326 20.6374 132.309 20.5363 132.33 20.4396C132.356 20.3427 132.418 20.2596 132.504 20.2075C132.59 20.1553 132.692 20.1382 132.79 20.1596L174.14 30.3496C174.236 30.3734 174.319 30.4337 174.371 30.5177C174.424 30.6018 174.441 30.7029 174.42 30.7996C174.4 30.8824 174.352 30.9561 174.285 31.0087C174.218 31.0613 174.135 31.0898 174.05 31.0896V31.0896Z" fill="#6F87F6"/>
<path opacity="0.8" d="M22.52 78.8896C22.4616 78.8908 22.4037 78.8778 22.3514 78.8517C22.2992 78.8255 22.2541 78.7871 22.22 78.7396C22.1606 78.6586 22.1356 78.5574 22.1506 78.4581C22.1656 78.3588 22.2193 78.2694 22.3 78.2096L77.89 38.0596C77.9718 38.0027 78.0723 37.9792 78.1709 37.9941C78.2695 38.009 78.3586 38.0611 78.42 38.1396C78.4489 38.1803 78.4695 38.2263 78.4806 38.275C78.4917 38.3236 78.4932 38.374 78.4848 38.4232C78.4764 38.4725 78.4585 38.5196 78.4319 38.5618C78.4053 38.6041 78.3707 38.6407 78.33 38.6696L22.78 78.8196C22.7056 78.8757 22.6124 78.9008 22.52 78.8896V78.8896Z" fill="#6F87F6"/>
<path opacity="0.8" d="M55.73 102.35C55.6809 102.363 55.629 102.363 55.58 102.35L29.7 90.1596C29.6178 90.1145 29.5559 90.0399 29.5266 89.9508C29.4974 89.8618 29.503 89.765 29.5423 89.6799C29.5817 89.5949 29.6518 89.5279 29.7386 89.4926C29.8254 89.4573 29.9224 89.4562 30.01 89.4896L55.89 101.6C55.9352 101.62 55.9758 101.649 56.0094 101.686C56.0431 101.722 56.0691 101.765 56.0858 101.811C56.1026 101.858 56.1099 101.908 56.1072 101.957C56.1044 102.007 56.0918 102.055 56.07 102.1C56.0444 102.17 55.9984 102.232 55.9379 102.276C55.8774 102.321 55.805 102.346 55.73 102.35V102.35Z" fill="#6F87F6"/>
<path opacity="0.8" d="M76.61 107.21C76.5496 107.208 76.4903 107.193 76.4366 107.165C76.3829 107.137 76.3362 107.098 76.3 107.05C76.2713 107.01 76.2509 106.964 76.2399 106.917C76.2289 106.869 76.2276 106.819 76.2359 106.771C76.2443 106.722 76.2623 106.676 76.2887 106.635C76.3152 106.593 76.3496 106.558 76.39 106.53L170.39 39.3996C170.471 39.3426 170.571 39.32 170.669 39.3369C170.766 39.3538 170.853 39.4087 170.91 39.4896C170.967 39.5705 170.99 39.6707 170.973 39.7682C170.956 39.8658 170.901 39.9526 170.82 40.0096L76.82 107.14C76.7601 107.186 76.6859 107.211 76.61 107.21Z" fill="#6F87F6"/>
<path opacity="0.8" d="M216.96 262.18L139.79 262.13C139.695 262.13 139.603 262.092 139.535 262.024C139.468 261.957 139.43 261.865 139.43 261.77C139.43 261.674 139.468 261.583 139.535 261.515C139.603 261.448 139.695 261.41 139.79 261.41V261.41L216.96 261.47C217.012 261.461 217.064 261.464 217.115 261.477C217.165 261.491 217.212 261.516 217.252 261.55C217.292 261.583 217.324 261.626 217.346 261.673C217.368 261.721 217.38 261.772 217.38 261.825C217.38 261.877 217.368 261.929 217.346 261.976C217.324 262.024 217.292 262.066 217.252 262.099C217.212 262.133 217.165 262.158 217.115 262.172C217.064 262.186 217.012 262.188 216.96 262.18V262.18Z" fill="#6F87F6"/>
</g>
<ellipse cx="230.946" cy="265.841" rx="15.4407" ry="10.3201" transform="rotate(-61.5752 230.946 265.841)" fill="#6F87F6"/>
<ellipse cx="271.946" cy="28.8412" rx="15.4407" ry="10.3201" transform="rotate(-61.5752 271.946 28.8412)" fill="#6F87F6"/>
<ellipse cx="22.3913" cy="200.908" rx="15.4407" ry="10.3201" transform="rotate(-121.531 22.3913 200.908)" fill="#6F87F6"/>
</svg>
