<svg id="Layer_35" enable-background="new 0 0 64 64" height="512" viewBox="0 0 64 64" width="512" xmlns="http://www.w3.org/2000/svg" xmlns:xlink="http://www.w3.org/1999/xlink"><linearGradient id="SVGID_1_" gradientUnits="userSpaceOnUse" x1="32" x2="32" y1="63" y2="1"><stop offset="0" stop-color="#9f2fff"/><stop offset="1" stop-color="#0bb1d3"/></linearGradient><path d="m60 1c-1.654 0-3 1.346-3 3 0 .462.113.894.301 1.285l-2.008 2.008 1.414 1.414 2.008-2.008c.391.188.823.301 1.285.301 1.654 0 3-1.346 3-3s-1.346-3-3-3zm0 4c-.552 0-1-.448-1-1s.448-1 1-1 1 .448 1 1-.448 1-1 1zm0 6c-1.654 0-3 1.346-3 3 0 .462.113.894.301 1.285l-4.301 4.301v4l-1.707 1.707 1.414 1.414 2.293-2.293v-4l3.715-3.715c.391.188.823.301 1.285.301 1.654 0 3-1.346 3-3s-1.346-3-3-3zm0 4c-.552 0-1-.448-1-1s.448-1 1-1 1 .448 1 1-.448 1-1 1zm-26.369 0h-15.045l-3.586 3.586v15l-2.707 2.707 1.414 1.414 1.293-1.293v11.172l-6.707 6.707 1.414 1.414 6.707-6.707h10.884l-1.448 1.241 1.301 1.518 3.218-2.759h15.045l3.586-3.586v-15l2.707-2.707-1.414-1.414-1.293 1.293v-11.172l6.707-6.707-1.414-1.414-6.707 6.707h-10.884l1.448-1.241-1.301-1.518zm-4.631 32v-2h2v2zm-2-2v2h-2v-2zm6 0h2v2h-2zm4 0h2v2h-2zm-16-2v-22h22v22zm8-24v-2h2v2zm-2 0h-2v-2h2zm10 0v-2h2v2zm-2 0h-2v-2h2zm-15.586-2h3.586v2h-4v4h-2v-3.586zm-.414 22h-2v-2h2zm0-4h-2v-2h2zm0-4h-2v-2h2zm0-4h-2v-2h2zm-2 14h2v4h4v2h-6zm27.586 6h-3.586v-2h4v-4h2v3.586zm.414-22h2v2h-2zm0 4h2v2h-2zm0 4h2v2h-2zm0 4h2v2h-2zm2-14h-2v-4h-4v-2h6zm-6.37-14-2.613 2.241 1.301 1.518 2.052-1.759h3.044l4.301-4.301c.391.188.823.301 1.285.301 1.654 0 3-1.346 3-3s-1.346-3-3-3-3 1.346-3 3c0 .462.113.894.301 1.285l-3.715 3.715zm9.37-6c.552 0 1 .448 1 1s-.448 1-1 1-1-.448-1-1 .448-1 1-1zm-46 60c1.654 0 3-1.346 3-3 0-.462-.113-.894-.301-1.285l2.008-2.008-1.414-1.414-2.008 2.008c-.391-.188-.823-.301-1.285-.301-1.654 0-3 1.346-3 3s1.346 3 3 3zm0-4c.552 0 1 .448 1 1s-.448 1-1 1-1-.448-1-1 .448-1 1-1zm19.37-4 2.613-2.241-1.301-1.518-2.052 1.759h-3.044l-4.301 4.301c-.391-.188-.823-.301-1.285-.301-1.654 0-3 1.346-3 3s1.346 3 3 3 3-1.346 3-3c0-.462-.113-.894-.301-1.285l3.715-3.715zm-9.37 6c-.552 0-1-.448-1-1s.448-1 1-1 1 .448 1 1-.448 1-1 1zm-5-21.414v4l-3.715 3.715c-.391-.188-.823-.301-1.285-.301-1.654 0-3 1.346-3 3s1.346 3 3 3 3-1.346 3-3c0-.462-.113-.894-.301-1.285l4.301-4.301v-4l1.707-1.707-1.414-1.414zm-5 11.414c-.552 0-1-.448-1-1s.448-1 1-1 1 .448 1 1-.448 1-1 1zm29-28h-10v10h10zm-2 8h-6v-6h6zm8 8h2v2h-2zm-4 0h2v2h-2zm-4 0h2v2h-2zm0-4h10v2h-10zm-6 5c0 .552-.448 1-1 1s-1-.448-1-1 .448-1 1-1 1 .448 1 1zm16-16c0 .552-.448 1-1 1s-1-.448-1-1 .448-1 1-1 1 .448 1 1z" fill="url(#SVGID_1_)"/></svg>