<svg xmlns="http://www.w3.org/2000/svg" viewBox="0 0 500 500"><g id="freepik--Button--inject-316"><path d="M196,192.64a4.62,4.62,0,1,1,4.61-4.62A4.62,4.62,0,0,1,196,192.64Z" style="fill:#6F87F6"></path><path d="M198.11,213H198a24.85,24.85,0,0,1-12.31-3.47l2.51-4.42a19.66,19.66,0,0,0,9.8,2.76Zm12.3-3.7L207.89,205a19.72,19.72,0,0,0,7.16-7.21l4.33,2.49A24.69,24.69,0,0,1,210.41,209.3Zm-33.71-9a24.55,24.55,0,0,1-3.31-12.3h5a19.44,19.44,0,0,0,2.64,9.8Zm41-12.39a19.55,19.55,0,0,0-2.66-9.79l4.32-2.52a24.65,24.65,0,0,1,3.34,12.3ZM181,178.24l-4.32-2.5a24.76,24.76,0,0,1,9-9l2.51,4.32A19.9,19.9,0,0,0,181,178.24ZM207.78,171a19.82,19.82,0,0,0-9.76-2.8L198,163H198a24.82,24.82,0,0,1,12.26,3.47Z" style="fill:#6F87F6"></path><g style="opacity:0.6000000000000001;isolation:isolate"><path d="M198.11,213H198a24.85,24.85,0,0,1-12.31-3.47l2.51-4.42a19.66,19.66,0,0,0,9.8,2.76Zm12.3-3.7L207.89,205a19.72,19.72,0,0,0,7.16-7.21l4.33,2.49A24.69,24.69,0,0,1,210.41,209.3Zm-33.71-9a24.55,24.55,0,0,1-3.31-12.3h5a19.44,19.44,0,0,0,2.64,9.8Zm41-12.39a19.55,19.55,0,0,0-2.66-9.79l4.32-2.52a24.65,24.65,0,0,1,3.34,12.3ZM181,178.24l-4.32-2.5a24.76,24.76,0,0,1,9-9l2.51,4.32A19.9,19.9,0,0,0,181,178.24ZM207.78,171a19.82,19.82,0,0,0-9.76-2.8L198,163H198a24.82,24.82,0,0,1,12.26,3.47Z" style="fill:#fff"></path></g></g><g id="freepik--data-points--inject-316"><path d="M203,194.18a6.16,6.16,0,1,1,6.15-6.16A6.16,6.16,0,0,1,203,194.18Z" style="fill:#6F87F6"></path><path d="M203,194.18a6.16,6.16,0,1,1,6.15-6.16A6.16,6.16,0,0,1,203,194.18Z" style="fill:#fff;opacity:0.5"></path><circle cx="205.02" cy="188.02" r="10.13" transform="translate(-25.08 344.36) rotate(-76.72)" style="fill:none;stroke:#6F87F6;stroke-miterlimit:10;stroke-width:3px"></circle><rect x="214" y="187" width="168" height="2" style="fill:#6F87F6"></rect><path d="M206,179h-2V167a1,1,0,0,1,.29-.71l61.17-61a1,1,0,0,1,.71-.29H322v2H266.58L206,167.41Z" style="fill:#6F87F6"></path><path d="M351,280H276a1,1,0,0,1-.71-.29l-71-71A1,1,0,0,1,204,208V198h2v9.59L276.41,278H351Z" style="fill:#6F87F6"></path><path d="M301,216H260.83a1,1,0,0,1-.7-.29l-27-26.83,1.41-1.42L261.25,214H301Z" style="fill:#6F87F6"></path><path d="M273.21,188.79l-1.42-1.41,26.91-27.09a1.05,1.05,0,0,1,.71-.29H340v2H299.83Z" style="fill:#6F87F6"></path><path d="M426,138H267.23a1,1,0,0,1-.71-.3l-15.94-16.1,1.42-1.41L267.65,136H426Z" style="fill:#6F87F6"></path><path d="M284.37,106.71,283,105.29l26-26a1,1,0,0,1,.71-.29H393v2H310.08Z" style="fill:#6F87F6"></path><path d="M300.63,329l-40.34-40.33A1,1,0,0,1,260,288V264h2v23.59l40,40Z" style="fill:#6F87F6"></path><path d="M291.54,279.39,290.12,278l26.52-26.69a1.05,1.05,0,0,1,.71-.29H418v2H317.77Z" style="fill:#6F87F6"></path><path d="M385,308H340.17a1,1,0,0,1-.71-.29l-28.17-28.17,1.42-1.41L340.58,306H385Z" style="fill:#6F87F6"></path><circle cx="393" cy="80" r="4.58" style="fill:#6F87F6"></circle><path d="M331,116.58A10.58,10.58,0,1,1,341.58,106,10.58,10.58,0,0,1,331,116.58Zm0-19.16a8.58,8.58,0,1,0,8.58,8.58A8.59,8.59,0,0,0,331,97.42Z" style="fill:#6F87F6"></path><circle cx="331" cy="106" r="4.58" style="fill:#6F87F6"></circle><path d="M430.58,137.17a4.58,4.58,0,1,1-4.58-4.59A4.58,4.58,0,0,1,430.58,137.17Z" style="fill:#6F87F6"></path><circle cx="340" cy="161" r="4.58" style="fill:#6F87F6"></circle><path d="M391,198.58A10.58,10.58,0,1,1,401.58,188,10.58,10.58,0,0,1,391,198.58Zm0-19.16a8.58,8.58,0,1,0,8.58,8.58A8.59,8.59,0,0,0,391,179.42Z" style="fill:#6F87F6"></path><circle cx="391" cy="188" r="4.58" style="fill:#6F87F6"></circle><circle cx="301" cy="215" r="4.58" style="fill:#6F87F6"></circle><circle cx="418" cy="252" r="4.58" style="fill:#6F87F6"></circle><path d="M360,289.42a10.59,10.59,0,1,1,10.58-10.59A10.59,10.59,0,0,1,360,289.42Zm0-19.17a8.59,8.59,0,1,0,8.58,8.58A8.59,8.59,0,0,0,360,270.25Z" style="fill:#6F87F6"></path><path d="M364.58,278.83a4.58,4.58,0,1,1-4.58-4.58A4.59,4.59,0,0,1,364.58,278.83Z" style="fill:#6F87F6"></path><circle cx="385" cy="307" r="4.58" style="fill:#6F87F6"></circle><path d="M305.92,328.33a4.59,4.59,0,1,1-4.59-4.58A4.6,4.6,0,0,1,305.92,328.33Z" style="fill:#6F87F6"></path><rect x="403.56" y="67.75" width="19.72" height="25.75" rx="1.51" style="fill:#6F87F6"></rect><rect x="403.56" y="67.75" width="19.72" height="25.75" rx="1.51" style="fill:#fff;opacity:0.6000000000000001;isolation:isolate"></rect><rect x="406.5" y="71.41" width="13.83" height="1.39" style="fill:#6F87F6"></rect><rect x="406.5" y="73.84" width="13.83" height="1.39" style="fill:#6F87F6"></rect><rect x="406.5" y="76.28" width="13.83" height="1.39" style="fill:#6F87F6"></rect><rect x="406.5" y="78.71" width="13.83" height="1.39" style="fill:#6F87F6"></rect><rect x="406.5" y="81.15" width="13.83" height="1.39" style="fill:#6F87F6"></rect><rect x="406.5" y="83.59" width="13.83" height="1.39" style="fill:#6F87F6"></rect><rect x="406.5" y="86.02" width="13.83" height="1.39" style="fill:#6F87F6"></rect><rect x="406.5" y="88.46" width="8.96" height="1.39" style="fill:#6F87F6"></rect><rect x="310.64" y="204.29" width="19.72" height="25.75" rx="1.51" style="fill:#6F87F6"></rect><rect x="310.64" y="204.29" width="19.72" height="25.75" rx="1.51" style="fill:#fff;opacity:0.6000000000000001;isolation:isolate"></rect><rect x="313.58" y="207.94" width="13.83" height="1.39" style="fill:#6F87F6"></rect><rect x="313.58" y="210.38" width="13.83" height="1.39" style="fill:#6F87F6"></rect><rect x="313.58" y="212.81" width="13.83" height="1.39" style="fill:#6F87F6"></rect><rect x="313.58" y="215.25" width="13.83" height="1.39" style="fill:#6F87F6"></rect><rect x="313.58" y="217.68" width="13.83" height="1.39" style="fill:#6F87F6"></rect><rect x="313.58" y="220.12" width="13.83" height="1.39" style="fill:#6F87F6"></rect><rect x="313.58" y="222.56" width="13.83" height="1.39" style="fill:#6F87F6"></rect><rect x="313.58" y="224.99" width="8.96" height="1.39" style="fill:#6F87F6"></rect><rect x="426" y="232" width="19.72" height="25.75" rx="1.51" style="fill:#6F87F6"></rect><rect x="426" y="232" width="19.72" height="25.75" rx="1.51" style="fill:#fff;opacity:0.6000000000000001;isolation:isolate"></rect><rect x="428.94" y="235.66" width="13.83" height="1.39" style="fill:#6F87F6"></rect><rect x="428.94" y="238.09" width="13.83" height="1.39" style="fill:#6F87F6"></rect><rect x="428.94" y="240.53" width="13.83" height="1.39" style="fill:#6F87F6"></rect><rect x="428.94" y="242.97" width="13.83" height="1.39" style="fill:#6F87F6"></rect><rect x="428.94" y="245.4" width="13.83" height="1.39" style="fill:#6F87F6"></rect><rect x="428.94" y="247.84" width="13.83" height="1.39" style="fill:#6F87F6"></rect><rect x="428.94" y="250.27" width="13.83" height="1.39" style="fill:#6F87F6"></rect><rect x="428.94" y="252.71" width="8.96" height="1.39" style="fill:#6F87F6"></rect><rect x="433.82" y="117.12" width="19.72" height="25.75" rx="1.51" style="fill:#6F87F6"></rect><rect x="433.82" y="117.12" width="19.72" height="25.75" rx="1.51" style="fill:#fff;opacity:0.6000000000000001;isolation:isolate"></rect><rect x="436.76" y="120.78" width="13.83" height="1.39" style="fill:#6F87F6"></rect><rect x="436.76" y="123.21" width="13.83" height="1.39" style="fill:#6F87F6"></rect><rect x="436.76" y="125.65" width="13.83" height="1.39" style="fill:#6F87F6"></rect><rect x="436.76" y="128.09" width="13.83" height="1.39" style="fill:#6F87F6"></rect><rect x="436.76" y="130.52" width="13.83" height="1.39" style="fill:#6F87F6"></rect><rect x="436.76" y="132.96" width="13.83" height="1.39" style="fill:#6F87F6"></rect><rect x="436.76" y="135.39" width="13.83" height="1.39" style="fill:#6F87F6"></rect><rect x="436.76" y="137.83" width="8.96" height="1.39" style="fill:#6F87F6"></rect><rect x="311.01" y="323.21" width="19.72" height="25.75" rx="1.51" style="fill:#6F87F6"></rect><rect x="311.01" y="323.21" width="19.72" height="25.75" rx="1.51" style="fill:#fff;opacity:0.6000000000000001;isolation:isolate"></rect><rect x="313.95" y="326.87" width="13.83" height="1.39" style="fill:#6F87F6"></rect><rect x="313.95" y="329.3" width="13.83" height="1.39" style="fill:#6F87F6"></rect><rect x="313.95" y="331.74" width="13.83" height="1.39" style="fill:#6F87F6"></rect><rect x="313.95" y="334.17" width="13.83" height="1.39" style="fill:#6F87F6"></rect><rect x="313.95" y="336.61" width="13.83" height="1.39" style="fill:#6F87F6"></rect><rect x="313.95" y="339.05" width="13.83" height="1.39" style="fill:#6F87F6"></rect><rect x="313.95" y="341.48" width="13.83" height="1.39" style="fill:#6F87F6"></rect><rect x="313.95" y="343.92" width="8.96" height="1.39" style="fill:#6F87F6"></rect><rect x="405.94" y="164.45" width="46" height="46" rx="1.54" style="fill:#6F87F6"></rect><circle cx="428.94" cy="187.45" r="15.5" style="fill:#fff;opacity:0.5"></circle><path d="M428.94,187.45h15.5A15.48,15.48,0,1,1,436.69,174Z" style="fill:#fff;opacity:0.7000000000000001"></path><circle cx="428.94" cy="187.45" r="12" style="fill:#6F87F6"></circle><circle cx="428.94" cy="187.45" r="12" style="fill:#fff;opacity:0.30000000000000004"></circle><text transform="translate(423.71 189.79)" style="font-size:5.888110160827637px;fill:#fff;font-family:Bebas;letter-spacing:0.021975562228919342em">8<tspan x="3.24" y="0" style="letter-spacing:0.00008292664992045034em">0%</tspan></text><rect x="373.85" y="261.5" width="35" height="35" rx="1.17" style="fill:#6F87F6"></rect><rect x="398" y="290.63" width="4.5" height="2.29" style="fill:#fff;opacity:0.5"></rect><rect x="398" y="267.78" width="4.5" height="2.29" style="fill:#fff"></rect><rect x="398" y="271.59" width="4.5" height="2.29" style="fill:#fff"></rect><rect x="398" y="275.4" width="4.5" height="2.29" style="fill:#fff;opacity:0.75"></rect><rect x="398" y="279.2" width="4.5" height="2.29" style="fill:#fff;opacity:0.5"></rect><rect x="398" y="283.01" width="4.5" height="2.29" style="fill:#fff;opacity:0.5"></rect><rect x="398" y="286.82" width="4.5" height="2.29" style="fill:#fff;opacity:0.5"></rect><rect x="391.88" y="290.63" width="4.5" height="2.29" style="fill:#fff;opacity:0.5"></rect><rect x="391.88" y="279.2" width="4.5" height="2.29" style="fill:#fff"></rect><rect x="391.88" y="283.01" width="4.5" height="2.29" style="fill:#fff;opacity:0.75"></rect><rect x="391.88" y="286.82" width="4.5" height="2.29" style="fill:#fff;opacity:0.5"></rect><rect x="385.75" y="290.63" width="4.5" height="2.29" style="fill:#fff;opacity:0.5"></rect><rect x="385.75" y="275.4" width="4.5" height="2.29" style="fill:#fff"></rect><rect x="385.75" y="279.2" width="4.5" height="2.29" style="fill:#fff;opacity:0.75"></rect><rect x="385.75" y="283.01" width="4.5" height="2.29" style="fill:#fff;opacity:0.5"></rect><rect x="385.75" y="286.82" width="4.5" height="2.29" style="fill:#fff;opacity:0.5"></rect><rect x="379.63" y="290.63" width="4.5" height="2.29" style="fill:#fff;opacity:0.5"></rect><rect x="379.63" y="283.01" width="4.5" height="2.29" style="fill:#fff"></rect><rect x="379.63" y="286.82" width="4.5" height="2.29" style="fill:#fff;opacity:0.75"></rect><rect x="347.08" y="93.08" width="35" height="35" rx="1.17" style="fill:#6F87F6"></rect><path d="M367.11,106.78v-2.19l-1.13-.1a5.66,5.66,0,0,0-.84-2l.72-.88L364.32,100l-.88.73a5.73,5.73,0,0,0-2-.84l-.11-1.13h-2.19l-.1,1.13a5.78,5.78,0,0,0-2,.84l-.87-.73-1.55,1.55.72.88a6,6,0,0,0-.84,2l-1.12.1v2.19l1.12.11a6.13,6.13,0,0,0,.84,2l-.72.88,1.55,1.55.87-.73a5.78,5.78,0,0,0,2,.84l.1,1.13h2.19l.11-1.13a5.73,5.73,0,0,0,2-.84l.88.73,1.54-1.55-.72-.88a5.73,5.73,0,0,0,.84-2Zm-6.89,1.87a3,3,0,1,1,3-3A3,3,0,0,1,360.22,108.65Z" style="fill:#fff;opacity:0.9"></path><path d="M376,113v-1.72l-.88-.08a4.66,4.66,0,0,0-.66-1.59l.57-.68-1.21-1.22-.69.57a4.61,4.61,0,0,0-1.58-.66l-.09-.88h-1.71l-.09.88a4.61,4.61,0,0,0-1.58.66l-.69-.57-1.21,1.22.57.68a4.47,4.47,0,0,0-.66,1.59l-.89.08V113l.89.08a4.42,4.42,0,0,0,.66,1.58l-.57.69,1.21,1.21.69-.56a4.59,4.59,0,0,0,1.58.65l.09.89h1.71l.09-.89a4.59,4.59,0,0,0,1.58-.65l.69.56,1.21-1.21-.57-.69a4.61,4.61,0,0,0,.66-1.58Zm-5.4,1.46a2.33,2.33,0,1,1,2.33-2.32A2.32,2.32,0,0,1,370.58,114.43Z" style="fill:#fff;opacity:0.6000000000000001"></path><path d="M367.11,117.84V116.4l-.74-.07a3.89,3.89,0,0,0-.56-1.34l.48-.57-1-1-.58.48a3.59,3.59,0,0,0-1.33-.56l-.07-.74h-1.44l-.07.74a3.73,3.73,0,0,0-1.33.56l-.57-.48-1,1,.47.57a3.87,3.87,0,0,0-.55,1.34l-.74.07v1.44l.74.07a3.9,3.9,0,0,0,.55,1.33l-.47.57,1,1,.57-.47a3.9,3.9,0,0,0,1.33.55l.07.74h1.44l.07-.74a3.74,3.74,0,0,0,1.33-.55l.58.47,1-1-.48-.57a3.92,3.92,0,0,0,.56-1.33Zm-4.54,1.23a1.95,1.95,0,1,1,1.95-1.95A2,2,0,0,1,362.57,119.07Z" style="fill:#fff;opacity:0.4"></path><rect x="347.94" y="150.75" width="30.75" height="20" style="fill:#6F87F6"></rect><rect x="347.94" y="150.75" width="30.75" height="20" style="fill:#fff;opacity:0.6000000000000001;isolation:isolate"></rect><rect x="349.06" y="154.5" width="28.5" height="15.25" style="fill:#6F87F6"></rect><rect x="351.38" y="156.78" width="21.08" height="0.66" style="fill:#fff"></rect><rect x="351.38" y="158.79" width="10.12" height="0.66" style="fill:#fff"></rect><rect x="351.38" y="160.8" width="12.74" height="0.66" style="fill:#fff"></rect><rect x="351.38" y="162.81" width="4.49" height="0.66" style="fill:#fff"></rect><rect x="351.38" y="164.82" width="2.91" height="0.66" style="fill:#fff"></rect><rect x="396.94" y="303.25" width="30.75" height="20" style="fill:#6F87F6"></rect><rect x="396.94" y="303.25" width="30.75" height="20" style="fill:#fff;opacity:0.6000000000000001;isolation:isolate"></rect><rect x="398.06" y="307" width="28.5" height="15.25" style="fill:#6F87F6"></rect><rect x="400.38" y="309.28" width="21.08" height="0.66" style="fill:#fff"></rect><rect x="400.38" y="311.29" width="10.12" height="0.66" style="fill:#fff"></rect><rect x="400.38" y="313.3" width="12.74" height="0.66" style="fill:#fff"></rect><rect x="400.38" y="315.31" width="4.49" height="0.66" style="fill:#fff"></rect><rect x="400.38" y="317.32" width="2.91" height="0.66" style="fill:#fff"></rect><g style="opacity:0.4"><rect x="212" y="187" width="170" height="2" style="fill:#fff"></rect><path d="M206,179h-2V167a1,1,0,0,1,.29-.71l61.17-61a1,1,0,0,1,.71-.29H322v2H266.58L206,167.41Z" style="fill:#fff"></path><path d="M351,280H276a1,1,0,0,1-.71-.29l-71-71A1,1,0,0,1,204,208V198h2v9.59L276.41,278H351Z" style="fill:#fff"></path><path d="M301,216H260.83a1,1,0,0,1-.7-.29l-27-26.83,1.41-1.42L261.25,214H301Z" style="fill:#fff"></path><path d="M273.21,188.79l-1.42-1.41,26.91-27.09a1.05,1.05,0,0,1,.71-.29H340v2H299.83Z" style="fill:#fff"></path><path d="M426,138H267.23a1,1,0,0,1-.71-.3l-15.94-16.1,1.42-1.41L267.65,136H426Z" style="fill:#fff"></path><path d="M284.37,106.71,283,105.29l26-26a1,1,0,0,1,.71-.29H393v2H310.08Z" style="fill:#fff"></path><path d="M300.63,329l-40.34-40.33A1,1,0,0,1,260,288V264h2v23.59l40,40Z" style="fill:#fff"></path><path d="M291.54,279.39,290.12,278l26.52-26.69a1.05,1.05,0,0,1,.71-.29H418v2H317.77Z" style="fill:#fff"></path><path d="M385,308H340.17a1,1,0,0,1-.71-.29l-28.17-28.17,1.42-1.41L340.58,306H385Z" style="fill:#fff"></path><circle cx="393" cy="80" r="4.58" style="fill:#fff"></circle><path d="M331,116.58A10.58,10.58,0,1,1,341.58,106,10.58,10.58,0,0,1,331,116.58Zm0-19.16a8.58,8.58,0,1,0,8.58,8.58A8.59,8.59,0,0,0,331,97.42Z" style="fill:#fff"></path><path d="M430.58,137.17a4.58,4.58,0,1,1-4.58-4.59A4.58,4.58,0,0,1,430.58,137.17Z" style="fill:#fff"></path><circle cx="340" cy="161" r="4.58" style="fill:#fff"></circle><path d="M391,198.58A10.58,10.58,0,1,1,401.58,188,10.58,10.58,0,0,1,391,198.58Zm0-19.16a8.58,8.58,0,1,0,8.58,8.58A8.59,8.59,0,0,0,391,179.42Z" style="fill:#fff"></path><circle cx="301" cy="215" r="4.58" style="fill:#fff"></circle><circle cx="418" cy="252" r="4.58" style="fill:#fff"></circle><path d="M360,289.42a10.59,10.59,0,1,1,10.58-10.59A10.59,10.59,0,0,1,360,289.42Zm0-19.17a8.59,8.59,0,1,0,8.58,8.58A8.59,8.59,0,0,0,360,270.25Z" style="fill:#fff"></path><circle cx="385" cy="307" r="4.58" style="fill:#fff"></circle><path d="M305.92,328.33a4.59,4.59,0,1,1-4.59-4.58A4.6,4.6,0,0,1,305.92,328.33Z" style="fill:#fff"></path><path d="M205,199.65A11.63,11.63,0,1,1,216.65,188,11.63,11.63,0,0,1,205,199.65Zm0-20.26a8.63,8.63,0,1,0,8.63,8.63A8.64,8.64,0,0,0,205,179.39Z" style="fill:#fff"></path></g></g></svg>