<svg width="281" height="281" viewBox="0 0 281 281" fill="none" xmlns="http://www.w3.org/2000/svg">
<path d="M23 124.64C22.0858 124.642 21.1916 124.373 20.4305 123.866C19.6695 123.36 19.0758 122.639 18.7246 121.795C18.3733 120.951 18.2804 120.022 18.4576 119.125C18.6347 118.228 19.0739 117.404 19.7196 116.757C20.3654 116.11 21.1885 115.669 22.085 115.49C22.9815 115.31 23.9109 115.401 24.7557 115.751C25.6005 116.1 26.3226 116.692 26.8307 117.452C27.3388 118.212 27.61 119.106 27.61 120.02C27.61 121.244 27.1246 122.417 26.2604 123.283C25.3961 124.149 24.2236 124.637 23 124.64Z" fill="#6F87F6"/>
<path d="M25.11 145H25C20.6642 144.937 16.4203 143.741 12.69 141.53L15.2 137.11C18.1676 138.875 21.5477 139.826 25 139.87L25.11 145ZM37.41 141.3L34.89 137C37.8655 135.263 40.3341 132.778 42.05 129.79L46.38 132.28C44.2292 136.019 41.1365 139.128 37.41 141.3V141.3ZM3.7 132.3C1.53373 128.563 0.391966 124.32 0.389999 120H5.39C5.38669 123.443 6.29774 126.825 8.03 129.8L3.7 132.3ZM44.7 119.91C44.6902 116.469 43.7727 113.092 42.04 110.12L46.36 107.6C48.5324 111.336 49.6842 115.578 49.7 119.9L44.7 119.91ZM8 110.24L3.67999 107.74C5.84449 104.007 8.947 100.905 12.68 98.74L15.19 103.06C12.2124 104.791 9.73496 107.265 8 110.24V110.24ZM34.78 103C31.825 101.235 28.4613 100.27 25.02 100.2L25 95C29.319 95.0701 33.5449 96.2662 37.26 98.47L34.78 103Z" fill="#6F87F6"/>
<g opacity="0.6">
<path opacity="0.6" d="M25.11 145H25C20.6642 144.937 16.4203 143.741 12.69 141.53L15.2 137.11C18.1676 138.875 21.5477 139.826 25 139.87L25.11 145ZM37.41 141.3L34.89 137C37.8655 135.263 40.3341 132.778 42.05 129.79L46.38 132.28C44.2292 136.019 41.1365 139.128 37.41 141.3V141.3ZM3.7 132.3C1.53373 128.563 0.391966 124.32 0.389999 120H5.39C5.38669 123.443 6.29774 126.825 8.03 129.8L3.7 132.3ZM44.7 119.91C44.6902 116.469 43.7727 113.092 42.04 110.12L46.36 107.6C48.5324 111.336 49.6842 115.578 49.7 119.9L44.7 119.91ZM8 110.24L3.67999 107.74C5.84449 104.007 8.947 100.905 12.68 98.74L15.19 103.06C12.2124 104.791 9.73496 107.265 8 110.24V110.24ZM34.78 103C31.825 101.235 28.4613 100.27 25.02 100.2L25 95C29.319 95.0701 33.5449 96.2662 37.26 98.47L34.78 103Z" fill="white"/>
</g>
<path d="M30 126.18C28.7813 126.182 27.5893 125.822 26.575 125.147C25.5607 124.471 24.7696 123.51 24.3018 122.384C23.834 121.259 23.7106 120.02 23.9472 118.824C24.1837 117.629 24.7696 116.53 25.6307 115.668C26.4918 114.805 27.5894 114.218 28.7846 113.979C29.9798 113.741 31.2188 113.862 32.345 114.328C33.4712 114.794 34.4339 115.583 35.1112 116.597C35.7885 117.61 36.15 118.801 36.15 120.02C36.15 121.652 35.5024 123.217 34.3493 124.372C33.1963 125.527 31.632 126.177 30 126.18Z" fill="#6F87F6"/>
<path opacity="0.5" d="M30 126.18C28.7813 126.182 27.5893 125.822 26.575 125.147C25.5607 124.471 24.7696 123.51 24.3018 122.384C23.834 121.259 23.7106 120.02 23.9472 118.824C24.1837 117.629 24.7696 116.53 25.6307 115.668C26.4918 114.805 27.5894 114.218 28.7846 113.979C29.9798 113.741 31.2188 113.862 32.345 114.328C33.4712 114.794 34.4339 115.583 35.1112 116.597C35.7885 117.61 36.15 118.801 36.15 120.02C36.15 121.652 35.5024 123.217 34.3493 124.372C33.1963 125.527 31.632 126.177 30 126.18Z" fill="white"/>
<path d="M41.8664 122.339C43.1516 116.894 39.7793 111.439 34.3343 110.153C28.8892 108.868 23.4334 112.24 22.1482 117.686C20.8631 123.131 24.2353 128.586 29.6804 129.872C35.1254 131.157 40.5813 127.784 41.8664 122.339Z" stroke="#6F87F6" stroke-width="3" stroke-miterlimit="10"/>
<path d="M209 119H41V121H209V119Z" fill="#6F87F6"/>
<path d="M33 111H31V99C30.9992 98.8684 31.0245 98.7379 31.0742 98.6161C31.124 98.4943 31.1973 98.3834 31.29 98.29L92.46 37.29C92.5534 37.1973 92.6643 37.124 92.7861 37.0742C92.9079 37.0245 93.0384 36.9992 93.17 37H149V39H93.58L33 99.41V111Z" fill="#6F87F6"/>
<path d="M178 212H103C102.868 212.001 102.738 211.976 102.616 211.926C102.494 211.876 102.383 211.803 102.29 211.71L31.29 140.71C31.1973 140.617 31.124 140.506 31.0742 140.384C31.0245 140.262 30.9992 140.132 31 140V130H33V139.59L103.41 210H178V212Z" fill="#6F87F6"/>
<path d="M128 148H87.83C87.5676 147.999 87.3163 147.895 87.13 147.71L60.13 120.88L61.54 119.46L88.25 146H128V148Z" fill="#6F87F6"/>
<path d="M100.21 120.79L98.79 119.38L125.7 92.29C125.892 92.1073 126.145 92.0037 126.41 92H167V94H126.83L100.21 120.79Z" fill="#6F87F6"/>
<path d="M253 70H94.23C94.0977 69.9995 93.9668 69.9727 93.8449 69.9212C93.7231 69.8697 93.6126 69.7945 93.52 69.7L77.58 53.6L79 52.19L94.65 68H253V70Z" fill="#6F87F6"/>
<path d="M111.37 38.71L110 37.29L136 11.29C136.093 11.1973 136.204 11.124 136.326 11.0742C136.448 11.0245 136.578 10.9993 136.71 11H220V13H137.08L111.37 38.71Z" fill="#6F87F6"/>
<path d="M127.63 261L87.29 220.67C87.1124 220.491 87.0088 220.252 87 220V196H89V219.59L129 259.59L127.63 261Z" fill="#6F87F6"/>
<path d="M118.54 211.39L117.12 210L143.64 183.31C143.832 183.127 144.085 183.024 144.35 183.02H245V185.02H144.77L118.54 211.39Z" fill="#6F87F6"/>
<path d="M212 240H167.17C167.038 240.001 166.908 239.976 166.786 239.926C166.664 239.876 166.553 239.803 166.46 239.71L138.29 211.54L139.71 210.13L167.58 238H212V240Z" fill="#6F87F6"/>
<path d="M220 16.58C222.529 16.58 224.58 14.5294 224.58 12C224.58 9.47052 222.529 7.41998 220 7.41998C217.471 7.41998 215.42 9.47052 215.42 12C215.42 14.5294 217.471 16.58 220 16.58Z" fill="#6F87F6"/>
<path d="M158 48.58C155.907 48.58 153.862 47.9595 152.122 46.797C150.382 45.6344 149.026 43.982 148.225 42.0488C147.425 40.1156 147.215 37.9883 147.623 35.9359C148.032 33.8836 149.039 31.9984 150.519 30.5188C151.998 29.0392 153.884 28.0315 155.936 27.6233C157.988 27.2151 160.116 27.4246 162.049 28.2254C163.982 29.0261 165.634 30.3822 166.797 32.1221C167.959 33.8619 168.58 35.9075 168.58 38C168.58 40.806 167.465 43.4971 165.481 45.4812C163.497 47.4653 160.806 48.58 158 48.58V48.58ZM158 29.42C156.303 29.42 154.644 29.9232 153.233 30.866C151.822 31.8088 150.723 33.1488 150.073 34.7166C149.424 36.2844 149.254 38.0095 149.585 39.6739C149.916 41.3382 150.733 42.867 151.933 44.067C153.133 45.2669 154.662 46.0841 156.326 46.4151C157.99 46.7462 159.716 46.5763 161.283 45.9269C162.851 45.2775 164.191 44.1778 165.134 42.7668C166.077 41.3558 166.58 39.697 166.58 38C166.577 35.7253 165.673 33.5444 164.064 31.9359C162.456 30.3275 160.275 29.4226 158 29.42V29.42Z" fill="#6F87F6"/>
<path d="M158 42.58C160.529 42.58 162.58 40.5295 162.58 38C162.58 35.4705 160.529 33.42 158 33.42C155.471 33.42 153.42 35.4705 153.42 38C153.42 40.5295 155.471 42.58 158 42.58Z" fill="#6F87F6"/>
<path d="M257.58 69.17C257.578 70.0754 257.308 70.9599 256.803 71.7118C256.299 72.4636 255.583 73.0491 254.746 73.3942C253.909 73.7393 252.988 73.8286 252.1 73.6508C251.213 73.4729 250.397 73.0359 249.758 72.395C249.118 71.7541 248.683 70.938 248.507 70.0498C248.331 69.1617 248.423 68.2413 248.77 67.405C249.117 66.5687 249.704 65.854 250.457 65.3512C251.21 64.8484 252.095 64.58 253 64.58C253.602 64.58 254.199 64.6988 254.755 64.9296C255.311 65.1604 255.817 65.4986 256.242 65.925C256.668 66.3513 257.005 66.8574 257.234 67.4142C257.464 67.9711 257.581 68.5677 257.58 69.17V69.17Z" fill="#6F87F6"/>
<path d="M167 97.58C169.529 97.58 171.58 95.5295 171.58 93C171.58 90.4705 169.529 88.42 167 88.42C164.471 88.42 162.42 90.4705 162.42 93C162.42 95.5295 164.471 97.58 167 97.58Z" fill="#6F87F6"/>
<path d="M218 130.58C215.907 130.58 213.862 129.959 212.122 128.797C210.382 127.634 209.026 125.982 208.225 124.049C207.425 122.116 207.215 119.988 207.623 117.936C208.032 115.884 209.039 113.998 210.519 112.519C211.998 111.039 213.884 110.032 215.936 109.623C217.988 109.215 220.116 109.425 222.049 110.225C223.982 111.026 225.634 112.382 226.797 114.122C227.959 115.862 228.58 117.907 228.58 120C228.58 122.806 227.465 125.497 225.481 127.481C223.497 129.465 220.806 130.58 218 130.58V130.58ZM218 111.42C216.303 111.42 214.644 111.923 213.233 112.866C211.822 113.809 210.723 115.149 210.073 116.717C209.424 118.284 209.254 120.01 209.585 121.674C209.916 123.338 210.733 124.867 211.933 126.067C213.133 127.267 214.662 128.084 216.326 128.415C217.99 128.746 219.716 128.576 221.283 127.927C222.851 127.277 224.191 126.178 225.134 124.767C226.077 123.356 226.58 121.697 226.58 120C226.577 117.725 225.673 115.544 224.064 113.936C222.456 112.327 220.275 111.423 218 111.42Z" fill="#6F87F6"/>
<path d="M218 124.58C220.529 124.58 222.58 122.529 222.58 120C222.58 117.471 220.529 115.42 218 115.42C215.471 115.42 213.42 117.471 213.42 120C213.42 122.529 215.471 124.58 218 124.58Z" fill="#6F87F6"/>
<path d="M128 151.58C130.529 151.58 132.58 149.529 132.58 147C132.58 144.471 130.529 142.42 128 142.42C125.471 142.42 123.42 144.471 123.42 147C123.42 149.529 125.471 151.58 128 151.58Z" fill="#6F87F6"/>
<path d="M245 188.58C247.529 188.58 249.58 186.529 249.58 184C249.58 181.471 247.529 179.42 245 179.42C242.471 179.42 240.42 181.471 240.42 184C240.42 186.529 242.471 188.58 245 188.58Z" fill="#6F87F6"/>
<path d="M187 221.42C184.905 221.422 182.857 220.803 181.114 219.64C179.371 218.478 178.012 216.824 177.209 214.89C176.406 212.955 176.195 210.825 176.602 208.77C177.01 206.715 178.018 204.827 179.498 203.345C180.979 201.863 182.866 200.854 184.92 200.444C186.975 200.035 189.105 200.244 191.04 201.045C192.976 201.846 194.63 203.204 195.795 204.945C196.959 206.687 197.58 208.735 197.58 210.83C197.58 213.637 196.466 216.329 194.482 218.315C192.498 220.3 189.807 221.417 187 221.42V221.42ZM187 202.25C185.3 202.248 183.638 202.75 182.224 203.694C180.81 204.637 179.707 205.978 179.056 207.548C178.404 209.118 178.233 210.846 178.565 212.513C178.896 214.181 179.714 215.712 180.916 216.914C182.118 218.116 183.649 218.934 185.317 219.265C186.984 219.597 188.712 219.426 190.282 218.774C191.852 218.123 193.193 217.02 194.137 215.606C195.08 214.192 195.582 212.53 195.58 210.83C195.577 208.555 194.673 206.374 193.064 204.766C191.456 203.157 189.275 202.253 187 202.25V202.25Z" fill="#6F87F6"/>
<path d="M191.58 210.83C191.58 211.736 191.311 212.621 190.808 213.375C190.305 214.128 189.59 214.715 188.753 215.061C187.916 215.408 186.995 215.499 186.106 215.322C185.218 215.145 184.402 214.709 183.761 214.069C183.121 213.428 182.685 212.612 182.508 211.724C182.331 210.835 182.422 209.914 182.769 209.077C183.115 208.24 183.702 207.525 184.455 207.022C185.209 206.519 186.094 206.25 187 206.25C188.214 206.253 189.377 206.736 190.236 207.594C191.094 208.453 191.577 209.616 191.58 210.83V210.83Z" fill="#6F87F6"/>
<path d="M212 243.58C214.529 243.58 216.58 241.529 216.58 239C216.58 236.471 214.529 234.42 212 234.42C209.471 234.42 207.42 236.471 207.42 239C207.42 241.529 209.471 243.58 212 243.58Z" fill="#6F87F6"/>
<path d="M132.92 260.33C132.922 261.238 132.654 262.127 132.151 262.883C131.648 263.639 130.932 264.229 130.093 264.578C129.255 264.927 128.332 265.019 127.441 264.843C126.55 264.667 125.731 264.231 125.088 263.589C124.445 262.948 124.007 262.13 123.829 261.239C123.651 260.348 123.741 259.425 124.088 258.586C124.436 257.747 125.024 257.029 125.779 256.524C126.534 256.019 127.422 255.75 128.33 255.75C129.545 255.753 130.709 256.236 131.569 257.094C132.429 257.952 132.915 259.115 132.92 260.33V260.33Z" fill="#6F87F6"/>
<path d="M248.77 -0.25H232.07C231.236 -0.25 230.56 0.426052 230.56 1.26V23.99C230.56 24.8239 231.236 25.5 232.07 25.5H248.77C249.604 25.5 250.28 24.8239 250.28 23.99V1.26C250.28 0.426052 249.604 -0.25 248.77 -0.25Z" fill="#6F87F6"/>
<path opacity="0.6" d="M248.77 -0.25H232.07C231.236 -0.25 230.56 0.426052 230.56 1.26V23.99C230.56 24.8239 231.236 25.5 232.07 25.5H248.77C249.604 25.5 250.28 24.8239 250.28 23.99V1.26C250.28 0.426052 249.604 -0.25 248.77 -0.25Z" fill="white"/>
<path d="M247.33 3.41H233.5V4.8H247.33V3.41Z" fill="#6F87F6"/>
<path d="M247.33 5.84H233.5V7.23H247.33V5.84Z" fill="#6F87F6"/>
<path d="M247.33 8.28H233.5V9.67H247.33V8.28Z" fill="#6F87F6"/>
<path d="M247.33 10.71H233.5V12.1H247.33V10.71Z" fill="#6F87F6"/>
<path d="M247.33 13.15H233.5V14.54H247.33V13.15Z" fill="#6F87F6"/>
<path d="M247.33 15.59H233.5V16.98H247.33V15.59Z" fill="#6F87F6"/>
<path d="M247.33 18.02H233.5V19.41H247.33V18.02Z" fill="#6F87F6"/>
<path d="M242.46 20.46H233.5V21.85H242.46V20.46Z" fill="#6F87F6"/>
<path d="M155.85 136.29H139.15C138.316 136.29 137.64 136.966 137.64 137.8V160.53C137.64 161.364 138.316 162.04 139.15 162.04H155.85C156.684 162.04 157.36 161.364 157.36 160.53V137.8C157.36 136.966 156.684 136.29 155.85 136.29Z" fill="#6F87F6"/>
<path opacity="0.6" d="M155.85 136.29H139.15C138.316 136.29 137.64 136.966 137.64 137.8V160.53C137.64 161.364 138.316 162.04 139.15 162.04H155.85C156.684 162.04 157.36 161.364 157.36 160.53V137.8C157.36 136.966 156.684 136.29 155.85 136.29Z" fill="white"/>
<path d="M154.41 139.94H140.58V141.33H154.41V139.94Z" fill="#6F87F6"/>
<path d="M154.41 142.38H140.58V143.77H154.41V142.38Z" fill="#6F87F6"/>
<path d="M154.41 144.81H140.58V146.2H154.41V144.81Z" fill="#6F87F6"/>
<path d="M154.41 147.25H140.58V148.64H154.41V147.25Z" fill="#6F87F6"/>
<path d="M154.41 149.68H140.58V151.07H154.41V149.68Z" fill="#6F87F6"/>
<path d="M154.41 152.12H140.58V153.51H154.41V152.12Z" fill="#6F87F6"/>
<path d="M154.41 154.56H140.58V155.95H154.41V154.56Z" fill="#6F87F6"/>
<path d="M149.54 156.99H140.58V158.38H149.54V156.99Z" fill="#6F87F6"/>
<path d="M271.21 164H254.51C253.676 164 253 164.676 253 165.51V188.24C253 189.074 253.676 189.75 254.51 189.75H271.21C272.044 189.75 272.72 189.074 272.72 188.24V165.51C272.72 164.676 272.044 164 271.21 164Z" fill="#6F87F6"/>
<path opacity="0.6" d="M271.21 164H254.51C253.676 164 253 164.676 253 165.51V188.24C253 189.074 253.676 189.75 254.51 189.75H271.21C272.044 189.75 272.72 189.074 272.72 188.24V165.51C272.72 164.676 272.044 164 271.21 164Z" fill="white"/>
<path d="M269.77 167.66H255.94V169.05H269.77V167.66Z" fill="#6F87F6"/>
<path d="M269.77 170.09H255.94V171.48H269.77V170.09Z" fill="#6F87F6"/>
<path d="M269.77 172.53H255.94V173.92H269.77V172.53Z" fill="#6F87F6"/>
<path d="M269.77 174.97H255.94V176.36H269.77V174.97Z" fill="#6F87F6"/>
<path d="M269.77 177.4H255.94V178.79H269.77V177.4Z" fill="#6F87F6"/>
<path d="M269.77 179.84H255.94V181.23H269.77V179.84Z" fill="#6F87F6"/>
<path d="M269.77 182.27H255.94V183.66H269.77V182.27Z" fill="#6F87F6"/>
<path d="M264.9 184.71H255.94V186.1H264.9V184.71Z" fill="#6F87F6"/>
<path d="M279.03 49.12H262.33C261.496 49.12 260.82 49.796 260.82 50.63V73.36C260.82 74.1939 261.496 74.87 262.33 74.87H279.03C279.864 74.87 280.54 74.1939 280.54 73.36V50.63C280.54 49.796 279.864 49.12 279.03 49.12Z" fill="#6F87F6"/>
<path opacity="0.6" d="M279.03 49.12H262.33C261.496 49.12 260.82 49.796 260.82 50.63V73.36C260.82 74.1939 261.496 74.87 262.33 74.87H279.03C279.864 74.87 280.54 74.1939 280.54 73.36V50.63C280.54 49.796 279.864 49.12 279.03 49.12Z" fill="white"/>
<path d="M277.59 52.78H263.76V54.17H277.59V52.78Z" fill="#6F87F6"/>
<path d="M277.59 55.21H263.76V56.6H277.59V55.21Z" fill="#6F87F6"/>
<path d="M277.59 57.65H263.76V59.04H277.59V57.65Z" fill="#6F87F6"/>
<path d="M277.59 60.09H263.76V61.48H277.59V60.09Z" fill="#6F87F6"/>
<path d="M277.59 62.52H263.76V63.91H277.59V62.52Z" fill="#6F87F6"/>
<path d="M277.59 64.96H263.76V66.35H277.59V64.96Z" fill="#6F87F6"/>
<path d="M277.59 67.39H263.76V68.78H277.59V67.39Z" fill="#6F87F6"/>
<path d="M272.72 69.83H263.76V71.22H272.72V69.83Z" fill="#6F87F6"/>
<path d="M156.22 255.21H139.52C138.686 255.21 138.01 255.886 138.01 256.72V279.45C138.01 280.284 138.686 280.96 139.52 280.96H156.22C157.054 280.96 157.73 280.284 157.73 279.45V256.72C157.73 255.886 157.054 255.21 156.22 255.21Z" fill="#6F87F6"/>
<path opacity="0.6" d="M156.22 255.21H139.52C138.686 255.21 138.01 255.886 138.01 256.72V279.45C138.01 280.284 138.686 280.96 139.52 280.96H156.22C157.054 280.96 157.73 280.284 157.73 279.45V256.72C157.73 255.886 157.054 255.21 156.22 255.21Z" fill="white"/>
<path d="M154.78 258.87H140.95V260.26H154.78V258.87Z" fill="#6F87F6"/>
<path d="M154.78 261.3H140.95V262.69H154.78V261.3Z" fill="#6F87F6"/>
<path d="M154.78 263.74H140.95V265.13H154.78V263.74Z" fill="#6F87F6"/>
<path d="M154.78 266.17H140.95V267.56H154.78V266.17Z" fill="#6F87F6"/>
<path d="M154.78 268.61H140.95V270H154.78V268.61Z" fill="#6F87F6"/>
<path d="M154.78 271.05H140.95V272.44H154.78V271.05Z" fill="#6F87F6"/>
<path d="M154.78 273.48H140.95V274.87H154.78V273.48Z" fill="#6F87F6"/>
<path d="M149.91 275.92H140.95V277.31H149.91V275.92Z" fill="#6F87F6"/>
<path d="M277.4 96.45H234.48C233.629 96.45 232.94 97.1395 232.94 97.99V140.91C232.94 141.761 233.629 142.45 234.48 142.45H277.4C278.251 142.45 278.94 141.761 278.94 140.91V97.99C278.94 97.1395 278.251 96.45 277.4 96.45Z" fill="#6F87F6"/>
<path opacity="0.5" d="M255.94 134.95C264.5 134.95 271.44 128.01 271.44 119.45C271.44 110.89 264.5 103.95 255.94 103.95C247.38 103.95 240.44 110.89 240.44 119.45C240.44 128.01 247.38 134.95 255.94 134.95Z" fill="white"/>
<path opacity="0.7" d="M255.94 119.45H271.44C271.432 122.856 270.3 126.163 268.222 128.861C266.143 131.558 263.233 133.495 259.942 134.371C256.651 135.247 253.163 135.013 250.018 133.706C246.873 132.399 244.248 130.091 242.547 127.14C240.847 124.19 240.167 120.761 240.613 117.384C241.059 114.008 242.606 110.873 245.015 108.465C247.423 106.057 250.558 104.511 253.934 104.065C257.31 103.619 260.739 104.299 263.69 106L255.94 119.45Z" fill="white"/>
<path d="M255.94 131.45C262.567 131.45 267.94 126.077 267.94 119.45C267.94 112.823 262.567 107.45 255.94 107.45C249.313 107.45 243.94 112.823 243.94 119.45C243.94 126.077 249.313 131.45 255.94 131.45Z" fill="#6F87F6"/>
<path opacity="0.3" d="M255.94 131.45C262.567 131.45 267.94 126.077 267.94 119.45C267.94 112.823 262.567 107.45 255.94 107.45C249.313 107.45 243.94 112.823 243.94 119.45C243.94 126.077 249.313 131.45 255.94 131.45Z" fill="white"/>
<path d="M256.923 120.116C256.923 120.739 256.816 121.202 256.604 121.505C256.391 121.808 256.058 121.959 255.606 121.959C255.159 121.959 254.829 121.812 254.614 121.517C254.399 121.22 254.288 120.777 254.281 120.188V119.478C254.281 118.863 254.387 118.406 254.6 118.107C254.813 117.808 255.146 117.658 255.6 117.658C256.051 117.658 256.382 117.803 256.595 118.092C256.808 118.38 256.917 118.825 256.923 119.426V120.116ZM256.391 119.389C256.391 118.939 256.328 118.611 256.201 118.406C256.075 118.199 255.874 118.095 255.6 118.095C255.328 118.095 255.13 118.198 255.005 118.403C254.881 118.608 254.816 118.923 254.813 119.349V120.2C254.813 120.652 254.878 120.987 255.008 121.203C255.14 121.418 255.34 121.525 255.606 121.525C255.869 121.525 256.063 121.424 256.19 121.22C256.318 121.017 256.385 120.697 256.391 120.26V119.389ZM257.558 118.521C257.558 118.27 257.638 118.063 257.797 117.9C257.958 117.737 258.164 117.655 258.415 117.655C258.67 117.655 258.876 117.738 259.033 117.903C259.192 118.066 259.272 118.277 259.272 118.538V118.742C259.272 118.995 259.191 119.202 259.03 119.363C258.871 119.522 258.668 119.602 258.421 119.602C258.172 119.602 257.966 119.522 257.803 119.363C257.64 119.202 257.558 118.988 257.558 118.722V118.521ZM257.955 118.742C257.955 118.892 257.997 119.015 258.081 119.113C258.166 119.209 258.279 119.257 258.421 119.257C258.557 119.257 258.666 119.21 258.748 119.116C258.833 119.022 258.875 118.894 258.875 118.731V118.521C258.875 118.371 258.834 118.248 258.751 118.15C258.669 118.052 258.557 118.003 258.415 118.003C258.273 118.003 258.161 118.052 258.079 118.15C257.996 118.248 257.955 118.375 257.955 118.532V118.742ZM259.597 120.875C259.597 120.624 259.676 120.418 259.835 120.257C259.996 120.094 260.202 120.013 260.453 120.013C260.704 120.013 260.911 120.093 261.072 120.254C261.233 120.415 261.313 120.629 261.313 120.896V121.1C261.313 121.351 261.233 121.558 261.072 121.721C260.912 121.882 260.708 121.962 260.459 121.962C260.21 121.962 260.004 121.883 259.841 121.724C259.678 121.563 259.597 121.349 259.597 121.082V120.875ZM259.993 121.1C259.993 121.251 260.036 121.376 260.12 121.474C260.204 121.569 260.317 121.617 260.459 121.617C260.597 121.617 260.707 121.57 260.79 121.476C260.872 121.381 260.913 121.251 260.913 121.088V120.875C260.913 120.724 260.871 120.6 260.787 120.505C260.704 120.409 260.593 120.361 260.453 120.361C260.317 120.361 260.206 120.409 260.12 120.505C260.036 120.599 259.993 120.726 259.993 120.887V121.1ZM258.541 121.586L258.24 121.396L260.284 118.124L260.586 118.314L258.541 121.586Z" fill="white"/>
<path d="M234.68 193.5H202.02C201.374 193.5 200.85 194.024 200.85 194.67V227.33C200.85 227.976 201.374 228.5 202.02 228.5H234.68C235.326 228.5 235.85 227.976 235.85 227.33V194.67C235.85 194.024 235.326 193.5 234.68 193.5Z" fill="#6F87F6"/>
<path opacity="0.5" d="M229.5 222.63H225V224.92H229.5V222.63Z" fill="white"/>
<path d="M229.5 199.78H225V202.07H229.5V199.78Z" fill="white"/>
<path d="M229.5 203.59H225V205.88H229.5V203.59Z" fill="white"/>
<path opacity="0.75" d="M229.5 207.4H225V209.69H229.5V207.4Z" fill="white"/>
<path opacity="0.5" d="M229.5 211.2H225V213.49H229.5V211.2Z" fill="white"/>
<path opacity="0.5" d="M229.5 215.01H225V217.3H229.5V215.01Z" fill="white"/>
<path opacity="0.5" d="M229.5 218.82H225V221.11H229.5V218.82Z" fill="white"/>
<path opacity="0.5" d="M223.38 222.63H218.88V224.92H223.38V222.63Z" fill="white"/>
<path d="M223.38 211.2H218.88V213.49H223.38V211.2Z" fill="white"/>
<path opacity="0.75" d="M223.38 215.01H218.88V217.3H223.38V215.01Z" fill="white"/>
<path opacity="0.5" d="M223.38 218.82H218.88V221.11H223.38V218.82Z" fill="white"/>
<path opacity="0.5" d="M217.25 222.63H212.75V224.92H217.25V222.63Z" fill="white"/>
<path d="M217.25 207.4H212.75V209.69H217.25V207.4Z" fill="white"/>
<path opacity="0.75" d="M217.25 211.2H212.75V213.49H217.25V211.2Z" fill="white"/>
<path opacity="0.5" d="M217.25 215.01H212.75V217.3H217.25V215.01Z" fill="white"/>
<path opacity="0.5" d="M217.25 218.82H212.75V221.11H217.25V218.82Z" fill="white"/>
<path opacity="0.5" d="M211.13 222.63H206.63V224.92H211.13V222.63Z" fill="white"/>
<path d="M211.13 215.01H206.63V217.3H211.13V215.01Z" fill="white"/>
<path opacity="0.75" d="M211.13 218.82H206.63V221.11H211.13V218.82Z" fill="white"/>
<path d="M207.91 25.08H175.25C174.604 25.08 174.08 25.6038 174.08 26.25V58.91C174.08 59.5562 174.604 60.08 175.25 60.08H207.91C208.556 60.08 209.08 59.5562 209.08 58.91V26.25C209.08 25.6038 208.556 25.08 207.91 25.08Z" fill="#6F87F6"/>
<path opacity="0.9" d="M194.11 38.78V36.59L192.98 36.49C192.832 35.7754 192.546 35.0963 192.14 34.49L192.86 33.61L191.32 32L190.44 32.73C189.833 32.3252 189.154 32.0401 188.44 31.89L188.33 30.76H186.14L186.04 31.89C185.326 32.0413 184.648 32.3263 184.04 32.73L183.17 32L181.62 33.55L182.34 34.43C181.941 35.0401 181.656 35.7178 181.5 36.43L180.38 36.53V38.72L181.5 38.83C181.659 39.5413 181.943 40.2186 182.34 40.83L181.62 41.71L183.17 43.26L184.04 42.53C184.648 42.9337 185.326 43.2187 186.04 43.37L186.14 44.5H188.33L188.44 43.37C189.154 43.2199 189.833 42.9348 190.44 42.53L191.32 43.26L192.86 41.71L192.14 40.83C192.545 40.2229 192.83 39.5441 192.98 38.83L194.11 38.78ZM187.22 40.65C186.627 40.65 186.047 40.4741 185.553 40.1444C185.06 39.8148 184.675 39.3462 184.448 38.7981C184.221 38.2499 184.162 37.6467 184.278 37.0647C184.393 36.4828 184.679 35.9482 185.099 35.5287C185.518 35.1091 186.053 34.8234 186.635 34.7076C187.217 34.5919 187.82 34.6513 188.368 34.8784C188.916 35.1054 189.385 35.49 189.714 35.9833C190.044 36.4766 190.22 37.0567 190.22 37.65C190.22 38.4457 189.904 39.2087 189.341 39.7713C188.779 40.3339 188.016 40.65 187.22 40.65Z" fill="white"/>
<path opacity="0.6" d="M203 45V43.28L202.12 43.2C202.001 42.6336 201.777 42.0944 201.46 41.61L202.03 40.93L200.82 39.71L200.13 40.28C199.649 39.9633 199.113 39.7394 198.55 39.62L198.46 38.74H196.75L196.66 39.62C196.097 39.7394 195.561 39.9633 195.08 40.28L194.39 39.71L193.18 40.93L193.75 41.61C193.429 42.0922 193.205 42.6322 193.09 43.2L192.2 43.28V45L193.09 45.08C193.205 45.6446 193.429 46.1814 193.75 46.66L193.18 47.35L194.39 48.56L195.08 48C195.561 48.3136 196.097 48.5341 196.66 48.65L196.75 49.54H198.46L198.55 48.65C199.113 48.5341 199.649 48.3136 200.13 48L200.82 48.56L202.03 47.35L201.46 46.66C201.777 46.1792 202.001 45.6433 202.12 45.08L203 45ZM197.6 46.46C197.139 46.46 196.688 46.3231 196.304 46.0666C195.921 45.8101 195.622 45.4457 195.446 45.0193C195.27 44.593 195.225 44.124 195.316 43.6717C195.406 43.2195 195.629 42.8044 195.956 42.4789C196.283 42.1534 196.699 41.9323 197.152 41.8436C197.604 41.7548 198.073 41.8024 198.499 41.9802C198.924 42.1581 199.287 42.4583 199.542 42.8428C199.797 43.2273 199.932 43.6787 199.93 44.14C199.926 44.4447 199.862 44.7456 199.742 45.0256C199.622 45.3055 199.448 45.5591 199.229 45.7718C199.011 45.9844 198.753 46.152 198.47 46.2649C198.187 46.3779 197.885 46.434 197.58 46.43L197.6 46.46Z" fill="white"/>
<path opacity="0.4" d="M194.11 49.84V48.4L193.37 48.33C193.269 47.8521 193.079 47.3976 192.81 46.99L193.29 46.42L192.29 45.42L191.71 45.9C191.309 45.6252 190.857 45.4347 190.38 45.34L190.31 44.6H188.87L188.8 45.34C188.324 45.4383 187.873 45.6285 187.47 45.9L186.9 45.42L185.9 46.42L186.37 46.99C186.104 47.3981 185.917 47.8527 185.82 48.33L185.08 48.4V49.84L185.82 49.91C185.919 50.3836 186.106 50.8346 186.37 51.24L185.9 51.81L186.9 52.81L187.47 52.34C187.875 52.6043 188.326 52.7908 188.8 52.89L188.87 53.63H190.31L190.38 52.89C190.855 52.7945 191.306 52.6077 191.71 52.34L192.29 52.81L193.29 51.81L192.81 51.24C193.077 50.8351 193.267 50.3842 193.37 49.91L194.11 49.84ZM189.57 51.07C189.184 51.07 188.807 50.9556 188.487 50.7414C188.166 50.5271 187.916 50.2226 187.768 49.8662C187.621 49.5099 187.582 49.1178 187.657 48.7396C187.733 48.3613 187.918 48.0139 188.191 47.7411C188.464 47.4684 188.811 47.2827 189.19 47.2075C189.568 47.1322 189.96 47.1709 190.316 47.3184C190.673 47.466 190.977 47.716 191.191 48.0366C191.406 48.3573 191.52 48.7343 191.52 49.12C191.507 49.6332 191.298 50.1218 190.935 50.4848C190.572 50.8478 190.083 51.0573 189.57 51.07V51.07Z" fill="white"/>
<path d="M205.69 82.75H174.94V102.75H205.69V82.75Z" fill="#6F87F6"/>
<path opacity="0.6" d="M205.69 82.75H174.94V102.75H205.69V82.75Z" fill="white"/>
<path d="M204.56 86.5H176.06V101.75H204.56V86.5Z" fill="#6F87F6"/>
<path d="M199.46 88.78H178.38V89.44H199.46V88.78Z" fill="white"/>
<path d="M188.5 90.79H178.38V91.45H188.5V90.79Z" fill="white"/>
<path d="M191.12 92.8H178.38V93.46H191.12V92.8Z" fill="white"/>
<path d="M182.87 94.81H178.38V95.47H182.87V94.81Z" fill="white"/>
<path d="M181.29 96.82H178.38V97.48H181.29V96.82Z" fill="white"/>
<path d="M254.69 235.25H223.94V255.25H254.69V235.25Z" fill="#6F87F6"/>
<path opacity="0.6" d="M254.69 235.25H223.94V255.25H254.69V235.25Z" fill="white"/>
<path d="M253.56 239H225.06V254.25H253.56V239Z" fill="#6F87F6"/>
<path d="M248.46 241.28H227.38V241.94H248.46V241.28Z" fill="white"/>
<path d="M237.5 243.29H227.38V243.95H237.5V243.29Z" fill="white"/>
<path d="M240.12 245.3H227.38V245.96H240.12V245.3Z" fill="white"/>
<path d="M231.87 247.31H227.38V247.97H231.87V247.31Z" fill="white"/>
<path d="M230.29 249.32H227.38V249.98H230.29V249.32Z" fill="white"/>
<g opacity="0.4">
<path opacity="0.4" d="M209 119H39V121H209V119Z" fill="white"/>
<path opacity="0.4" d="M33 111H31V99C30.9992 98.8684 31.0245 98.7379 31.0742 98.6161C31.124 98.4942 31.1973 98.3834 31.29 98.29L92.46 37.29C92.5534 37.1973 92.6643 37.124 92.7861 37.0742C92.9079 37.0244 93.0384 36.9992 93.17 37H149V39H93.58L33 99.41V111Z" fill="white"/>
<path opacity="0.4" d="M178 212H103C102.868 212.001 102.738 211.976 102.616 211.926C102.494 211.876 102.383 211.803 102.29 211.71L31.29 140.71C31.1973 140.617 31.124 140.506 31.0742 140.384C31.0245 140.262 30.9992 140.132 31 140V130H33V139.59L103.41 210H178V212Z" fill="white"/>
<path opacity="0.4" d="M128 148H87.83C87.5676 147.999 87.3163 147.895 87.13 147.71L60.13 120.88L61.54 119.46L88.25 146H128V148Z" fill="white"/>
<path opacity="0.4" d="M100.21 120.79L98.79 119.38L125.7 92.29C125.892 92.1072 126.145 92.0037 126.41 92H167V94H126.83L100.21 120.79Z" fill="white"/>
<path opacity="0.4" d="M253 70H94.23C94.0977 69.9994 93.9668 69.9726 93.8449 69.9211C93.7231 69.8696 93.6126 69.7945 93.52 69.7L77.58 53.6L79 52.19L94.65 68H253V70Z" fill="white"/>
<path opacity="0.4" d="M111.37 38.71L110 37.29L136 11.29C136.093 11.1973 136.204 11.124 136.326 11.0742C136.448 11.0244 136.578 10.9992 136.71 11H220V13H137.08L111.37 38.71Z" fill="white"/>
<path opacity="0.4" d="M127.63 261L87.29 220.67C87.1124 220.491 87.0088 220.252 87 220V196H89V219.59L129 259.59L127.63 261Z" fill="white"/>
<path opacity="0.4" d="M118.54 211.39L117.12 210L143.64 183.31C143.832 183.127 144.085 183.024 144.35 183.02H245V185.02H144.77L118.54 211.39Z" fill="white"/>
<path opacity="0.4" d="M212 240H167.17C167.038 240.001 166.908 239.976 166.786 239.926C166.664 239.876 166.553 239.803 166.46 239.71L138.29 211.54L139.71 210.13L167.58 238H212V240Z" fill="white"/>
<path opacity="0.4" d="M220 16.58C222.529 16.58 224.58 14.5294 224.58 12C224.58 9.47052 222.529 7.41998 220 7.41998C217.471 7.41998 215.42 9.47052 215.42 12C215.42 14.5294 217.471 16.58 220 16.58Z" fill="white"/>
<path opacity="0.4" d="M158 48.58C155.907 48.58 153.862 47.9595 152.122 46.7969C150.382 45.6344 149.026 43.982 148.225 42.0488C147.425 40.1155 147.215 37.9883 147.623 35.9359C148.032 33.8836 149.039 31.9984 150.519 30.5188C151.998 29.0392 153.884 28.0315 155.936 27.6233C157.988 27.215 160.116 27.4246 162.049 28.2253C163.982 29.0261 165.634 30.3822 166.797 32.1221C167.959 33.8619 168.58 35.9075 168.58 38C168.58 40.806 167.465 43.497 165.481 45.4812C163.497 47.4653 160.806 48.58 158 48.58V48.58ZM158 29.42C156.303 29.42 154.644 29.9232 153.233 30.866C151.822 31.8088 150.723 33.1488 150.073 34.7166C149.424 36.2844 149.254 38.0095 149.585 39.6739C149.916 41.3382 150.733 42.867 151.933 44.067C153.133 45.2669 154.662 46.0841 156.326 46.4151C157.99 46.7462 159.716 46.5763 161.283 45.9269C162.851 45.2775 164.191 44.1778 165.134 42.7668C166.077 41.3558 166.58 39.697 166.58 38C166.577 35.7252 165.673 33.5444 164.064 31.9359C162.456 30.3274 160.275 29.4226 158 29.42V29.42Z" fill="white"/>
<path opacity="0.4" d="M257.58 69.17C257.578 70.0754 257.308 70.9599 256.803 71.7118C256.299 72.4636 255.583 73.0491 254.746 73.3942C253.909 73.7393 252.988 73.8286 252.1 73.6508C251.213 73.4729 250.397 73.0359 249.758 72.395C249.118 71.7541 248.683 70.938 248.507 70.0498C248.331 69.1617 248.423 68.2413 248.77 67.405C249.117 66.5687 249.704 65.854 250.457 65.3512C251.21 64.8483 252.095 64.58 253 64.58C253.602 64.58 254.199 64.6988 254.755 64.9296C255.311 65.1604 255.817 65.4986 256.242 65.925C256.668 66.3513 257.005 66.8574 257.234 67.4142C257.464 67.9711 257.581 68.5677 257.58 69.17V69.17Z" fill="white"/>
<path opacity="0.4" d="M167 97.58C169.529 97.58 171.58 95.5294 171.58 93C171.58 90.4705 169.529 88.42 167 88.42C164.471 88.42 162.42 90.4705 162.42 93C162.42 95.5294 164.471 97.58 167 97.58Z" fill="white"/>
<path opacity="0.4" d="M218 130.58C215.907 130.58 213.862 129.959 212.122 128.797C210.382 127.634 209.026 125.982 208.225 124.049C207.425 122.116 207.215 119.988 207.623 117.936C208.032 115.884 209.039 113.998 210.519 112.519C211.998 111.039 213.884 110.032 215.936 109.623C217.988 109.215 220.116 109.425 222.049 110.225C223.982 111.026 225.634 112.382 226.797 114.122C227.959 115.862 228.58 117.907 228.58 120C228.58 122.806 227.465 125.497 225.481 127.481C223.497 129.465 220.806 130.58 218 130.58V130.58ZM218 111.42C216.303 111.42 214.644 111.923 213.233 112.866C211.822 113.809 210.723 115.149 210.073 116.717C209.424 118.284 209.254 120.01 209.585 121.674C209.916 123.338 210.733 124.867 211.933 126.067C213.133 127.267 214.662 128.084 216.326 128.415C217.99 128.746 219.716 128.576 221.283 127.927C222.851 127.277 224.191 126.178 225.134 124.767C226.077 123.356 226.58 121.697 226.58 120C226.577 117.725 225.673 115.544 224.064 113.936C222.456 112.327 220.275 111.423 218 111.42Z" fill="white"/>
<path opacity="0.4" d="M128 151.58C130.529 151.58 132.58 149.529 132.58 147C132.58 144.471 130.529 142.42 128 142.42C125.471 142.42 123.42 144.471 123.42 147C123.42 149.529 125.471 151.58 128 151.58Z" fill="white"/>
<path opacity="0.4" d="M245 188.58C247.529 188.58 249.58 186.529 249.58 184C249.58 181.471 247.529 179.42 245 179.42C242.471 179.42 240.42 181.471 240.42 184C240.42 186.529 242.471 188.58 245 188.58Z" fill="white"/>
<path opacity="0.4" d="M187 221.42C184.905 221.422 182.857 220.803 181.114 219.64C179.371 218.478 178.012 216.824 177.209 214.89C176.406 212.955 176.195 210.825 176.602 208.77C177.01 206.715 178.018 204.827 179.498 203.345C180.979 201.863 182.866 200.854 184.92 200.444C186.975 200.035 189.105 200.244 191.04 201.045C192.976 201.846 194.63 203.204 195.795 204.945C196.959 206.687 197.58 208.735 197.58 210.83C197.58 213.637 196.466 216.329 194.482 218.315C192.498 220.3 189.807 221.417 187 221.42V221.42ZM187 202.25C185.3 202.248 183.638 202.75 182.224 203.693C180.81 204.637 179.707 205.978 179.056 207.548C178.404 209.118 178.233 210.846 178.565 212.513C178.896 214.181 179.714 215.712 180.916 216.914C182.118 218.116 183.649 218.934 185.317 219.265C186.984 219.597 188.712 219.426 190.282 218.774C191.852 218.123 193.193 217.02 194.137 215.606C195.08 214.192 195.582 212.53 195.58 210.83C195.577 208.555 194.673 206.374 193.064 204.766C191.456 203.157 189.275 202.253 187 202.25V202.25Z" fill="white"/>
<path opacity="0.4" d="M212 243.58C214.529 243.58 216.58 241.529 216.58 239C216.58 236.471 214.529 234.42 212 234.42C209.471 234.42 207.42 236.471 207.42 239C207.42 241.529 209.471 243.58 212 243.58Z" fill="white"/>
<path opacity="0.4" d="M132.92 260.33C132.922 261.238 132.654 262.127 132.151 262.883C131.648 263.639 130.932 264.229 130.093 264.578C129.255 264.927 128.332 265.019 127.441 264.843C126.55 264.667 125.731 264.231 125.088 263.589C124.445 262.948 124.007 262.13 123.829 261.239C123.651 260.348 123.741 259.425 124.088 258.586C124.436 257.747 125.024 257.029 125.779 256.524C126.534 256.019 127.422 255.75 128.33 255.75C129.545 255.753 130.709 256.236 131.569 257.094C132.429 257.952 132.915 259.115 132.92 260.33V260.33Z" fill="white"/>
<path opacity="0.4" d="M32 131.65C29.7015 131.646 27.4557 130.961 25.5463 129.682C23.6368 128.402 22.1492 126.586 21.2715 124.461C20.3937 122.337 20.1651 120 20.6145 117.746C21.0638 115.492 22.1711 113.422 23.7964 111.796C25.4217 110.171 27.4921 109.064 29.7462 108.614C32.0004 108.165 34.3371 108.394 36.4614 109.271C38.5857 110.149 40.4022 111.637 41.6817 113.546C42.9611 115.456 43.646 117.702 43.65 120C43.6526 121.531 43.3531 123.047 42.7686 124.461C42.184 125.876 41.326 127.161 40.2437 128.244C39.1613 129.326 37.876 130.184 36.4614 130.769C35.0468 131.353 33.5306 131.653 32 131.65V131.65ZM32 111.39C30.2932 111.39 28.6246 111.896 27.2054 112.844C25.7862 113.793 24.6801 115.141 24.0269 116.717C23.3737 118.294 23.2028 120.03 23.5358 121.704C23.8688 123.378 24.6908 124.915 25.8977 126.122C27.1046 127.329 28.6423 128.151 30.3164 128.484C31.9904 128.817 33.7256 128.646 35.3026 127.993C36.8795 127.34 38.2273 126.234 39.1756 124.815C40.1239 123.395 40.63 121.727 40.63 120.02C40.6274 117.732 39.7173 115.538 38.0994 113.921C36.4816 112.303 34.288 111.393 32 111.39V111.39Z" fill="white"/>
</g>
</svg>
