<?xml version="1.0"?>
<svg xmlns="http://www.w3.org/2000/svg" xmlns:xlink="http://www.w3.org/1999/xlink" width="512" height="512" viewBox="0 0 128 128"><defs><linearGradient id="a" x1="118.724" y1="111.503" x2="9.276" y2="2.056" gradientUnits="userSpaceOnUse"><stop offset="0" stop-color="#de6246"/><stop offset="1" stop-color="#f4d844"/></linearGradient></defs><path d="M121.25,7.374H6.75A6.758,6.758,0,0,0,0,14.124V54.313a1.75,1.75,0,0,0,3.5,0V29.749h121v69.9a2.729,2.729,0,0,1-2.726,2.726h-4.253a24.235,24.235,0,0,0-6.706-23.484V77.3a6.758,6.758,0,0,0-6.75-6.75H95.774v-1.9a6.742,6.742,0,0,1,3.969-6.137,1.75,1.75,0,0,0-1.437-3.192,10.249,10.249,0,0,0-6.032,9.329v1.9H83.982a6.758,6.758,0,0,0-6.75,6.75v1.6A24.373,24.373,0,0,0,73.35,83.7a1.75,1.75,0,1,0,2.982,1.834,20.868,20.868,0,0,1,3.284-4.085h28.816A20.749,20.749,0,1,1,73.274,96.376a1.75,1.75,0,0,0-3.5,0,24.245,24.245,0,0,0,.753,6H6.226A2.729,2.729,0,0,1,3.5,99.652V77.874a1.75,1.75,0,0,0-3.5,0V99.652a6.233,6.233,0,0,0,6.226,6.226h65.49a24.246,24.246,0,0,0,44.617,0h5.441A6.233,6.233,0,0,0,128,99.652V14.124A6.758,6.758,0,0,0,121.25,7.374ZM80.732,77.947V77.3a3.254,3.254,0,0,1,3.25-3.25h20.083a3.254,3.254,0,0,1,3.25,3.25v.645ZM3.5,26.249V14.124a3.254,3.254,0,0,1,3.25-3.25h114.5a3.254,3.254,0,0,1,3.25,3.25V26.249ZM120,18.562a1.75,1.75,0,0,1-1.75,1.75H49.687a1.75,1.75,0,0,1,0-3.5H118.25A1.749,1.749,0,0,1,120,18.562Zm-103.873,0a1.75,1.75,0,0,1-1.75,1.75H9.75a1.75,1.75,0,0,1,0-3.5h4.627A1.749,1.749,0,0,1,16.127,18.562Zm13.312,0a1.75,1.75,0,0,1-1.75,1.75H23.062a1.75,1.75,0,0,1,0-3.5h4.627A1.749,1.749,0,0,1,29.439,18.562Zm13.313,0A1.75,1.75,0,0,1,41,20.312H36.375a1.75,1.75,0,0,1,0-3.5H41A1.749,1.749,0,0,1,42.752,18.562ZM99.024,55.421a1.75,1.75,0,0,1-1.75-1.75V49.983a1.75,1.75,0,0,1,3.5,0v3.688A1.749,1.749,0,0,1,99.024,55.421ZM108,51.95a1.749,1.749,0,0,1,0,2.475l-2.607,2.607a1.75,1.75,0,1,1-2.475-2.474l2.607-2.608A1.751,1.751,0,0,1,108,51.95Zm-1.72,7.224h3.688a1.75,1.75,0,0,1,0,3.5h-3.688a1.75,1.75,0,0,1,0-3.5Zm-84.9,2.694a5.756,5.756,0,0,0,5.75-5.75v-10.3a5.756,5.756,0,0,0-5.75-5.75H13.5a1.75,1.75,0,0,0-1.75,1.75v18.3a1.749,1.749,0,0,0,1.75,1.75Zm-6.126-18.3h6.126a2.253,2.253,0,0,1,2.25,2.25v10.3a2.253,2.253,0,0,1-2.25,2.25H15.25Zm25.377,18.3a5.756,5.756,0,0,0,5.75-5.75v-10.3a5.756,5.756,0,0,0-5.75-5.75H32.751A1.75,1.75,0,0,0,31,41.819v18.3a1.749,1.749,0,0,0,1.75,1.75ZM34.5,43.569h6.126a2.253,2.253,0,0,1,2.25,2.25v10.3a2.253,2.253,0,0,1-2.25,2.25H34.5Zm22.749,18.3A4.756,4.756,0,0,0,62,57.118V51.334a4.756,4.756,0,0,0-4.75-4.75H55a4.756,4.756,0,0,0-4.75,4.75v5.784A4.756,4.756,0,0,0,55,61.868Zm-3.5-4.75V51.334A1.252,1.252,0,0,1,55,50.084H57.25a1.252,1.252,0,0,1,1.25,1.25v5.784a1.251,1.251,0,0,1-1.25,1.25H55A1.251,1.251,0,0,1,53.751,57.118Zm24.827-1v-3.4H68.452a1.749,1.749,0,0,1-1.75-1.75v-5.15a5.756,5.756,0,0,1,5.75-5.75h7.876a1.75,1.75,0,0,1,0,3.5H72.452a2.253,2.253,0,0,0-2.25,2.25v3.4H80.328a1.749,1.749,0,0,1,1.75,1.75v5.149a5.756,5.756,0,0,1-5.75,5.75H68.452a1.75,1.75,0,0,1,0-3.5h7.876A2.253,2.253,0,0,0,78.578,56.118ZM0,67.886V64.3a1.75,1.75,0,0,1,3.5,0v3.586a1.75,1.75,0,0,1-3.5,0Z" fill="url(#a)"/></svg>
