<svg xmlns="http://www.w3.org/2000/svg" viewBox="0 0 500 500"><g id="freepik--Filter--inject-415"><path d="M249.73,290.5c-14.44,0-26.15,6.75-26.15,15.07V341.9c0,8.32,11.71,15.07,26.15,15.07s26.15-6.75,26.15-15.07V305.57C275.88,297.25,264.17,290.5,249.73,290.5Z" style="fill:#ebebeb"></path><path d="M249.73,290.5c-14.44,0-26.15,6.75-26.15,15.07V341.9c0,8.32,11.71,15.07,26.15,15.07s26.15-6.75,26.15-15.07V305.57C275.88,297.25,264.17,290.5,249.73,290.5Z" style="fill:#6F87F6"></path><path d="M223.58,305.57V341.9c0,6.74,7.68,12.44,18.28,14.37V291.2C231.26,293.12,223.58,298.83,223.58,305.57Z" style="opacity:0.1"></path><path d="M279.86,309.11c.2-.3,72.46-116.54,72.46-116.54s-36.52,23.57-102.57,23.57a260.67,260.67,0,0,1-35.46-2.38c-43.53-6-67.12-21.19-67.12-21.19l72.41,116.52v0h0c4.44,7.12,16.26,12.21,30.14,12.21s25.69-5.09,30.13-12.21Z" style="fill:#ebebeb"></path><path d="M197.26,222.62l-11-14.46c-25.55-6.84-39.13-15.59-39.13-15.59l72.41,116.52v0h0c3.57,5.73,11.92,10.14,22.27,11.64Z" style="fill:#e0e0e0"></path><path d="M341,101.9c-22.08-12.75-50.17-19.91-79-21.48h0c-37-2-75.11,5.15-103.4,21.49-50.37,29.09-50.36,76.24,0,105.32a154.78,154.78,0,0,0,38.73,15.39c34.59,8.88,74.57,8.53,108.75-1q7.22-2,14.05-4.58c1.9-.71,3.78-1.46,5.62-2.24h0q3.93-1.65,7.67-3.49c2.6-1.29,5.14-2.63,7.59-4.05C391.33,178.14,391.34,131,341,101.9Z" style="fill:#6F87F6"></path><path d="M261.93,80.42c-37-2-75.11,5.15-103.4,21.49-50.37,29.09-50.36,76.24,0,105.32a154.78,154.78,0,0,0,38.73,15.39h0c-4.81-6.71-8-22.69,1.27-23.68a139.44,139.44,0,0,1-34.31-13.7c-14.48-8.36-24.29-18.33-28.42-28.84-3.51-9-2.69-18,2.46-26.93,5-8.65,14-16.86,25.93-23.78,24.06-13.9,56.74-20.57,89.07-20C253.26,85.66,252.53,81.62,261.93,80.42Z" style="opacity:0.1"></path><path d="M335,105.67c-22.25-12.84-51.87-19.53-81.77-20-32.33-.55-65,6.12-89.07,20-12,6.92-20.95,15.13-25.93,23.78-5.15,8.89-6,18-2.46,26.93,4.13,10.51,13.94,20.48,28.42,28.84a139.44,139.44,0,0,0,34.31,13.7c4.74,1.25,9.6,2.31,14.55,3.19A203.1,203.1,0,0,0,239.61,205q2.76.13,5.52.18c3.05.08,6.13.09,9.18,0a204.59,204.59,0,0,0,30.9-2.92l.35-.06A182.23,182.23,0,0,0,305,197.73q6.76-2,13.1-4.45c1.77-.68,3.5-1.41,5.22-2.16,2.05-.91,4.07-1.87,6.05-2.86s3.78-2,5.61-3c12-6.93,21-15.16,26-23.8C372,142.28,362.31,121.43,335,105.67Z" style="fill:#f5f5f5"></path><path d="M249.73,167.83c-30.29,0-56.13,10.93-66.36,26.31a156.83,156.83,0,0,0,15.16,4.79c4.74,1.25,9.6,2.31,14.55,3.19A203.1,203.1,0,0,0,239.61,205q2.76.13,5.52.18c3.05.08,6.13.09,9.18,0a204.59,204.59,0,0,0,30.9-2.92l.35-.06A183,183,0,0,0,305,197.73q5.66-1.65,11-3.66C305.78,178.73,280,167.83,249.73,167.83Z" style="fill:#ebebeb"></path><circle cx="280.7" cy="168.84" r="12.33" style="fill:#6F87F6"></circle><path d="M277.26,173.28c-5.87-4.26-6.35-12.61-1.76-15.62h0A12.33,12.33,0,1,0,293,168.84C292.56,174.78,283.13,177.53,277.26,173.28Z" style="opacity:0.1"></path><circle cx="323.01" cy="112.94" r="20.68" style="fill:#455a64"></circle><path d="M317.24,120.38c-9.85-7.14-10.66-21.16-2.95-26.2h0a20.69,20.69,0,1,0,29.41,18.76C342.91,122.9,327.1,127.51,317.24,120.38Z" style="fill:#37474f"></path><circle cx="184.9" cy="61.86" r="16.22" transform="translate(10.42 148.86) rotate(-45)" style="fill:#455a64"></circle><path d="M180.38,67.69c-7.73-5.59-8.36-16.59-2.32-20.54h0a16.22,16.22,0,1,0,23.06,14.71C200.5,69.67,188.1,73.29,180.38,67.69Z" style="fill:#37474f"></path><path d="M163.49,139.39l8.56-18.61a6.1,6.1,0,0,1,4.49-3.19L195.4,115a6.11,6.11,0,0,1,5,2.3l11.84,16.72a6.1,6.1,0,0,1,.51,5.49l-8.56,18.61a6.12,6.12,0,0,1-4.5,3.19l-18.85,2.56a6.09,6.09,0,0,1-5-2.3L164,144.88A6.07,6.07,0,0,1,163.49,139.39Z" style="fill:#6F87F6"></path><path d="M175.84,161.6a6.09,6.09,0,0,0,5,2.3l18.85-2.56a6.17,6.17,0,0,0,4.24-2.73c-.77,1.14-2,1.12-2.91-.16l-11.84-16.73a5.52,5.52,0,0,1-.91-2.68l-25.18,3.15a5.6,5.6,0,0,0,.91,2.69Z" style="opacity:0.1"></path><path d="M200.13,117c-1-1-2.2-.79-2.86.65l-8.57,18.62a5.93,5.93,0,0,0-.29,3.54,5.84,5.84,0,0,1-.11-.73l-25.18,3.15a5.54,5.54,0,0,1,.4-2.81l8.56-18.61a6.1,6.1,0,0,1,4.5-3.19L195.43,115A6.13,6.13,0,0,1,200.13,117Z" style="fill:#fff;opacity:0.4"></path><path d="M281.28,33.33l17.24-2.19a5.14,5.14,0,0,1,4.3,1.81l10.31,12.42a5.18,5.18,0,0,1,.59,4.63L307,66a5.17,5.17,0,0,1-3.72,2.83L286,71.05a5.17,5.17,0,0,1-4.3-1.81L271.42,56.82a5.18,5.18,0,0,1-.59-4.63l6.73-16A5.17,5.17,0,0,1,281.28,33.33Z" style="fill:#6F87F6"></path><path d="M270.83,52.19a5.18,5.18,0,0,0,.59,4.63l10.31,12.42a5.22,5.22,0,0,0,3.86,1.83c-1.17,0-1.7-.94-1.19-2.17l6.73-16A4.65,4.65,0,0,1,292.65,51L279.08,34.3a4.7,4.7,0,0,0-1.52,1.86Z" style="opacity:0.1"></path><path d="M313.87,49.64c.31-1.17-.42-1.94-1.75-1.77l-17.25,2.19a5.1,5.1,0,0,0-2.68,1.38c.15-.14.31-.28.48-.41L279.11,34.32a4.6,4.6,0,0,1,2.2-1l17.23-2.19a5.16,5.16,0,0,1,4.31,1.8l10.31,12.42A5.22,5.22,0,0,1,313.87,49.64Z" style="fill:#fff;opacity:0.4"></path><path d="M240.51,103.56l9.31.16A2.75,2.75,0,0,1,252,105l4.51,7.37a2.78,2.78,0,0,1,0,2.51l-4.79,8a2.78,2.78,0,0,1-2.19,1.21l-9.31-.16a2.75,2.75,0,0,1-2.14-1.29l-4.51-7.37a2.75,2.75,0,0,1,0-2.5l4.79-8A2.76,2.76,0,0,1,240.51,103.56Z" style="fill:#37474f"></path><path d="M256.54,114.71c.25-.6-.07-1.07-.8-1.08l-9.3-.16a2.67,2.67,0,0,0-1.53.53,1.75,1.75,0,0,1,.29-.18l-5.91-9.9a2.62,2.62,0,0,1,1.24-.35l9.3.16A2.79,2.79,0,0,1,252,105l4.51,7.37A2.8,2.8,0,0,1,256.54,114.71Z" style="fill:#455a64;opacity:0.4"></path><path d="M233.53,112.76a2.75,2.75,0,0,0,0,2.5l4.51,7.37a2.76,2.76,0,0,0,1.91,1.26c-.62-.11-.84-.62-.47-1.24l4.79-8a2.58,2.58,0,0,1,1-.87l-5.91-9.9a2.58,2.58,0,0,0-1,.87Z" style="fill:#263238"></path><circle cx="239.59" cy="392.39" r="13.65" transform="translate(-186.11 566.03) rotate(-80.78)" style="fill:#6F87F6"></circle><path d="M235.79,397.3c-6.5-4.71-7-14-1.95-17.29h0a13.65,13.65,0,1,0,19.4,12.38C252.72,399,242.29,402,235.79,397.3Z" style="opacity:0.1"></path><path d="M262.62,365.15l7.07.13a2.11,2.11,0,0,1,1.63,1l3.42,5.61a2.09,2.09,0,0,1,0,1.9l-3.64,6.06a2.1,2.1,0,0,1-1.66.92l-7.07-.12a2.09,2.09,0,0,1-1.63-1l-3.43-5.6a2.12,2.12,0,0,1,0-1.9l3.64-6.07A2.15,2.15,0,0,1,262.62,365.15Z" style="fill:#37474f"></path><path d="M274.79,373.62c.19-.45-.05-.81-.6-.82l-7.07-.12a2,2,0,0,0-1.16.4l.21-.14-4.49-7.52a2.09,2.09,0,0,1,.95-.26l7.07.12a2.11,2.11,0,0,1,1.63,1l3.42,5.6A2.12,2.12,0,0,1,274.79,373.62Z" style="fill:#455a64;opacity:0.4"></path><path d="M257.31,372.14a2.12,2.12,0,0,0,0,1.9l3.43,5.6a2.09,2.09,0,0,0,1.45,1c-.47-.09-.64-.48-.36-.94l3.64-6.06a1.92,1.92,0,0,1,.72-.66l-4.49-7.52a2,2,0,0,0-.72.65Z" style="fill:#263238"></path></g></svg>