<svg id="_x33_0" enable-background="new 0 0 64 64" height="512" viewBox="0 0 64 64" width="512" xmlns="http://www.w3.org/2000/svg" xmlns:xlink="http://www.w3.org/1999/xlink"><linearGradient id="SVGID_1_" gradientUnits="userSpaceOnUse" x1="32" x2="32" y1="63" y2="1"><stop offset="0" stop-color="#9f2fff"/><stop offset="1" stop-color="#0bb1d3"/></linearGradient><path d="m33 33h-2v-2h2zm0 2h-2v6h2zm15.931-14h14.069v34h-12c0 1.103-.897 2-2 2h-11v4h2v2h-16v-2h1.997l-.012-4h-10.985c-1.103 0-2-.897-2-2h-12v-34h14.999c-.566-.739-.999-1.717-.999-3 0-2.025 1.094-3.283 1.972-4.293.637-.732 1.028-1.207 1.028-1.707 0-.788-.186-1.613-.4-2.568-.282-1.251-.6-2.669-.6-4.432v-1.18l1.164.193c.457.076 3.936.707 5.845 2.443 1.04-.791 2.256-1.317 3.504-1.427.95-1.06 4.09-4.029 9.487-4.029h.959l.04.959c.035.851.266 3.334.896 4.594.15.3.547.658 1.015 1.042 1.24-1.272 4.054-3.595 8.09-3.595h1.618l-.724 1.447c-.007.015-.894 1.852-.894 4.553 0 1.952.477 2.761.98 3.616.478.811 1.02 1.731 1.02 3.384 0 1.644-.523 3.012-1.069 4zm-22.931-11c0-.953.197-1.895.425-2.664-1.85.773-3.425 2.762-3.425 4.664 0 1.086.506 1.592 1.207 2.293.799.799 1.793 1.793 1.793 3.707 0 1.281-.316 2.261-.724 3h4.547c-.451-.779-.823-1.8-.823-3.094 0-1.936.833-2.842 1.441-3.504.415-.452.559-.626.559-.973 0-2.946 1.211-4.069 1.349-4.188l.429-.368.536.178c1.966.65 5.686 3.298 5.686 8.663 0 1.441-.32 2.505-.733 3.286h8.275c.471-.595 1.458-2.067 1.458-4 0-1.108-.312-1.637-.743-2.369-.56-.95-1.257-2.133-1.257-4.631 0-1.587.261-2.918.529-3.867-2.411.44-4.176 1.866-5.07 2.747 1.284 1.154 2.541 2.709 2.541 5.12 0 2.211-1.061 4.356-1.105 4.447l-1.79-.894c.009-.017.895-1.823.895-3.553 0-2.169-1.481-3.354-2.914-4.5-.817-.654-1.59-1.271-1.98-2.053-.643-1.286-.919-3.238-1.031-4.412-4.448.337-6.828 3.018-7.22 3.498-.176.38-.855 1.952-.855 3.467 0 1.586.122 1.708.707 2.293l-1.414 1.414c-.939-.938-1.293-1.501-1.293-3.707zm-15 21v6h2v-2c0-1.103.897-2 2-2h8v-2zm-2 0h-6v6h6zm-6 8v6h4v-6zm6 6h4v-6h-4zm6 4h34v-14h-8.204c-.503 2.685-1.982 5.139-4.195 6.8l-4.601 3.45-4.6-3.45c-2.214-1.66-3.693-4.115-4.196-6.8h-8.204zm13.601-8.8 3.399 2.55 3.4-2.55c2.254-1.691 3.6-4.383 3.6-7.2v-2.52c-2.374.708-4.952.275-7-1.23-2.048 1.506-4.625 1.938-7 1.23v2.52c0 2.817 1.346 5.509 3.601 7.2zm22.399 4.8h4v-6h-4zm10 0v-6h-4v6zm0-8v-6h-6v6zm-8-6h-12v2h8c1.103 0 2 .897 2 2v2h2zm-10-2v-6h-22v6h2v-1.618l1.578.789c2.045 1.022 4.454.805 6.283-.566l1.139-.855 1.139.854c1.829 1.371 4.236 1.589 6.283.566l1.578-.788v1.618zm-10.649-8h3.38c.336-.233 1.269-1.072 1.269-3.286 0-3.991-2.412-5.796-3.634-6.454-.175.414-.366 1.108-.366 2.169 0 1.145-.603 1.8-1.086 2.327-.511.555-.914.994-.914 2.15 0 1.711.928 2.721 1.351 3.094zm-13.164 0h3.519c.378-.276 1.294-1.131 1.294-3 0-1.086-.506-1.592-1.207-2.293-.799-.799-1.793-1.793-1.793-3.707 0-1.478.612-2.941 1.577-4.147-.831-.707-2.261-1.262-3.514-1.596.097.994.295 1.876.488 2.736.231 1.027.449 1.997.449 3.007 0 1.273-.772 2.161-1.519 3.02-.761.876-1.481 1.703-1.481 2.98 0 1.938 1.69 2.791 2.187 3zm-16.187 2v6h16v-6zm0 30h2v-6h-2zm10 0v-6h-6v6zm23 4h-8.015l.012 4h8.003zm13-2v-4h-34v4zm2-2h6v-6h-6zm10 0v-6h-2v6zm0-30h-16v6h16z" fill="url(#SVGID_1_)"/></svg>