<svg width="259" height="377" viewBox="0 0 259 377" fill="none" xmlns="http://www.w3.org/2000/svg">
<path d="M129.73 260.5C115.29 260.5 103.58 267.25 103.58 275.57V311.9C103.58 320.22 115.29 326.97 129.73 326.97C144.17 326.97 155.88 320.22 155.88 311.9V275.57C155.88 267.25 144.17 260.5 129.73 260.5Z" fill="#EBEBEB"/>
<path d="M129.73 260.5C115.29 260.5 103.58 267.25 103.58 275.57V311.9C103.58 320.22 115.29 326.97 129.73 326.97C144.17 326.97 155.88 320.22 155.88 311.9V275.57C155.88 267.25 144.17 260.5 129.73 260.5Z" fill="#6F87F6"/>
<path opacity="0.1" d="M103.58 275.57V311.9C103.58 318.64 111.26 324.34 121.86 326.27V261.2C111.26 263.12 103.58 268.83 103.58 275.57Z" fill="black"/>
<path d="M159.86 279.11C160.06 278.81 232.32 162.57 232.32 162.57C232.32 162.57 195.8 186.14 129.75 186.14C117.89 186.154 106.042 185.359 94.2899 183.76C50.7599 177.76 27.1699 162.57 27.1699 162.57L99.5799 279.09C104.02 286.21 115.84 291.3 129.72 291.3C143.6 291.3 155.41 286.21 159.85 279.09L159.86 279.11Z" fill="#EBEBEB"/>
<path d="M77.26 192.62L66.26 178.16C40.71 171.32 27.13 162.57 27.13 162.57L99.54 279.09C103.11 284.82 111.46 289.23 121.81 290.73L77.26 192.62Z" fill="#E0E0E0"/>
<path d="M221 71.9C198.92 59.15 170.83 51.99 142 50.42C105 48.42 66.8899 55.57 38.5999 71.91C-11.7701 101 -11.7601 148.15 38.5999 177.23C50.7571 184.083 63.7851 189.259 77.3299 192.62C111.92 201.5 151.9 201.15 186.08 191.62C190.893 190.287 195.577 188.76 200.13 187.04C202.03 186.33 203.91 185.58 205.75 184.8C208.37 183.7 210.927 182.537 213.42 181.31C216.02 180.02 218.56 178.68 221.01 177.26C271.33 148.14 271.34 101 221 71.9Z" fill="#6F87F6"/>
<path opacity="0.1" d="M141.93 50.42C104.93 48.42 66.82 55.57 38.53 71.91C-11.84 101 -11.83 148.15 38.53 177.23C50.6871 184.083 63.7152 189.259 77.26 192.62V192.62C72.45 185.91 69.26 169.93 78.53 168.94C66.5363 165.915 54.9984 161.308 44.22 155.24C29.74 146.88 19.93 136.91 15.8 126.4C12.29 117.4 13.11 108.4 18.26 99.47C23.26 90.82 32.26 82.61 44.19 75.69C68.25 61.79 100.93 55.12 133.26 55.69C133.26 55.66 132.53 51.62 141.93 50.42Z" fill="black"/>
<path d="M215 75.67C192.75 62.83 163.13 56.14 133.23 55.67C100.9 55.12 68.23 61.79 44.16 75.67C32.16 82.59 23.21 90.8 18.23 99.45C13.08 108.34 12.23 117.45 15.77 126.38C19.9 136.89 29.71 146.86 44.19 155.22C54.9684 161.288 66.5064 165.895 78.5 168.92C83.24 170.17 88.1 171.23 93.05 172.11C101.83 173.655 110.703 174.621 119.61 175C121.45 175.087 123.29 175.147 125.13 175.18C128.18 175.26 131.26 175.27 134.31 175.18C144.669 174.99 154.999 174.014 165.21 172.26L165.56 172.2C172.117 171.066 178.607 169.574 185 167.73C189.507 166.397 193.873 164.913 198.1 163.28C199.87 162.6 201.6 161.87 203.32 161.12C205.37 160.21 207.39 159.25 209.37 158.26C211.35 157.27 213.15 156.26 214.98 155.26C226.98 148.33 235.98 140.1 240.98 131.46C252 112.28 242.31 91.43 215 75.67Z" fill="#F5F5F5"/>
<path d="M129.73 137.83C99.44 137.83 73.6 148.76 63.37 164.14C68.3391 165.992 73.3989 167.591 78.53 168.93C83.27 170.18 88.13 171.24 93.08 172.12C101.851 173.661 110.713 174.623 119.61 175C121.45 175.087 123.29 175.147 125.13 175.18C128.18 175.26 131.26 175.27 134.31 175.18C144.669 174.99 154.999 174.014 165.21 172.26L165.56 172.2C172.116 171.064 178.606 169.572 185 167.73C188.773 166.63 192.44 165.41 196 164.07C185.78 148.73 160 137.83 129.73 137.83Z" fill="#EBEBEB"/>
<path d="M160.7 151.17C167.51 151.17 173.03 145.65 173.03 138.84C173.03 132.03 167.51 126.51 160.7 126.51C153.89 126.51 148.37 132.03 148.37 138.84C148.37 145.65 153.89 151.17 160.7 151.17Z" fill="#6F87F6"/>
<path opacity="0.1" d="M157.26 143.28C151.39 139.02 150.91 130.67 155.5 127.66C153.491 128.588 151.769 130.039 150.515 131.861C149.26 133.683 148.519 135.81 148.368 138.017C148.218 140.224 148.665 142.432 149.661 144.407C150.658 146.382 152.167 148.053 154.032 149.244C155.896 150.435 158.047 151.103 160.258 151.177C162.469 151.251 164.66 150.728 166.6 149.664C168.54 148.6 170.157 147.034 171.283 145.129C172.41 143.225 173.002 141.052 173 138.84C172.56 144.78 163.13 147.53 157.26 143.28Z" fill="black"/>
<path d="M203.01 103.62C214.431 103.62 223.69 94.3613 223.69 82.94C223.69 71.5188 214.431 62.26 203.01 62.26C191.589 62.26 182.33 71.5188 182.33 82.94C182.33 94.3613 191.589 103.62 203.01 103.62Z" fill="#455A64"/>
<path d="M197.24 90.38C187.39 83.24 186.58 69.22 194.29 64.18C190.926 65.7435 188.044 68.1826 185.946 71.2421C183.848 74.3016 182.612 77.8689 182.366 81.5703C182.119 85.2718 182.873 88.9714 184.548 92.2816C186.222 95.5919 188.756 98.391 191.883 100.386C195.011 102.381 198.617 103.498 202.325 103.621C206.032 103.744 209.705 102.868 212.958 101.084C216.21 99.3008 218.924 96.6755 220.814 93.4833C222.704 90.2912 223.7 86.6496 223.7 82.94C222.91 92.9 207.1 97.51 197.24 90.38Z" fill="#37474F"/>
<path d="M76.3749 43.3269C82.7092 36.9926 82.7092 26.7226 76.3749 20.3883C70.0406 14.054 59.7706 14.054 53.4363 20.3883C47.102 26.7226 47.102 36.9926 53.4363 43.3269C59.7706 49.6612 70.0406 49.6612 76.3749 43.3269Z" fill="#455A64"/>
<path d="M60.3799 37.69C52.6499 32.1 52.0199 21.1 58.0599 17.15C55.4233 18.3762 53.1648 20.2887 51.5209 22.6871C49.877 25.0856 48.908 27.882 48.7155 30.7834C48.523 33.6848 49.114 36.5846 50.4267 39.1793C51.7393 41.774 53.7254 43.968 56.1769 45.5319C58.6284 47.0957 61.4552 47.9717 64.3614 48.0683C67.2676 48.1648 70.1463 47.4783 72.6962 46.0807C75.2461 44.683 77.3733 42.6256 78.8553 40.1238C80.3373 37.622 81.1194 34.7678 81.1199 31.86C80.4999 39.67 68.0999 43.29 60.3799 37.69Z" fill="#37474F"/>
<path d="M43.49 109.39L52.05 90.78C52.4958 89.9334 53.1345 89.2035 53.9145 88.6494C54.6945 88.0952 55.5939 87.7323 56.54 87.59L75.4 85C76.3553 84.9656 77.3053 85.1557 78.1737 85.5552C79.042 85.9546 79.8046 86.5522 80.4 87.3L92.24 104.02C92.7501 104.831 93.0621 105.75 93.1507 106.704C93.2393 107.658 93.102 108.619 92.75 109.51L84.19 128.12C83.742 128.967 83.1014 129.697 82.3198 130.251C81.5382 130.805 80.6374 131.168 79.69 131.31L60.84 133.87C59.8846 133.906 58.934 133.717 58.0654 133.317C57.1967 132.917 56.4344 132.319 55.84 131.57L44 114.88C43.4877 114.07 43.1744 113.15 43.0857 112.196C42.9971 111.242 43.1356 110.28 43.49 109.39V109.39Z" fill="#6F87F6"/>
<path opacity="0.1" d="M55.84 131.6C56.4343 132.349 57.1967 132.947 58.0653 133.347C58.934 133.747 59.8845 133.936 60.84 133.9L79.69 131.34C80.5491 131.209 81.3709 130.898 82.1016 130.428C82.8323 129.957 83.4553 129.338 83.93 128.61C83.16 129.75 81.93 129.73 81.02 128.45L69.18 111.72C68.6489 110.921 68.3352 109.997 68.27 109.04L43.09 112.19C43.1571 113.15 43.4705 114.076 44 114.88L55.84 131.6Z" fill="black"/>
<path opacity="0.4" d="M80.13 87C79.13 86 77.93 86.21 77.27 87.65L68.7 106.27C68.2439 107.393 68.1427 108.628 68.41 109.81C68.3579 109.569 68.3212 109.325 68.3 109.08L43.12 112.23C43.007 111.274 43.1449 110.306 43.52 109.42L52.08 90.81C52.5267 89.9622 53.167 89.2315 53.9488 88.6773C54.7306 88.1231 55.632 87.7608 56.58 87.62L75.43 85C76.3111 84.9758 77.1871 85.142 77.9982 85.4871C78.8093 85.8323 79.5364 86.3483 80.13 87V87Z" fill="white"/>
<path d="M161.28 3.32996L178.52 1.13996C179.329 1.08111 180.14 1.21442 180.887 1.52899C181.634 1.84357 182.297 2.33048 182.82 2.94996L193.13 15.37C193.584 16.0417 193.873 16.8106 193.976 17.6147C194.078 18.4189 193.991 19.2359 193.72 20L187 36C186.646 36.7307 186.124 37.3677 185.478 37.8594C184.832 38.351 184.079 38.6835 183.28 38.83L166 41.05C165.191 41.1064 164.381 40.972 163.634 40.6576C162.887 40.3432 162.225 39.8576 161.7 39.24L151.42 26.82C150.966 26.1482 150.676 25.3793 150.574 24.5752C150.471 23.771 150.559 22.954 150.83 22.19L157.56 6.18996C157.91 5.45363 158.43 4.81068 159.077 4.31362C159.723 3.81656 160.478 3.4795 161.28 3.32996V3.32996Z" fill="#6F87F6"/>
<path opacity="0.1" d="M150.83 22.19C150.559 22.9541 150.471 23.7711 150.574 24.5752C150.676 25.3794 150.966 26.1482 151.42 26.82L161.73 39.24C162.208 39.8 162.799 40.2525 163.464 40.5679C164.129 40.8833 164.854 41.0544 165.59 41.07C164.42 41.07 163.89 40.13 164.4 38.9L171.13 22.9C171.459 22.143 171.984 21.4872 172.65 21L159.08 4.29999C158.421 4.77786 157.897 5.4188 157.56 6.15999L150.83 22.19Z" fill="black"/>
<path opacity="0.4" d="M193.87 19.64C194.18 18.47 193.45 17.7 192.12 17.87L174.87 20.06C173.858 20.2394 172.924 20.7205 172.19 21.44C172.34 21.3 172.5 21.16 172.67 21.03L159.11 4.31999C159.741 3.79654 160.501 3.45129 161.31 3.31999L178.54 1.12999C179.349 1.06994 180.161 1.20165 180.91 1.51441C181.659 1.82716 182.324 2.31216 182.85 2.92999L193.16 15.35C193.58 15.972 193.86 16.6772 193.983 17.4175C194.105 18.1579 194.067 18.9159 193.87 19.64V19.64Z" fill="white"/>
<path d="M120.51 73.56L129.82 73.72C130.259 73.7435 130.686 73.8719 131.066 74.0947C131.445 74.3174 131.765 74.6278 132 75L136.51 82.37C136.707 82.7591 136.809 83.189 136.809 83.625C136.809 84.061 136.707 84.4909 136.51 84.88L131.72 92.88C131.475 93.2388 131.149 93.5352 130.769 93.7453C130.388 93.9554 129.964 94.0735 129.53 94.09L120.22 93.93C119.787 93.8992 119.367 93.7663 118.995 93.5421C118.623 93.3179 118.309 93.0087 118.08 92.64L113.57 85.27C113.372 84.8829 113.269 84.4546 113.269 84.02C113.269 83.5854 113.372 83.1571 113.57 82.77L118.36 74.77C118.6 74.4154 118.919 74.1214 119.292 73.9114C119.665 73.7014 120.082 73.5811 120.51 73.56V73.56Z" fill="#37474F"/>
<path opacity="0.4" d="M136.54 84.71C136.79 84.11 136.47 83.64 135.74 83.63L126.44 83.47C125.887 83.484 125.353 83.6692 124.91 84C125 83.9307 125.098 83.8704 125.2 83.82L119.29 73.92C119.668 73.7019 120.094 73.5816 120.53 73.57L129.83 73.73C130.266 73.7571 130.689 73.8861 131.066 74.1067C131.443 74.3273 131.763 74.6333 132 75L136.51 82.37C136.683 82.7348 136.776 83.1328 136.781 83.5367C136.786 83.9406 136.704 84.3409 136.54 84.71Z" fill="#455A64"/>
<path d="M113.53 82.76C113.332 83.1471 113.229 83.5755 113.229 84.01C113.229 84.4446 113.332 84.8729 113.53 85.26L118.04 92.63C118.25 92.9644 118.529 93.2499 118.858 93.4673C119.188 93.6846 119.56 93.8288 119.95 93.89C119.33 93.78 119.11 93.27 119.48 92.65L124.27 84.65C124.522 84.2779 124.867 83.978 125.27 83.78L119.36 73.88C118.957 74.078 118.612 74.3779 118.36 74.75L113.53 82.76Z" fill="#263238"/>
<path d="M133.073 364.593C134.281 357.152 129.227 350.141 121.786 348.933C114.345 347.725 107.333 352.778 106.125 360.219C104.917 367.661 109.971 374.672 117.412 375.88C124.853 377.088 131.865 372.035 133.073 364.593Z" fill="#6F87F6"/>
<path opacity="0.1" d="M115.79 367.3C109.29 362.59 108.79 353.3 113.84 350.01C111.62 351.041 109.719 352.65 108.334 354.668C106.949 356.686 106.133 359.04 105.97 361.482C105.807 363.924 106.304 366.364 107.408 368.549C108.513 370.733 110.184 372.58 112.247 373.897C114.31 375.213 116.689 375.951 119.135 376.032C121.582 376.114 124.005 375.536 126.151 374.36C128.297 373.183 130.087 371.452 131.335 369.346C132.582 367.24 133.24 364.837 133.24 362.39C132.72 369 122.29 372 115.79 367.3Z" fill="black"/>
<path d="M142.62 335.15L149.69 335.28C150.021 335.307 150.342 335.411 150.625 335.585C150.908 335.759 151.146 335.997 151.32 336.28L154.74 341.89C154.89 342.184 154.968 342.51 154.968 342.84C154.968 343.17 154.89 343.496 154.74 343.79L151.1 349.85C150.915 350.123 150.668 350.348 150.38 350.508C150.091 350.668 149.769 350.758 149.44 350.77L142.37 350.65C142.038 350.625 141.717 350.521 141.434 350.347C141.15 350.173 140.912 349.934 140.74 349.65L137.31 344.05C137.162 343.755 137.085 343.43 137.085 343.1C137.085 342.77 137.162 342.445 137.31 342.15L140.95 336.08C141.138 335.807 141.386 335.581 141.676 335.419C141.966 335.258 142.289 335.166 142.62 335.15Z" fill="#37474F"/>
<path opacity="0.4" d="M154.79 343.62C154.98 343.17 154.74 342.81 154.19 342.8L147.12 342.68C146.701 342.688 146.295 342.828 145.96 343.08L146.17 342.94L141.68 335.42C141.971 335.259 142.297 335.17 142.63 335.16L149.7 335.28C150.031 335.307 150.351 335.411 150.635 335.585C150.918 335.759 151.156 335.997 151.33 336.28L154.75 341.88C154.879 342.151 154.95 342.446 154.957 342.746C154.964 343.046 154.907 343.344 154.79 343.62V343.62Z" fill="#455A64"/>
<path d="M137.31 342.14C137.162 342.435 137.085 342.76 137.085 343.09C137.085 343.42 137.162 343.745 137.31 344.04L140.74 349.64C140.894 349.902 141.104 350.127 141.354 350.3C141.605 350.473 141.89 350.589 142.19 350.64C141.72 350.55 141.55 350.16 141.83 349.7L145.47 343.64C145.649 343.362 145.897 343.134 146.19 342.98L141.7 335.46C141.41 335.614 141.163 335.838 140.98 336.11L137.31 342.14Z" fill="#263238"/>
</svg>
