<?xml version="1.0"?>
<svg xmlns="http://www.w3.org/2000/svg" xmlns:xlink="http://www.w3.org/1999/xlink" xmlns:svgjs="http://svgjs.com/svgjs" version="1.1" width="512" height="512" x="0" y="0" viewBox="0 0 512 512" style="enable-background:new 0 0 512 512" xml:space="preserve" class=""><g>
<circle xmlns="http://www.w3.org/2000/svg" style="" cx="256" cy="264" r="248" fill="#cbb24e" data-original="#349f59" class=""/>
<circle xmlns="http://www.w3.org/2000/svg" style="" cx="256" cy="248" r="248" fill="#ffdf61" data-original="#3dbb69" class=""/>
<g xmlns="http://www.w3.org/2000/svg" style="opacity:0.15;">
	<polygon points="233.44,340.72 233.44,298 194.48,301.76  " fill="#7a1e1e" data-original="#000000" style="" class=""/>
	<polygon points="221.92,209.76 194.48,213.76 221.92,241.2  " fill="#7a1e1e" data-original="#000000" style="" class=""/>
	<path d="M309.6,122.24l-72,70.96l-3.2,180.48l107.12,107.2c76.768-28.288,134.688-92.552,154.88-171.84L309.6,122.24z" fill="#7a1e1e" data-original="#000000" style="" class=""/>
</g>
<path xmlns="http://www.w3.org/2000/svg" style="" d="M318.96,195.76c0.648-1.152,1.008-2.44,1.04-3.76c0-4.416-3.584-8-8-8h-20.48l19.92-53.2l0,0  c0.352-0.896,0.544-1.84,0.56-2.8c0-4.416-3.584-8-8-8h-72c-3.28,0-6.224,1.992-7.44,5.04l0,0l-32,80l0,0l0,0l0,0  c-1.632,4.104,0.368,8.76,4.472,10.392c0.944,0.376,1.952,0.568,2.968,0.568h20.56l-28.08,77.28l0,0  c-0.32,0.872-0.48,1.792-0.48,2.72c0,4.416,3.584,8,8,8h32v64c0,4.416,3.584,8,8,8c2.92-0.04,5.584-1.664,6.96-4.24l0,0l48-88l0,0  c0.648-1.152,1.008-2.44,1.04-3.76c0-4.416-3.584-8-8-8h-10.56l41.52-76.16L318.96,195.76L318.96,195.76z" fill="#ffffff" data-original="#fffcf2" class=""/>
<g xmlns="http://www.w3.org/2000/svg">
</g>
<g xmlns="http://www.w3.org/2000/svg">
</g>
<g xmlns="http://www.w3.org/2000/svg">
</g>
<g xmlns="http://www.w3.org/2000/svg">
</g>
<g xmlns="http://www.w3.org/2000/svg">
</g>
<g xmlns="http://www.w3.org/2000/svg">
</g>
<g xmlns="http://www.w3.org/2000/svg">
</g>
<g xmlns="http://www.w3.org/2000/svg">
</g>
<g xmlns="http://www.w3.org/2000/svg">
</g>
<g xmlns="http://www.w3.org/2000/svg">
</g>
<g xmlns="http://www.w3.org/2000/svg">
</g>
<g xmlns="http://www.w3.org/2000/svg">
</g>
<g xmlns="http://www.w3.org/2000/svg">
</g>
<g xmlns="http://www.w3.org/2000/svg">
</g>
<g xmlns="http://www.w3.org/2000/svg">
</g>
</g></svg>
