<svg id="Layer_5" enable-background="new 0 0 64 64" height="512" viewBox="0 0 64 64" width="512" xmlns="http://www.w3.org/2000/svg" xmlns:xlink="http://www.w3.org/1999/xlink"><linearGradient id="SVGID_1_" gradientUnits="userSpaceOnUse" x1="32" x2="32" y1="63" y2="1.005"><stop offset="0" stop-color="#9f2fff"/><stop offset="1" stop-color="#0bb1d3"/></linearGradient><path d="m32 22c-4.411 0-8 3.589-8 8s3.589 8 8 8 8-3.589 8-8-3.589-8-8-8zm0 14c-3.309 0-6-2.691-6-6s2.691-6 6-6 6 2.691 6 6-2.691 6-6 6zm0-10c-2.206 0-4 1.794-4 4s1.794 4 4 4 4-1.794 4-4-1.794-4-4-4zm0 6c-1.103 0-2-.897-2-2s.897-2 2-2 2 .897 2 2-.897 2-2 2zm-3-20c0 1.654 1.346 3 3 3s3-1.346 3-3-1.346-3-3-3-3 1.346-3 3zm4 0c0 .552-.449 1-1 1s-1-.448-1-1 .449-1 1-1 1 .448 1 1zm2.536-3.535c-.945-.944-2.201-1.465-3.536-1.465s-2.591.521-3.536 1.465l-1.414-1.414c1.323-1.322 3.08-2.051 4.95-2.051s3.627.729 4.95 2.051zm2.828-2.829c-3.51-3.51-9.219-3.51-12.729 0l-1.414-1.414c4.289-4.289 11.268-4.289 15.557 0zm-28.364 46.364c-1.654 0-3 1.346-3 3s1.346 3 3 3 3-1.346 3-3-1.346-3-3-3zm0 4c-.551 0-1-.448-1-1s.449-1 1-1 1 .448 1 1-.449 1-1 1zm0-8c1.87 0 3.627.729 4.95 2.051l-1.414 1.414c-.945-.944-2.201-1.465-3.536-1.465s-2.591.521-3.536 1.465l-1.414-1.414c1.323-1.322 3.08-2.051 4.95-2.051zm7.778-.778-1.414 1.414c-3.51-3.51-9.219-3.51-12.729 0l-1.414-1.414c4.29-4.289 11.268-4.289 15.557 0zm36.222 4.778c-1.654 0-3 1.346-3 3s1.346 3 3 3 3-1.346 3-3-1.346-3-3-3zm0 4c-.551 0-1-.448-1-1s.449-1 1-1 1 .448 1 1-.449 1-1 1zm0-8c1.87 0 3.627.729 4.95 2.051l-1.414 1.414c-.945-.944-2.201-1.465-3.536-1.465s-2.591.521-3.536 1.465l-1.414-1.414c1.323-1.322 3.08-2.051 4.95-2.051zm7.778-.778-1.414 1.414c-3.51-3.51-9.219-3.51-12.729 0l-1.414-1.414c4.29-4.289 11.268-4.289 15.557 0zm-18.778-2.222h-22v-6h-2v21c0 1.654 1.346 3 3 3h20c1.654 0 3-1.346 3-3v-21h-2zm0 2v6h-22v-6zm-1 14h-20c-.551 0-1-.448-1-1v-5h22v5c0 .552-.449 1-1 1zm-19-4h2v2h-2zm4 0h2v2h-2zm4 0h2v2h-2zm10-6h-2v-2h2zm-10 0v-2h2v2zm6 0h-2v-2h2zm10-26h7v4h-9v-2.708l-1.826-.644c-.062-.158-.127-.315-.196-.471l.836-1.749-5.244-5.242-1.748.836c-.157-.069-.314-.135-.471-.196l-.643-1.826h-7.415l-.645 1.826c-.157.062-.314.127-.471.196l-1.748-.836-5.244 5.242.836 1.749c-.069.155-.134.313-.196.471l-1.825.644v2.708h-9v-4h7v-22h-16v22h7v6h11v2.708l1.826.644c.062.158.127.315.196.471l-.836 1.749 5.244 5.242 1.748-.836c.157.069.314.135.471.196l.643 1.826h7.415l.645-1.826c.157-.062.314-.127.471-.196l1.748.836 5.244-5.242-.836-1.749c.069-.155.134-.313.196-.471l1.825-.644v-2.708h11v-6h7v-22h-16zm-44-20h12v18h-12zm40 27.292-1.392.491-.157.458c-.132.385-.292.771-.477 1.146l-.214.436.638 1.335-3.242 3.242-1.334-.639-.435.214c-.381.187-.766.347-1.146.477l-.458.156-.491 1.392h-4.585l-.491-1.393-.458-.156c-.38-.13-.765-.29-1.146-.477l-.435-.214-1.334.639-3.242-3.242.638-1.335-.214-.436c-.185-.375-.345-.761-.477-1.146l-.157-.458-1.391-.49v-4.584l1.392-.491.157-.458c.132-.385.292-.771.477-1.146l.214-.436-.638-1.335 3.242-3.242 1.334.639.435-.214c.381-.187.766-.347 1.146-.477l.458-.156.491-1.392h4.585l.491 1.393.458.156c.38.13.765.29 1.146.477l.435.214 1.334-.639 3.242 3.242-.638 1.335.214.436c.185.375.345.761.477 1.146l.157.458 1.391.49zm6-27.292h12v18h-12zm2 2h8v2h-8zm0 4h8v2h-8zm0 4h8v2h-8zm0 4h8v2h-8zm-46-12h8v2h-8zm0 4h8v2h-8zm0 4h8v2h-8zm0 4h8v2h-8z" fill="url(#SVGID_1_)"/></svg>