<?xml version="1.0" encoding="utf-8"?>
<!-- Generator: Adobe Illustrator 24.2.3, SVG Export Plug-In . SVG Version: 6.00 Build 0)  -->
<svg version="1.1" id="Layer_1" xmlns="http://www.w3.org/2000/svg" xmlns:xlink="http://www.w3.org/1999/xlink" x="0px" y="0px"
	 viewBox="0 0 775.5 775.5" style="enable-background:new 0 0 775.5 775.5;" xml:space="preserve">
<style type="text/css">
	.st0{fill:#FFFFFF;}
</style>
<g>
	<path class="st0" d="M591.91,213.44l77.87-65.32c-11.66-13.75-24.22-26.53-37.57-38.29l-66.12,77.19
		C575.24,195.17,583.86,204,591.91,213.44z"/>
	<path class="st0" d="M610.79,92.35c-15.78-11.92-32.44-22.52-49.83-31.73l-45.56,90.91c11.77,6.36,23.07,13.6,33.8,21.68
		L610.79,92.35z"/>
	<path class="st0" d="M484.23,30.39l-26.8,98.05c13.27,3.56,26.21,8.14,38.73,13.67l40.26-93.34
		C519.54,41.36,502.1,35.2,484.23,30.39z"/>
	<path class="st0" d="M731.09,249.78l-93.16,40.8c5.16,13.33,9.26,27.07,12.25,41.19l98.53-24.98
		C744.36,287.25,738.49,268.21,731.09,249.78z"/>
	<path class="st0" d="M653.93,354.12c18.26,144.39-82.6,277.93-227.23,299.16c-70.91,10.42-141.67-7.42-199.19-50.22
		s-94.92-105.43-105.33-176.36c-21.49-146.42,80.16-283.03,226.58-304.51c29.95-4.4,59.77-3.67,88.42,1.66l21.13-99.44
		c-40.24-7.78-82.18-8.97-124.3-2.79C132.14,51.24-7.99,239.57,21.63,441.44c14.35,97.8,65.92,184.14,145.22,243.15
		c64.53,48.02,141.12,73.24,220.11,73.24c18.08,0,36.29-1.32,54.5-3.99c97.79-14.35,184.14-65.92,243.15-145.22
		c58.84-79.08,83.44-176.29,69.34-273.82L653.93,354.12z"/>
	<path class="st0" d="M629.07,270.18l90.58-46.03c-4.76-9.66-9.88-19.17-15.52-28.44c-5.3-8.72-10.94-17.14-16.85-25.3l-81.47,60.74
		c4.01,5.59,7.84,11.37,11.46,17.32C621.56,255.54,625.47,262.79,629.07,270.18z"/>
</g>
</svg>
