<svg id="Capa_1" enable-background="new 0 0 512 512" height="512" viewBox="0 0 512 512" width="512" xmlns="http://www.w3.org/2000/svg"><g><g><g><path d="m407 239.95c-39.214-21.784-53.967-53.616-57.299-57.9h-244.701l-105 105v60l105 105h272l105-105v-187.8c-21.751 27.101-34.123 57.343-75 80.7z" fill="#91e6a9"/></g></g><path d="m407 239.95c-39.214-21.784-53.967-53.617-57.299-57.9h-107.701v270h135l105-105v-187.8c-21.751 27.101-34.124 57.343-75 80.7z" fill="#3dccb4"/><g id="Ransomware_1_"><g><path d="m242 392.05c-49.629 0-90-33.647-90-75s40.371-75 90-75 90 33.647 90 75-40.371 75-90 75z" fill="#f0f7ff"/></g><path d="m105 182.05v45c0 32.999-27.001 60-60 60h-45v-105z" fill="#3dccb4"/><path d="m105 407.05v45h-105v-105h45c32.999 0 60 27.001 60 60z" fill="#3dccb4"/><path d="m482 347.05v105h-105v-45c0-32.999 27.001-60 60-60z" fill="#149084"/></g><path d="m512 92.05v19.501c0 64.799-32.999 126.299-105 162.299-71.4-35.7-105-96.899-105-162.299v-19.501h15c50.099 0 84.6-28.5 90-32.1 19.987 10.144 44.162 32.1 90 32.1z" fill="#f0f7ff"/><path d="m512 92.05v19.501c0 64.799-32.999 126.299-105 162.299v-213.9c19.987 10.144 44.162 32.1 90 32.1z" fill="#c7cfe1"/><path d="m332.322 121.318c3.267 49.819 31.084 94.146 74.678 118.755 43.594-24.609 71.411-68.936 74.678-118.755-21.006-2.007-47.505-8.658-74.678-26.118-27.144 17.46-53.657 24.111-74.678 26.118z" fill="#7ed8f6"/><path d="m481.678 121.318c-21.006-2.007-47.505-8.658-74.678-26.118v144.873c43.594-24.61 71.411-68.936 74.678-118.755z" fill="#4895ff"/><path d="m332 317.05c0-41.353-40.371-75-90-75v150c49.629 0 90-33.647 90-75z" fill="#dfe7f4"/></g></svg>