<svg xmlns="http://www.w3.org/2000/svg" viewBox="0 0 500 500"><!--Online World--><g id="freepik--World--inject-1--inject-115"><g id="freepik--world--inject-1--inject-115"><path d="M319.91,143.1a74.33,74.33,0,1,1-52.3-44.81A74.31,74.31,0,0,1,319.91,143.1Z" style="fill:#455a64"></path><path d="M242,107.29c-3.4.06-7.76,1.26-4.6,3.19s5.17,2.12,5.2,4.62-1.61,5.14-.81,6.92,2.13,3.85,3.43,3.25,4.83-4.55,6.85-4.37,8.9.49,9.9-1.76,2-2.1,3.66-4.6,1.56-5.83-.45-5.85-2.28.85-5.64.6-4.92-2.46-8.19-1.88S244.51,107.25,242,107.29Z" style="fill:#6F87F6"></path><path d="M229.37,108.18c-3.85,2.06-12,5.17-15.73,4.12-1.87-.53-4.09-1.27-6.46-1.71A74.51,74.51,0,0,0,178.43,154a24.59,24.59,0,0,0,3.36,5.2c2.94,3.45,6,3.89,9.71,4.61s2.56,2.82,4.39,5,2.62,3.48,4.71,4.66-.74,3.39-1.56,5.8-1.06,3.76.66,8.64,6.7,8.86,8.18,10.75-1,4.09-.39,8,.44,14.49,4.24,20.4,6.08,5.23,5.77,1.24-1.59-7.76.71-10.76,7-2.2,8.58-7.68,2.61-5.21,5.15-7.07,1.4-3.46,3.76-7.69,3.05-8.22-.44-10-5.79-1.56-8.79-5.68a38.42,38.42,0,0,0-12-10.45c-4.32-2.34-11.18.52-13.92-.28s-4.48-6-4.3-8-1.86-2.54-3.83-2.05-3.07-.76-3.61-3.4,3.56-6,6.89-6.22,5.11,1.29,5.77,5.58a8.35,8.35,0,0,0,6.57,7.19c3.07.77,1.15-2.42-1-4.6s-2.33-4.17-.69-9,5.68-4.45,8.69-8.87,3.59-1.1,6.63-.66,2.59-1.2,3.71-4,5-.38,8.16-2.63-3.45-5.76-3-8.8,3.46-2.93,1.78-7.49.64-4.73,1.84-6.43S233.23,106.12,229.37,108.18Zm-4.5,11.12c-1,2.25-1.86,1.82-3.51,4.28a9.3,9.3,0,0,1-5.88,4c-1.66.2-4.39-2.75-4.53-4.58s2.49-2.37,5.47-2.75a16.7,16.7,0,0,0,8.24-3.81C226.8,114.8,225.88,117.06,224.87,119.3Z" style="fill:#6F87F6"></path><path d="M325,165.07v.21a5.25,5.25,0,0,0-2.94,2.92c-1.69,4.15-2,2.33-6,5.15s-2.45,5-2.24,7.85-4.38,6-6.65,7-3.28,7.44-2.53,10.57-3,4.4-5.3,7.25-3.6,7.63-5.1,9.92a7,7,0,0,1-6.93,3.21c-2.72-.46-5.24-5-6.7-8.86a22.68,22.68,0,0,1-1.12-12.45c.85-4.24.55-3.71-.46-10.33a10.56,10.56,0,0,0-8.23-9.23c-2.56-.64-6.79.85-9.07-.48s-3.25-3.26-4.74-9.49,1.6-7.65,4-11a23.24,23.24,0,0,1,11.42-8.07,12.57,12.57,0,0,1,9.78,1.26c2.61,1.3,3.84,4.22,5.7,4.42s3.45-.77,5.31-.41,3.11,1.27,4.92,1,.66-2.39.4-3.54-1.9-.86-4.08-.88-2.72-.61-3.49-2.06-2-.17-3.07-.76-.85,2.07-.94,3.1-.89-.79-.89-.79-.9,1.41-1.29.76.51-2.2.38-3.8-2.43-1.22-3.87-2.45a5.5,5.5,0,0,0-5.4-.75c-2,.65-2.32.18-3.19,1.91s-5.14,2.9-6.49,2.67-.4-3,.76-5.4,3.55-1.62,5-4.07-.55-2.8-1.92-3.19-1.8-1.71-.37-4.83,3.33-2.26,4.12-.82a4.81,4.81,0,0,0,4.35,2.18c1.83,0,1.4-1.27,1.36-4s1.19-4.1,3.62-5.12,6.49-2.67,8-4.13,4.31-.5,5.76,1.07,4.68,2.15,8.07,2.72a2.79,2.79,0,0,0,2.4-.79A74,74,0,0,1,325,165.07Z" style="fill:#6F87F6"></path><path d="M311.09,201.65c-1.81-.31-1.65.29-2.71,1.71s-2.61,3-2.33,4.52.42,3.31,1.67,2.22.82-2.41,2.6-3.21S313.8,202.11,311.09,201.65Z" style="fill:#6F87F6"></path><path d="M270.26,104.85c-47.33-13.67-56.17,18.6-31.08,38.93s68.08,27,73.87,13.63S305.45,115,270.26,104.85Z" style="fill:#fff;opacity:0.4;mix-blend-mode:soft-light"></path><path d="M230.75,208c-36.79-30.18-35.64-88.78-3.4-107.72h0c-1.36.46-2.72.94-4.07,1.48a74.32,74.32,0,1,0,96.17,97.7C309.06,213.83,267.51,238.12,230.75,208Z" style="opacity:0.05;mix-blend-mode:multiply"></path></g><g id="freepik--Icons--inject-1--inject-115"><g id="freepik--Contact--inject-1--inject-115"><path d="M423.08,101.12c-2.48-1.44-5.91-1.23-9.69.95-7.56,4.37-13.69,15-13.69,23.72,0,4.38,1.54,7.46,4,8.88l4.82,2.8c2.48,1.43,5.9,1.23,9.68-1,7.57-4.36,13.7-15,13.7-23.72,0-4.36-1.53-7.43-4-8.86" style="fill:#6F87F6"></path><path d="M418.24,104.88c-7.56,4.37-13.69,15-13.69,23.73s6.13,12.27,13.69,7.9,13.71-15,13.7-23.72S425.8,100.52,418.24,104.88Z" style="fill:#6F87F6"></path><path d="M425.8,124.26v1a21.94,21.94,0,0,1-7.56,7.92c-2.94,1.7-5.61,1.88-7.56.8v-2.06a13.47,13.47,0,0,1,6.16-10.68l2-1.15c1.77-1,3.48-1.15,4.82-.37S425.8,122.16,425.8,124.26Z" style="fill:#6F87F6"></path><path d="M423.08,101.12l4.85,2.81c-2.48-1.44-5.9-1.23-9.69.95-4.95,2.87-9.29,8.41-11.69,14.35l-4.86-2.82c2.41-5.94,6.75-11.48,11.7-14.34C417.17,99.89,420.6,99.68,423.08,101.12Z" style="fill:#fff;opacity:0.4"></path><path d="M408.38,137.36l-4.64-2.69c-2.5-1.42-4-4.5-4-8.88l4.85,2.82C404.55,132.86,406,135.89,408.38,137.36Z" style="opacity:0.2"></path><path d="M401.69,116.41l4.86,2.82a25.36,25.36,0,0,0-2,9.38h0l-4.85-2.82A25.58,25.58,0,0,1,401.69,116.41Z" style="opacity:0.1"></path><path d="M416.52,119.63a2.65,2.65,0,0,1-1.32-.34,3.25,3.25,0,0,1-1.43-3,8.52,8.52,0,0,1,3.92-6.77h0a2.92,2.92,0,0,1,4.71,2.73,8.51,8.51,0,0,1-3.91,6.77A4,4,0,0,1,416.52,119.63Z" style="fill:#fff"></path><path d="M423.65,119.72c-1.34-.78-3-.64-4.82.37l-2,1.15a13.47,13.47,0,0,0-6.16,10.68V134c1.95,1.08,4.62.9,7.56-.8a21.94,21.94,0,0,0,7.56-7.92v-1C425.8,122.16,425,120.51,423.65,119.72Z" style="fill:#fff"></path></g><g id="freepik--Twitter--inject-1--inject-115"><path d="M352.78,219.16a24.25,24.25,0,0,0,2.13-10.07,18.94,18.94,0,0,0,1.74-3.42,12.61,12.61,0,0,1-2,1.89,9.24,9.24,0,0,0,1.53-3.46,13.21,13.21,0,0,1-2.22,2.41,2.13,2.13,0,0,0-2.54,0,8.26,8.26,0,0,0-3.4,7.68c-2.9,1.48-5.47,1.11-7.19-.71-.92,2.62-.48,5.1,1.08,5.59a2.59,2.59,0,0,1-1.58.33c0,2.17,1.12,3.52,2.79,3a4.32,4.32,0,0,1-1.57,1,2.06,2.06,0,0,0,3.26,1.35,12.1,12.1,0,0,1-5.17,4.91,7,7,0,0,0,5.35-1c3.45-2,6.1-5.59,7.79-9.49" style="fill:#6F87F6"></path></g><g id="freepik--Instagram--inject-1--inject-115"><path d="M86.54,206.57c2.48-1.43,5.9-1.23,9.69,1,7.56,4.37,13.69,15,13.69,23.73,0,4.38-1.55,7.45-4,8.87l-4.83,2.8c-2.47,1.43-5.9,1.23-9.68-.95-7.56-4.37-13.69-15-13.69-23.73,0-4.36,1.53-7.43,4-8.86" style="fill:#6F87F6"></path><path d="M91.37,210.34c7.56,4.37,13.7,15,13.7,23.72s-6.14,12.27-13.7,7.91-13.7-15-13.69-23.73S83.82,206,91.37,210.34Z" style="fill:#6F87F6"></path><path d="M90.4,221.64c-1.68-1-3,.06-3,2.3a7.28,7.28,0,0,0,3,5.81c1.68,1,3-.06,3-2.3A7.28,7.28,0,0,0,90.4,221.64Zm0,6.69a4.73,4.73,0,0,1-2-3.78c0-1.45.88-2.12,2-1.49a4.74,4.74,0,0,1,2,3.77C92.38,228.29,91.49,229,90.4,228.33Z" style="fill:#fff"></path><path d="M94.87,223.28c0,.53-.32.77-.71.54a1.69,1.69,0,0,1-.72-1.36c0-.52.32-.76.72-.53a1.69,1.69,0,0,1,.71,1.35" style="fill:#fff"></path><path d="M96.1,219.66l-10.55-6.1c-.75-.43-1.35,0-1.35,1v14.07a3.21,3.21,0,0,0,1.35,2.57l3.78,2.19,3.14,1.81,3.63,2.09c.74.43,1.35,0,1.35-1V222.23A3.22,3.22,0,0,0,96.1,219.66Zm0,15.93-10.08-5.82a1.1,1.1,0,0,1-.54-.94V215.29l10.08,5.82a1.07,1.07,0,0,1,.54.94Z" style="fill:#fff"></path><path d="M86.54,206.57l-4.85,2.81c2.48-1.43,5.9-1.23,9.68,1,4.95,2.86,9.29,8.4,11.7,14.34l4.85-2.82c-2.4-5.93-6.74-11.48-11.69-14.34C92.44,205.34,89,205.14,86.54,206.57Z" style="fill:#fff;opacity:0.4"></path><path d="M101.24,242.82l4.64-2.7c2.49-1.42,4-4.49,4-8.87l-4.85,2.81C105.06,238.32,103.6,241.34,101.24,242.82Z" style="opacity:0.2"></path><path d="M107.92,221.86l-4.85,2.82a25.4,25.4,0,0,1,2,9.38h0l4.85-2.81A25.41,25.41,0,0,0,107.92,221.86Z" style="opacity:0.1"></path></g><g id="freepik--Facebook--inject-1--inject-115"><path d="M345.79,34c-2.47-1.44-5.9-1.23-9.68.95-7.57,4.37-13.7,15-13.7,23.72,0,4.39,1.55,7.46,4,8.88l4.83,2.8c2.48,1.43,5.9,1.23,9.68-.95,7.56-4.37,13.7-15,13.7-23.73,0-4.36-1.54-7.43-4-8.86" style="fill:#6F87F6"></path><path d="M341,37.8c-7.56,4.37-13.69,15-13.69,23.72S333.4,73.79,341,69.43s13.7-15,13.7-23.73S348.52,33.43,341,37.8Z" style="fill:#6F87F6"></path><path d="M345.79,34l4.86,2.81c-2.48-1.43-5.91-1.23-9.69,1-4.95,2.86-9.29,8.4-11.7,14.34l-4.85-2.82c2.41-5.93,6.74-11.48,11.7-14.34C339.89,32.8,343.32,32.59,345.79,34Z" style="fill:#fff;opacity:0.4"></path><path d="M331.1,70.28l-4.65-2.7c-2.49-1.42-4-4.49-4-8.87l4.86,2.81C327.27,65.78,328.73,68.8,331.1,70.28Z" style="opacity:0.2"></path><path d="M324.41,49.32l4.85,2.82a25.58,25.58,0,0,0-2,9.38h0l-4.86-2.81A25.41,25.41,0,0,1,324.41,49.32Z" style="opacity:0.1"></path><g id="freepik--facebook--inject-1--inject-115"><path d="M338.78,66.93l3.48-2V53.28l2.43-1.4.26-4-2.69,1.55V47.17c0-.92.14-1.36.81-1.74L345,44.34V40.29l-2.41,1.4a7.07,7.07,0,0,0-3.76,6.61v3.1L337,52.45v3.94l1.81-1Z" style="fill:#fff"></path></g></g><g id="freepik--Like--inject-1--inject-115"><path d="M306.39,270.49c-2.47-1.44-5.9-1.23-9.68.95-7.57,4.37-13.7,15-13.7,23.72,0,4.39,1.55,7.46,4,8.88l4.83,2.8c2.48,1.43,5.9,1.23,9.68-1,7.56-4.36,13.7-15,13.7-23.72,0-4.36-1.54-7.43-4-8.86" style="fill:#6F87F6"></path><path d="M301.56,274.26c-7.56,4.36-13.69,15-13.69,23.72s6.13,12.27,13.69,7.9,13.7-15,13.7-23.72S309.12,269.89,301.56,274.26Z" style="fill:#6F87F6"></path><path d="M306.39,270.49l4.86,2.81c-2.48-1.43-5.91-1.23-9.69.95-4.95,2.87-9.29,8.41-11.7,14.35L285,285.78c2.41-5.94,6.74-11.48,11.7-14.34C300.49,269.26,303.92,269.05,306.39,270.49Z" style="fill:#fff;opacity:0.4"></path><path d="M291.7,306.73,287.05,304c-2.49-1.42-4-4.49-4-8.88l4.86,2.82C287.87,302.24,289.33,305.26,291.7,306.73Z" style="opacity:0.2"></path><path d="M285,285.78l4.85,2.82a25.54,25.54,0,0,0-2,9.38h0L283,295.16A25.4,25.4,0,0,1,285,285.78Z" style="opacity:0.1"></path><path d="M298.38,289.25s2.22-5.1,2.43-5.84a22.76,22.76,0,0,0,0-3.8c0-.49,2-1.85,2.67-.45a7.41,7.41,0,0,1,.34,4.72l4.92-2.87c1-.61,1.47.25,1.47.92a3.73,3.73,0,0,1-.79,2.12s1-.3,1,1a3.46,3.46,0,0,1-1.19,2.41s.32.25.33,1.17a3.92,3.92,0,0,1-1.38,2.46,3,3,0,0,1,.22,1.16,3.78,3.78,0,0,1-1.8,2.83l-8.14,4.75Z" style="fill:#fff"></path><polygon points="293.71 304.03 297.26 301.96 297.21 289.63 293.66 291.69 293.71 304.03" style="fill:#fff"></polygon></g><g id="freepik--Heart--inject-1--inject-115"><path d="M136.68,143.91l2.26-.18c3-.24,6.53-1.41,6.53-5.67a10,10,0,0,0-4.52-7.83c-1.95-1.12-3.61-.66-4.25,1a10,10,0,0,0-4.24-5.86c-2.5-1.44-4.52-.27-4.52,2.61,0,4.18,3.53,9.46,6.49,13.16Z" style="fill:#6F87F6"></path></g><g id="freepik--Play--inject-1--inject-115"><path d="M189.32,267.54c2.48-1.43,5.9-1.23,9.69,1,7.56,4.37,13.69,15,13.69,23.72,0,4.38-1.55,7.45-4,8.88l-4.83,2.8c-2.47,1.43-5.9,1.22-9.68-1-7.56-4.37-13.69-15-13.69-23.72,0-4.37,1.53-7.43,4-8.86" style="fill:#6F87F6"></path><path d="M194.15,271.31c7.57,4.37,13.7,15,13.7,23.72s-6.14,12.28-13.7,7.91-13.7-15-13.69-23.72S186.6,267,194.15,271.31Z" style="fill:#6F87F6"></path><path d="M189.32,267.54l-4.85,2.82c2.48-1.44,5.9-1.23,9.68.95,4.95,2.86,9.29,8.41,11.7,14.34l4.85-2.81C208.3,276.9,204,271.36,199,268.5,195.22,266.31,191.8,266.11,189.32,267.54Z" style="fill:#fff;opacity:0.4"></path><path d="M204,303.79l4.64-2.69c2.49-1.43,4-4.5,4-8.88L207.85,295C207.84,299.29,206.38,302.32,204,303.79Z" style="opacity:0.2"></path><path d="M210.7,282.84l-4.85,2.81a25.4,25.4,0,0,1,2,9.38h0l4.85-2.82A25.4,25.4,0,0,0,210.7,282.84Z" style="opacity:0.1"></path><path d="M189.84,278.43V291.7c0,1,.39,1.72.88,1.63l9.19-1.77c.48-.1.28-1-.47-2l-8.25-11.12C190.44,277.45,189.84,277.44,189.84,278.43Z" style="fill:#fff"></path></g><g id="freepik--Music--inject-1--inject-115"><path d="M78.34,94.18c2.48-1.44,5.9-1.23,9.69.95,7.56,4.37,13.69,15,13.69,23.72,0,4.39-1.54,7.46-4,8.88l-4.82,2.8c-2.48,1.43-5.9,1.23-9.69-1-7.56-4.36-13.69-15-13.69-23.72,0-4.36,1.53-7.43,4-8.86" style="fill:#6F87F6"></path><path d="M83.18,98c7.56,4.37,13.69,15,13.69,23.72s-6.13,12.27-13.7,7.9-13.7-15-13.69-23.72S75.62,93.58,83.18,98Z" style="fill:#6F87F6"></path><path d="M78.34,94.18,73.49,97c2.48-1.43,5.9-1.23,9.68,1,5,2.86,9.3,8.4,11.7,14.34l4.85-2.82C97.32,103.53,93,98,88,95.13,84.24,93,80.82,92.74,78.34,94.18Z" style="fill:#fff;opacity:0.4"></path><path d="M93,130.42l4.64-2.69c2.5-1.42,4-4.49,4-8.88l-4.85,2.82C96.87,125.93,95.41,129,93,130.42Z" style="opacity:0.2"></path><path d="M99.72,109.47l-4.85,2.82a25.4,25.4,0,0,1,2,9.38h0l4.85-2.82A25.4,25.4,0,0,0,99.72,109.47Z" style="opacity:0.1"></path><path d="M80,102.05v13.6a4.7,4.7,0,0,0-.9-.69c-1-.6-1.87.21-1.87,1.8a4.91,4.91,0,0,0,1.87,3.95c1,.6,2.27,0,2.27-1.58V106.66l6,3.52v9.76a5.14,5.14,0,0,0-.9-.69c-1-.6-1.53.39-1.53,2a4.93,4.93,0,0,0,1.87,4c1,.6,1.87-.21,1.87-1.8h0v-16.3Z" style="fill:#fff"></path></g><g id="freepik--Image--inject-1--inject-115"><path d="M416.87,212.34c-2.48-1.43-5.91-1.23-9.69,1-7.56,4.37-13.69,15-13.69,23.72,0,4.38,1.54,7.45,4,8.88l4.82,2.8c2.48,1.43,5.9,1.22,9.68-1,7.57-4.37,13.7-15,13.7-23.72,0-4.37-1.53-7.43-4-8.86" style="fill:#6F87F6"></path><path d="M412,216.11c-7.56,4.37-13.69,15-13.69,23.72s6.13,12.28,13.69,7.91,13.71-15,13.7-23.72S419.59,211.75,412,216.11Z" style="fill:#6F87F6"></path><path d="M416.87,212.34l4.85,2.82c-2.48-1.44-5.9-1.23-9.69,1-4.95,2.86-9.29,8.41-11.69,14.34l-4.86-2.81c2.41-5.94,6.75-11.48,11.7-14.34C411,211.11,414.39,210.91,416.87,212.34Z" style="fill:#fff;opacity:0.4"></path><path d="M402.17,248.59l-4.64-2.69c-2.5-1.43-4-4.5-4-8.88l4.85,2.82C398.34,244.09,399.8,247.12,402.17,248.59Z" style="opacity:0.2"></path><path d="M395.48,227.64l4.86,2.81a25.4,25.4,0,0,0-2,9.38h0L393.49,237A25.58,25.58,0,0,1,395.48,227.64Z" style="opacity:0.1"></path><path d="M405.19,227.28v17.2c0,.52.36.73.81.47l12.07-7a1.79,1.79,0,0,0,.81-1.4V219.37c0-.51-.36-.72-.81-.47l-12.07,7A1.76,1.76,0,0,0,405.19,227.28Zm12.12,10-10.55,6.1c-.45.25-.81,0-.81-.47V228a1.78,1.78,0,0,1,.81-1.4l10.55-6.09c.45-.26.81-.05.81.46v14.87A1.76,1.76,0,0,1,417.31,237.24Z" style="fill:#fff"></path><polygon points="405.95 243.8 405.95 238.96 409.79 231.59 413.78 235.97 412.92 233.85 414.5 230.94 418.12 233.42 418.12 236.78 405.95 243.8" style="fill:#fff"></polygon><path d="M415.1,224.94c.48-.28.88.1.88.85a2.34,2.34,0,0,1-.88,1.86c-.49.28-.88-.1-.88-.85A2.3,2.3,0,0,1,415.1,224.94Z" style="fill:#fff"></path></g><g id="freepik--speach-bubble--inject-1--inject-115"><path d="M169.48,74.73l-2.71-5.09L169,63.36V59.51l-6.67,3.85V67.2l2.87,5a.41.41,0,0,0,.2.17h0Z" style="fill:#6F87F6"></path><path d="M169.48,74.73l-2.71-5.09L169,63.36V59.51l-6.67,3.85V67.2l2.87,5a.41.41,0,0,0,.2.17h0Z" style="opacity:0.2"></path><path d="M198.14,29.53a4.44,4.44,0,0,0-2-3.46l-1.63-.94a4.41,4.41,0,0,0-4,0L152.82,46.91a4.4,4.4,0,0,0-2,3.46V69.86a4.41,4.41,0,0,0,2,3.47l1.63.94a4.45,4.45,0,0,0,4,0l8-4.64,2.86,5a.42.42,0,0,0,.77-.07l3-8.73,23-13.29a4.44,4.44,0,0,0,2-3.46Z" style="fill:#6F87F6"></path><path d="M150.82,69.86a4.41,4.41,0,0,0,2,3.47l1.63.94a4.5,4.5,0,0,0,3.65.16c-.94.35-1.66-.18-1.66-1.32V53.62a4.08,4.08,0,0,1,.59-2l-5.62-3.25a4,4,0,0,0-.59,2Z" style="opacity:0.2"></path><path d="M198.07,29c-.23-.85-1-1.12-1.93-.59l-37.7,21.79A3.91,3.91,0,0,0,157,51.65l-5.62-3.25a4.14,4.14,0,0,1,1.41-1.49l37.69-21.78a4.47,4.47,0,0,1,4,0l1.63.94A4.39,4.39,0,0,1,198.07,29Z" style="fill:#fff;opacity:0.2"></path><path d="M167.46,53.93a5.88,5.88,0,0,0-2.67,4.62c0,1.7,1.19,2.39,2.67,1.54a5.9,5.9,0,0,0,2.66-4.62C170.12,53.77,168.93,53.08,167.46,53.93Z" style="fill:#fff"></path><path d="M177.29,48.24a5.91,5.91,0,0,0-2.67,4.62c0,1.7,1.2,2.39,2.67,1.54A5.91,5.91,0,0,0,180,49.78C180,48.08,178.76,47.39,177.29,48.24Z" style="fill:#fff"></path><path d="M187.13,42.55a5.88,5.88,0,0,0-2.67,4.62c0,1.7,1.19,2.39,2.67,1.54a5.9,5.9,0,0,0,2.66-4.62C189.79,42.39,188.6,41.7,187.13,42.55Z" style="fill:#fff"></path></g><g id="freepik--Letter--inject-1--inject-115"><path d="M352.62,141.21l17.31-10a1.46,1.46,0,0,0,.59-1.15V114.5c0-.44-.26-.64-.59-.45l-17.31,10a1.43,1.43,0,0,0-.6,1.14v15.58C352,141.2,352.29,141.4,352.62,141.21Z" style="fill:#6F87F6"></path><path d="M352,140.76v-.31l7.16-11.86-7.06-3.91a.5.5,0,0,1,.05-.13l8.8,3.67c.18.08.42-.06.61-.36l8.79-13.8a.12.12,0,0,1,.05,0l-7.05,12.06,7.15,3.6v.3a1.59,1.59,0,0,1-.18.71l-7.33-4-1,1.78c-.42.7-1,1-1.39.8l-1-.58-7.32,12.44A.55.55,0,0,1,352,140.76Z" style="fill:#fff"></path></g><g id="freepik--Money--inject-1--inject-115"><path d="M156,204.87a11.31,11.31,0,0,1,1.44,1.82,15.57,15.57,0,0,1,1.11,2.09,14.12,14.12,0,0,1,.72,2.1,8.64,8.64,0,0,1,.29,1.86.62.62,0,0,1-.12.42.19.19,0,0,1-.26.06l-2.31-1.34a1.16,1.16,0,0,1-.4-.36,3.71,3.71,0,0,1-.31-.55l-.17-.41a4.28,4.28,0,0,0-.32-.65,4.76,4.76,0,0,0-.54-.71,3,3,0,0,0-.77-.62,3.71,3.71,0,0,0-.65-.3,1.1,1.1,0,0,0-.55-.06.54.54,0,0,0-.39.26,1.28,1.28,0,0,0-.15.7,2.34,2.34,0,0,0,.17.88,3.69,3.69,0,0,0,.57.91,10.19,10.19,0,0,0,1,1.12c.44.42,1,.94,1.63,1.54a16,16,0,0,1,1.69,1.86,10.06,10.06,0,0,1,1.21,2,10.29,10.29,0,0,1,.73,2.3,14.12,14.12,0,0,1,.24,2.7,8.25,8.25,0,0,1-.28,2.26,3.84,3.84,0,0,1-.8,1.49,2.25,2.25,0,0,1-1.24.7,3.38,3.38,0,0,1-1.59-.1v2.23a.8.8,0,0,1-.14.51.23.23,0,0,1-.34.06l-2.31-1.34a.9.9,0,0,1-.34-.44,1.8,1.8,0,0,1-.14-.68v-2.33A10.75,10.75,0,0,1,151.2,223a15.36,15.36,0,0,1-1.17-2.14,13.09,13.09,0,0,1-.75-2.21,10.12,10.12,0,0,1-.28-2.09.68.68,0,0,1,.11-.42.2.2,0,0,1,.26-.06l2.32,1.34a1.42,1.42,0,0,1,.39.33,4.27,4.27,0,0,1,.28.5c0,.11.12.28.21.53a6.24,6.24,0,0,0,.38.8,5.15,5.15,0,0,0,.6.86,3.23,3.23,0,0,0,.89.74,3.36,3.36,0,0,0,1.57.54c.42,0,.63-.31.63-.94a2.05,2.05,0,0,0-.23-.92,6,6,0,0,0-.69-1c-.31-.35-.7-.75-1.18-1.2s-1-1-1.69-1.6a10.9,10.9,0,0,1-2.66-3.85,12.84,12.84,0,0,1-.84-4.8,8.06,8.06,0,0,1,.23-2,4.55,4.55,0,0,1,.67-1.49,2.38,2.38,0,0,1,1.06-.86,2.64,2.64,0,0,1,1.42-.16v-2.32a.83.83,0,0,1,.14-.52.25.25,0,0,1,.34-.06l2.31,1.34a.93.93,0,0,1,.34.45,1.75,1.75,0,0,1,.14.67Z" style="fill:#6F87F6"></path></g><g id="freepik--Pin--inject-1--inject-115"><path d="M262.62,42.81,259.43,41h0c-1.51-1-3.62-1-6,.37-4.63,2.67-8.37,9.45-8.37,15.14v1.29c0,5.69,7.65,11.88,7.65,11.88l3.13,1.77s-1.88-2.14-1.67-2.58c2-4.21,7.63-16.09,7.63-20.73v-1.3a10.19,10.19,0,0,0-.36-2.78l.36.21Zm-9.14,13c-2.31,1.33-4.19.25-4.19-2.42,1.25-.19,4.38-5.53,4.19-7.25,2.31-1.33,4.18-.25,4.18,2.42A9.26,9.26,0,0,1,253.48,55.86Z" style="fill:#6F87F6"></path><g style="opacity:0.2"><path d="M262.62,42.81,259.43,41h0c-1.51-1-3.62-1-6,.37-4.63,2.67-8.37,9.45-8.37,15.14v1.29c0,5.69,7.65,11.88,7.65,11.88l3.13,1.77s-1.88-2.14-1.67-2.58c2-4.21,7.63-16.09,7.63-20.73v-1.3a10.19,10.19,0,0,0-.36-2.78l.36.21Zm-9.14,13c-2.31,1.33-4.19.25-4.19-2.42,1.25-.19,4.38-5.53,4.19-7.25,2.31-1.33,4.18-.25,4.18,2.42A9.26,9.26,0,0,1,253.48,55.86Z"></path></g><path d="M265.2,48.76c0-5.69-3.75-8.14-8.37-5.47s-8.38,9.45-8.38,15.14v1.3c0,4.38,5,9.46,7.25,11.57a1.13,1.13,0,0,0,1.78-.33c2-4,7.72-16.2,7.72-20.91Zm-8.37,9c-2.32,1.34-4.19.26-4.19-2.41a9.23,9.23,0,0,1,4.19-7.25c2.31-1.34,4.18-.26,4.18,2.41A9.24,9.24,0,0,1,256.83,57.79Z" style="fill:#6F87F6"></path></g></g><g id="freepik--Lines--inject-1--inject-115" style="opacity:0.8"><path d="M411.21,107.57a.38.38,0,0,1-.24-.09L349.16,57.19a.37.37,0,1,1,.47-.58l61.82,50.3a.37.37,0,0,1-.24.66Z" style="fill:#6F87F6"></path><path d="M410.16,214.37h0a.38.38,0,0,1-.35-.39l3.61-78.28a.38.38,0,0,1,.39-.36.38.38,0,0,1,.36.39L410.53,214A.37.37,0,0,1,410.16,214.37Z" style="fill:#6F87F6"></path><path d="M404.6,219.17a.35.35,0,0,1-.33-.2l-40.93-77a.38.38,0,0,1,.16-.5.37.37,0,0,1,.5.15l40.92,77a.36.36,0,0,1-.15.5A.37.37,0,0,1,404.6,219.17Z" style="fill:#6F87F6"></path><path d="M373.39,122.35a.36.36,0,0,1-.36-.3.38.38,0,0,1,.29-.44L404,115.53a.36.36,0,0,1,.43.29.38.38,0,0,1-.29.44l-30.64,6.08Z" style="fill:#6F87F6"></path><path d="M357.61,116.78a.37.37,0,0,1-.34-.22L337.19,70.42a.37.37,0,0,1,.19-.49.37.37,0,0,1,.49.2L358,116.26a.36.36,0,0,1-.19.49A.4.4,0,0,1,357.61,116.78Z" style="fill:#6F87F6"></path><path d="M265.38,56.21a.38.38,0,0,1-.37-.31.36.36,0,0,1,.31-.43L331,44.72a.37.37,0,0,1,.42.31.37.37,0,0,1-.3.43L265.44,56.2Z" style="fill:#6F87F6"></path><path d="M352.81,119.83a.41.41,0,0,1-.2-.06L264.54,63.26a.37.37,0,1,1,.41-.62L353,119.15a.37.37,0,0,1-.21.68Z" style="fill:#6F87F6"></path><path d="M352.46,202.16h0a.38.38,0,0,1-.33-.42l6.75-60a.37.37,0,0,1,.42-.33.36.36,0,0,1,.32.41l-6.75,60A.37.37,0,0,1,352.46,202.16Z" style="fill:#6F87F6"></path><path d="M312.22,287.89a.37.37,0,0,1-.32-.19.37.37,0,0,1,.13-.51l84-48.9a.37.37,0,0,1,.51.13.37.37,0,0,1-.14.51l-84,48.91A.45.45,0,0,1,312.22,287.89Z" style="fill:#6F87F6"></path><path d="M397.83,229.37h-.11l-39.41-11.47a.38.38,0,0,1-.25-.46.37.37,0,0,1,.46-.26l39.41,11.47a.38.38,0,0,1,.26.46A.38.38,0,0,1,397.83,229.37Z" style="fill:#6F87F6"></path><path d="M311.25,273.67a.39.39,0,0,1-.23-.07.38.38,0,0,1-.07-.52l29.79-40a.37.37,0,0,1,.52-.08.38.38,0,0,1,.08.53l-29.79,40A.38.38,0,0,1,311.25,273.67Z" style="fill:#6F87F6"></path><path d="M195.5,269.82a.35.35,0,0,1-.29-.15L162.36,227.6a.37.37,0,1,1,.58-.46l32.86,42.07a.38.38,0,0,1-.3.61Z" style="fill:#6F87F6"></path><path d="M106.49,228.8a.38.38,0,0,1-.34-.23.37.37,0,0,1,.21-.49L142,213.89a.38.38,0,0,1,.28.7l-35.62,14.19Z" style="fill:#6F87F6"></path><path d="M151.52,194.67a.36.36,0,0,1-.36-.28l-10.89-44.67a.37.37,0,0,1,.27-.45.38.38,0,0,1,.45.28l10.89,44.66a.37.37,0,0,1-.27.45Z" style="fill:#6F87F6"></path><path d="M96.17,211.23a.35.35,0,0,1-.17,0,.37.37,0,0,1-.16-.5l34-67.79a.38.38,0,0,1,.5-.17.39.39,0,0,1,.17.51L96.5,211A.35.35,0,0,1,96.17,211.23Z" style="fill:#6F87F6"></path><path d="M91.37,208.84a.37.37,0,0,1-.37-.34l-7.75-81a.37.37,0,0,1,.34-.41.36.36,0,0,1,.4.34l7.75,81a.37.37,0,0,1-.33.41Z" style="fill:#6F87F6"></path><path d="M186.9,287a.34.34,0,0,1-.19-.05l-81.83-47.24a.37.37,0,0,1,.37-.65l81.84,47.25a.37.37,0,0,1-.19.69Z" style="fill:#6F87F6"></path><path d="M139.73,126.07a.4.4,0,0,1-.15,0,.38.38,0,0,1-.19-.49l21.79-49.79a.37.37,0,0,1,.49-.19.36.36,0,0,1,.19.49l-21.78,49.79A.38.38,0,0,1,139.73,126.07Z" style="fill:#6F87F6"></path><path d="M243.53,55.74h-.09l-41.35-10.2a.38.38,0,0,1-.28-.45.39.39,0,0,1,.46-.28L243.62,55a.38.38,0,0,1,.28.45A.38.38,0,0,1,243.53,55.74Z" style="fill:#6F87F6"></path><path d="M92,103.54a.36.36,0,0,1-.3-.15.38.38,0,0,1,.08-.53l55.59-40.15a.39.39,0,0,1,.53.08.38.38,0,0,1-.09.53L92.26,103.47A.36.36,0,0,1,92,103.54Z" style="fill:#6F87F6"></path><path d="M125.21,127a.28.28,0,0,1-.15,0L99.18,114.81a.37.37,0,0,1,.31-.67l25.88,12.11a.37.37,0,0,1,.18.5A.38.38,0,0,1,125.21,127Z" style="fill:#6F87F6"></path><path d="M146.09,131.86a.4.4,0,0,1-.31-.16.37.37,0,0,1,.09-.52l94-67.13a.37.37,0,0,1,.43.61l-94,67.13A.33.33,0,0,1,146.09,131.86Z" style="fill:#6F87F6"></path><path d="M286.44,286.83h0l-77.17-.05a.36.36,0,0,1,0-.72h0l77.17.06a.36.36,0,1,1,0,.71Z" style="fill:#6F87F6"></path></g></g></svg>