<svg id="Capa_1" enable-background="new 0 0 512 512" height="512" viewBox="0 0 512 512" width="512" xmlns="http://www.w3.org/2000/svg" xmlns:xlink="http://www.w3.org/1999/xlink"><linearGradient id="SVGID_1_" gradientUnits="userSpaceOnUse" x1="256.5" x2="256.5" y1="60.36" y2="246.75"><stop offset=".00000036422" stop-color="#a8abff"/><stop offset="1" stop-color="#fac8ff"/></linearGradient><linearGradient id="SVGID_2_" gradientUnits="userSpaceOnUse" x1="256" x2="256" y1="262.25" y2="510.75"><stop offset=".00000083866" stop-color="#96d1f3"/><stop offset="1" stop-color="#ccfff4"/></linearGradient><linearGradient id="SVGID_3_" gradientUnits="userSpaceOnUse" x1="256" x2="256" y1="1.25" y2="510.75"><stop offset=".00000011981" stop-color="#174fa3"/><stop offset="1" stop-color="#b044af"/></linearGradient><g><g><path d="m464 246.75h-100c0-21.01 12.96-38.99 31.32-46.39h.002c4.579 5.146 11.248 8.39 18.678 8.39s14.099-3.244 18.678-8.39h.002c18.36 7.4 31.32 25.38 31.32 46.39zm-346.32-46.39h-.002c-4.579 5.146-11.248 8.39-18.678 8.39s-14.099-3.244-18.678-8.39h-.002c-18.36 7.4-31.32 25.38-31.32 46.39h100c0-21.01-12.96-38.99-31.32-46.39zm157.5-140h-.002c-4.579 5.146-11.248 8.39-18.678 8.39s-14.099-3.244-18.678-8.39h-.002c-18.36 7.4-31.32 25.38-31.32 46.39h100c0-21.01-12.96-38.99-31.32-46.39z" fill="url(#SVGID_1_)"/><path d="m256 262.25c-137.243 0-248.5 111.257-248.5 248.5h497c0-137.243-111.257-248.5-248.5-248.5z" fill="url(#SVGID_2_)"/><g fill="#fff"><path d="m169 338.75 14-27 50 4 5 36-24 11 17 36-24 4z"/><path d="m491.18 430.29-37.18 13.46-9 36-54 2-32-51-45-5-43-55 28-44 113.99-8.64c35.61 29.05 63.01 67.78 78.19 112.18z"/><path d="m172 434.75-14 36-39-12-25 26v.12l-85.12-.45c6.15-58.42 32.54-110.8 72.03-150.01l40.09 18.34v28l22 8z"/></g></g><path d="m74.98 329.73c-48.351 48.353-74.98 112.64-74.98 181.02h15c0-6.365.253-12.672.74-18.914l81.437.431 24.03-24.991 41.255 12.694 17.897-46.023-32.384-51.368-19.476-7.082v-27.563l-34.263-15.675c82.514-74.85 205.878-83.645 298.126-20.107l-97.674 7.403-32.861 51.639 48.208 61.661 44.537 4.949 32.377 51.601 63.96-2.369 9.398-37.593 26.088-9.445c6.888 22.383 10.605 46.141 10.605 70.752h15c0-229.848-277.738-340.301-437.02-181.02zm38.52 27.836v28.437l24.524 8.918 25.616 40.632-10.103 25.977-36.745-11.306-25.97 27.009-73.427-.388c7.274-51.429 30.834-97.688 65.289-133.374zm334.192 80.491-8.602 34.407-44.04 1.631-31.623-50.399-45.463-5.051-37.792-48.339 23.139-36.361 107.055-8.115c31.603 26.425 56.349 60.78 71.161 99.978zm-208.091-129.303-60.967-4.877-18.21 35.12 42.747 71.995 38.847-6.475-17.996-38.11 22.175-10.164zm-35.622 50.339 16.004 33.89-9.153 1.525-33.253-56.005 9.79-18.88 39.033 3.123 3.404 24.51zm267.521-112.343c0-20.566-10.749-39.116-28.004-49.377 4.362-9.407 2.607-16.465 3.004-23.623 0-17.92-14.579-32.5-32.5-32.5s-32.5 14.58-32.5 32.5c.398 7.168-1.329 14.279 3.004 23.623-32.719 19.457-27.513 54.747-28.004 56.877h115zm-75-73c0-9.649 7.851-17.5 17.5-17.5s17.5 7.851 17.5 17.5v10c0 9.649-7.851 17.5-17.5 17.5s-17.5-7.851-17.5-17.5zm-24.345 65.5c2.258-12.777 10.23-23.795 21.782-29.96 11.7 9.21 28.246 9.352 40.125 0 11.552 6.165 19.524 17.183 21.782 29.96zm-243.659-41.877c4.362-9.407 2.607-16.465 3.004-23.623 0-17.92-14.579-32.5-32.5-32.5s-32.5 14.58-32.5 32.5c.398 7.168-1.329 14.279 3.004 23.623-32.719 19.457-27.513 54.747-28.004 56.877h115c-.509-2.207 4.851-37.339-28.004-56.877zm-46.996-23.623c0-9.649 7.851-17.5 17.5-17.5s17.5 7.851 17.5 17.5v10c0 9.649-7.851 17.5-17.5 17.5s-17.5-7.851-17.5-17.5zm-24.345 65.5c2.258-12.777 10.23-23.795 21.782-29.96 11.7 9.21 28.246 9.352 40.125 0 11.552 6.165 19.524 17.183 21.782 29.96zm228.841-181.877c1.923-4.147 3.004-8.76 3.004-13.623v-10c0-17.92-14.579-32.5-32.5-32.5s-32.5 14.58-32.5 32.5v10c0 4.863 1.081 9.477 3.004 13.623-32.719 19.457-27.513 54.747-28.004 56.877h115c-.509-2.207 4.851-37.339-28.004-56.877zm-46.996-23.623c0-9.649 7.851-17.5 17.5-17.5s17.5 7.851 17.5 17.5v10c0 9.649-7.851 17.5-17.5 17.5s-17.5-7.851-17.5-17.5zm-24.345 65.5c2.258-12.777 10.23-23.795 21.782-29.96 5.53 4.353 12.495 6.96 20.062 6.96s14.533-2.607 20.062-6.96c11.552 6.165 19.524 17.183 21.782 29.96zm-30.144 117.567-5.021-14.135 71.011-25.228v-45.704h15v45.682l71.981 25.24-4.963 14.155-74.502-26.124z" fill="url(#SVGID_3_)"/></g></svg>