<svg id="_x30_1" enable-background="new 0 0 64 64" height="512" viewBox="0 0 64 64" width="512" xmlns="http://www.w3.org/2000/svg" xmlns:xlink="http://www.w3.org/1999/xlink"><linearGradient id="SVGID_1_" gradientUnits="userSpaceOnUse" x1="32" x2="32" y1="63" y2=".798"><stop offset="0" stop-color="#9f2fff"/><stop offset="1" stop-color="#0bb1d3"/></linearGradient><path d="m42 23c-1.654 0-3 1.346-3 3s1.346 3 3 3 3-1.346 3-3-1.346-3-3-3zm0 4c-.552 0-1-.448-1-1s.448-1 1-1 1 .448 1 1-.448 1-1 1zm0-8c-3.859 0-7 3.141-7 7s3.141 7 7 7 7-3.141 7-7-3.141-7-7-7zm0 12c-2.757 0-5-2.243-5-5s2.243-5 5-5 5 2.243 5 5-2.243 5-5 5zm3.433-27.914-3.433-2.288-3.433 2.288c-3.019 2.012-6.921 2.463-10.32 1.188l-7.247-2.717v20.902c0 13.496 8.098 25.456 20.629 30.47l.371.148.371-.148c12.531-5.014 20.629-16.974 20.629-30.47v-20.902l-7.246 2.718c-3.401 1.275-7.303.823-10.321-1.189zm15.567 1.357v18.016c0 12.54-7.444 23.668-19 28.461-11.556-4.793-19-15.921-19-28.461v-18.016l4.545 1.704c3.997 1.497 8.583.968 12.132-1.397l2.323-1.548 2.323 1.548c3.548 2.365 8.133 2.894 12.133 1.397zm-10.558 4.557c-2.751 0-5.506-.65-7.956-1.874l-.504-.234-.456.228c-3.338 1.667-7.205 2.253-10.898 1.639l-5.628-.94v14.717c0 11.007 6.516 20.969 16.6 25.38l.4.176.4-.176c10.084-4.411 16.6-14.373 16.6-25.38v-14.756l-4.369.874c-1.147.23-2.322.346-3.494.346zm-1.557 14.147c.387.935 1.168 1.579 2.115 1.783v2.139c-.947.204-1.729.849-2.115 1.783-.387.934-.291 1.941.235 2.756l-1.512 1.512c-.814-.526-1.823-.622-2.756-.235-.935.387-1.579 1.168-1.783 2.115h-2.139c-.204-.947-.849-1.729-1.783-2.115-.933-.386-1.941-.29-2.756.235l-1.512-1.512c.526-.814.622-1.822.235-2.756-.387-.935-1.168-1.579-2.115-1.783v-2.139c.947-.204 1.729-.849 2.115-1.783.387-.934.291-1.941-.235-2.756l1.512-1.512c.814.526 1.822.62 2.756.235.935-.387 1.579-1.168 1.783-2.115h2.139c.204.947.849 1.729 1.783 2.115.934.387 1.942.291 2.756-.235l1.512 1.512c-.526.815-.622 1.823-.235 2.756zm-21.885-.611v-12.355l3.3.55c3.591.596 7.324.166 10.7-1.195v5.464h-2v1.343c0 .62-.473.864-.617.925s-.651.222-1.09-.217l-.95-.95-4.242 4.242.95.95c.438.438.276.944.217 1.09-.061.144-.305.617-.925.617h-1.343v6h1.343c.62 0 .864.473.925.617.06.146.222.651-.217 1.09l-.95.95 4.242 4.242.95-.95c.438-.439.945-.277 1.09-.217s.617.305.617.925v1.343h2v8.402c-8.548-4.373-14-13.177-14-22.866zm28.023-11.921 1.977-.395v12.316c0 9.689-5.452 18.493-14 22.866v-8.402h2v-1.343c0-.62.473-.864.617-.925.145-.06.651-.222 1.09.217l.95.95 4.242-4.242-.95-.95c-.438-.438-.276-.944-.217-1.09.061-.144.305-.617.925-.617h1.343v-6h-1.343c-.62 0-.864-.473-.925-.617-.06-.146-.222-.651.217-1.09l.95-.95-4.242-4.242-.95.95c-.438.438-.946.276-1.09.217-.144-.061-.617-.305-.617-.925v-1.343h-2v-5.451c2.358.952 4.902 1.451 7.442 1.451h.694c1.304 0 2.612-.13 3.887-.385zm-52.023 12.385h14c1.103 0 2-.897 2-2v-14c0-1.103-.897-2-2-2h-14c-1.103 0-2 .897-2 2v14c0 1.103.897 2 2 2zm0-16h14l.002 14h-14.002zm11.707 3.707-3.293 3.293 3.293 3.293-1.414 1.414-3.293-3.293-3.293 3.293-1.414-1.414 3.293-3.293-3.293-3.293 1.414-1.414 3.293 3.293 3.293-3.293zm3.585 14.78c-.349-.299-.797-.487-1.292-.487h-14c-1.103 0-2 .897-2 2v14c0 1.103.897 2 2 2h14c1.103 0 2-.897 2-2v-13.237l1.769-2.122-1.537-1.281zm-1.29 15.513h-14.002v-14h14v.037l-7.067 8.481-3.226-3.226-1.414 1.414 4.774 4.774 6.933-8.318zm2.229 3.359-.939 1.127c-.349-.298-.797-.486-1.292-.486h-14c-1.103 0-2 .897-2 2v14c0 1.103.897 2 2 2h14c1.103 0 2-.897 2-2v-13.237l1.769-2.122zm-2.229 16.641h-14.002v-14h14v.037l-7.067 8.481-3.226-3.226-1.414 1.414 4.774 4.774 6.933-8.318zm3.998-1h10v2h-10zm12 0h2v2h-2zm4 0h2v2h-2zm-16-4h20v2h-20zm12-4v2h-12v-2z" fill="url(#SVGID_1_)"/></svg>