<svg id="_x30_1" enable-background="new 0 0 64 64" height="512" viewBox="0 0 64 64" width="512" xmlns="http://www.w3.org/2000/svg"><g><g><path d="m51.657 29h1.343v-6h-1.343c-.62 0-.864-.473-.925-.617-.06-.146-.222-.651.217-1.09l.95-.95-4.242-4.242-.95.95c-.438.438-.946.276-1.09.217-.144-.061-.617-.305-.617-.925v-1.343h-6v1.343c0 .62-.473.864-.617.925s-.651.222-1.09-.217l-.95-.95-4.242 4.242.95.95c.438.438.276.944.217 1.09-.061.144-.305.617-.925.617h-1.343v6h1.343c.62 0 .864.473.925.617.06.146.222.651-.217 1.09l-.95.95 4.242 4.242.95-.95c.438-.439.945-.277 1.09-.217s.617.305.617.925v1.343h6v-1.343c0-.62.473-.864.617-.925.145-.06.651-.222 1.09.217l.95.95 4.242-4.242-.95-.95c-.438-.438-.276-.944-.217-1.09.061-.144.305-.617.925-.617zm-9.657 3c-3.314 0-6-2.686-6-6s2.686-6 6-6 6 2.686 6 6-2.686 6-6 6z" fill="#f0bc5e"/></g><g><path d="m33 57v-4h-12v4 5h18v-5z" fill="#f0bc5e"/></g><g><path d="m42 23c-1.654 0-3 1.346-3 3s1.346 3 3 3 3-1.346 3-3-1.346-3-3-3zm0 4c-.552 0-1-.448-1-1s.448-1 1-1 1 .448 1 1-.448 1-1 1z"/><path d="m42 19c-3.859 0-7 3.141-7 7s3.141 7 7 7 7-3.141 7-7-3.141-7-7-7zm0 12c-2.757 0-5-2.243-5-5s2.243-5 5-5 5 2.243 5 5-2.243 5-5 5z"/><path d="m55.754 4.274c-3.401 1.275-7.303.823-10.321-1.188l-3.433-2.288-3.433 2.288c-3.019 2.012-6.921 2.463-10.32 1.188l-7.247-2.717v20.902c0 13.496 8.098 25.456 20.629 30.47l.371.148.371-.148c12.531-5.014 20.629-16.974 20.629-30.47v-20.902zm5.246 18.185c0 12.54-7.444 23.668-19 28.461-11.556-4.793-19-15.921-19-28.461v-18.016l4.545 1.704c3.997 1.497 8.583.968 12.132-1.397l2.323-1.548 2.323 1.548c3.548 2.365 8.133 2.894 12.133 1.397l4.544-1.704z"/><path d="m51.137 9h-.694c-2.751 0-5.506-.65-7.956-1.874l-.504-.234-.456.228c-3.338 1.667-7.205 2.253-10.898 1.639l-5.629-.94v14.717c0 11.007 6.516 20.969 16.6 25.38l.4.176.4-.176c10.084-4.411 16.6-14.373 16.6-25.38v-14.756l-4.369.874c-1.147.23-2.322.346-3.494.346zm5.863 1.22v12.316c0 9.689-5.452 18.493-14 22.866v-8.402h-2v8.402c-8.548-4.373-14-13.176-14-22.866v-12.355l3.3.55c3.591.596 7.324.166 10.7-1.195v5.464h2v-5.451c2.358.952 4.902 1.451 7.442 1.451h.694c1.304 0 2.611-.13 3.887-.385z"/><path d="m3 23h14c1.103 0 2-.897 2-2v-14c0-1.103-.897-2-2-2h-14c-1.103 0-2 .897-2 2v14c0 1.103.897 2 2 2zm0-16h14l.002 14h-14.002z"/><path d="m13.293 9.293-3.293 3.293-3.293-3.293-1.414 1.414 3.293 3.293-3.293 3.293 1.414 1.414 3.293-3.293 3.293 3.293 1.414-1.414-3.293-3.293 3.293-3.293z"/><path d="m18.292 25.487c-.349-.299-.797-.487-1.292-.487h-14c-1.103 0-2 .897-2 2v14c0 1.103.897 2 2 2h14c1.103 0 2-.897 2-2v-13.237l1.769-2.122-1.537-1.281zm-1.29 15.513h-14.002v-14h14v.037l-7.067 8.481-3.226-3.226-1.414 1.414 4.774 4.774 6.933-8.318z"/><path d="m19.231 44.359-.939 1.127c-.349-.298-.797-.486-1.292-.486h-14c-1.103 0-2 .897-2 2v14c0 1.103.897 2 2 2h14c1.103 0 2-.897 2-2v-13.237l1.769-2.122zm-2.229 16.641h-14.002v-14h14v.037l-7.067 8.481-3.226-3.226-1.414 1.414 4.774 4.774 6.933-8.318z"/><path d="m21 60h10v2h-10z"/><path d="m33 60h2v2h-2z"/><path d="m37 60h2v2h-2z"/><path d="m21 56h20v2h-20z"/><path d="m21 52h12v2h-12z"/></g></g></svg>