<?xml version="1.0"?>
<svg xmlns="http://www.w3.org/2000/svg" xmlns:xlink="http://www.w3.org/1999/xlink" width="512" height="512" viewBox="0 0 128 128"><defs><linearGradient id="a" x1="105.508" y1="96.633" x2="22.492" y2="13.617" gradientUnits="userSpaceOnUse"><stop offset="0" stop-color="#de6246"/><stop offset="1" stop-color="#f4d844"/></linearGradient></defs><path d="M109.75,41.66v6.971a1.75,1.75,0,0,1-3.5,0V41.66a1.75,1.75,0,0,1,3.5,0ZM108,16.833A15.1,15.1,0,0,1,92.917,1.75,1.75,1.75,0,0,0,91.167,0H36.833a1.751,1.751,0,0,0-1.75,1.75A15.1,15.1,0,0,1,20,16.833a1.751,1.751,0,0,0-1.75,1.75V75.1a41.725,41.725,0,0,0,18.218,34.487L63.014,127.7a1.746,1.746,0,0,0,1.972,0l26.546-18.113A41.725,41.725,0,0,0,109.75,75.1V61.333a1.75,1.75,0,0,0-3.5,0V75.1a38.226,38.226,0,0,1-16.69,31.6L64,124.131l-25.56-17.44A38.226,38.226,0,0,1,21.75,75.1V20.252A18.616,18.616,0,0,0,38.5,3.5h51A18.616,18.616,0,0,0,106.25,20.252v8.706a1.75,1.75,0,0,0,3.5,0V18.583A1.75,1.75,0,0,0,108,16.833Zm-9.346,8.2a1.749,1.749,0,0,1,1.1,1.623V75.1A31.73,31.73,0,0,1,85.9,101.321l-20.91,14.268a1.746,1.746,0,0,1-1.972,0L42.1,101.321A31.727,31.727,0,0,1,28.25,75.1V26.651a1.751,1.751,0,0,1,1.1-1.623A25.3,25.3,0,0,0,43.278,11.1,1.75,1.75,0,0,1,44.9,10H83.1a1.751,1.751,0,0,1,1.623,1.1A25.284,25.284,0,0,0,98.654,25.028Zm-2.4,2.777A28.837,28.837,0,0,1,81.945,13.5H46.056A28.848,28.848,0,0,1,31.75,27.806V75.1A28.232,28.232,0,0,0,44.077,98.431L64,112.025,83.923,98.431A28.232,28.232,0,0,0,96.25,75.1ZM86.5,54.993A22.5,22.5,0,0,1,46.919,69.634a1.751,1.751,0,0,1,2.657-2.28A18.946,18.946,0,0,0,82.739,52.017L66.675,68.082a1.752,1.752,0,0,1-2.475,0L51.184,55.066a1.749,1.749,0,0,1,0-2.475l5.657-5.657a1.749,1.749,0,0,1,2.475,0l6.121,6.122L77.165,41.329A18.974,18.974,0,0,0,45,54.993a1.75,1.75,0,1,1-3.5,0,22.5,22.5,0,0,1,44.993,0Zm-4.807-6.874a18.946,18.946,0,0,0-2.234-4.131l-12.78,12.78a1.749,1.749,0,0,1-2.475,0l-6.121-6.122L54.9,53.829,65.437,64.37Z" fill="url(#a)"/></svg>
