<?xml version="1.0" encoding="iso-8859-1"?>
<!-- Generator: Adobe Illustrator 22.1.0, SVG Export Plug-In . SVG Version: 6.00 Build 0)  -->
<svg xmlns="http://www.w3.org/2000/svg" xmlns:xlink="http://www.w3.org/1999/xlink" version="1.1" id="Layer_1_1_" x="0px" y="0px" viewBox="0 0 64 64" style="enable-background:new 0 0 64 64;" xml:space="preserve" width="512" height="512">
<linearGradient id="SVGID_1_" gradientUnits="userSpaceOnUse" x1="32" y1="63" x2="32" y2="1">
	<stop offset="0" style="stop-color:#9F2FFF"/>
	<stop offset="1" style="stop-color:#0BB1D3"/>
</linearGradient>
<path style="fill:url(#SVGID_1_);" d="M33,1v6h-2V1H33z M16.443,13.029l-4.242-4.242l-1.414,1.414l4.242,4.242L16.443,13.029z M3,31  h6v-2H3V31z M55,31h6v-2h-6V31z M47.557,13.029l1.414,1.414l4.242-4.242l-1.414-1.414L47.557,13.029z M44.629,47.069  C45.982,47.359,47,48.562,47,50c0,0.771-0.301,1.468-0.78,2c0.48,0.532,0.78,1.229,0.78,2c0,1.654-1.346,3-3,3h-2.204  c-1.871,3.665-5.644,6-9.796,6c-4.165,0-7.929-2.331-9.8-6H20c-1.654,0-3-1.346-3-3c0-0.771,0.301-1.468,0.78-2  c-0.48-0.532-0.78-1.229-0.78-2c0-1.428,1.004-2.621,2.342-2.922c-0.364-0.491-0.778-0.948-1.248-1.364  c-4.638-4.1-7.222-9.994-7.089-16.174c0.234-10.927,8.958-19.937,19.861-20.511c5.832-0.298,11.365,1.729,15.585,5.733  C50.674,18.77,53,24.181,53,30c0,6.062-2.629,11.826-7.212,15.816C45.355,46.194,44.97,46.614,44.629,47.069z M19.419,44.216  c0.913,0.807,1.659,1.746,2.244,2.784h20.645c0.567-1.017,1.287-1.925,2.167-2.691C48.622,40.697,51,35.482,51,30  c0-5.266-2.104-10.161-5.925-13.786c-3.818-3.623-8.829-5.463-14.103-5.187c-9.863,0.519-17.755,8.67-17.967,18.556  C12.885,35.173,15.223,40.507,19.419,44.216z M39.467,57H24.536c1.65,2.466,4.419,4,7.464,4C35.036,61,37.815,59.465,39.467,57z   M45,54c0-0.552-0.449-1-1-1H20c-0.551,0-1,0.448-1,1s0.449,1,1,1h24C44.551,55,45,54.552,45,54z M44,49H20c-0.551,0-1,0.448-1,1  s0.449,1,1,1h24c0.551,0,1-0.448,1-1S44.551,49,44,49z M20,33h-1c-0.881,0-1.714-0.385-2.286-1.057s-0.817-1.561-0.674-2.439  C16.273,28.076,17.591,27,19.107,27H20v-1c0-1.654,1.346-3,3-3h3v2c0,0.294,0.128,0.572,0.353,0.763  c0.228,0.192,0.52,0.274,0.822,0.223C27.638,25.91,28,25.431,28,24.894V23h4h1h4v-1c0-0.882,0.385-1.715,1.058-2.286  c0.671-0.571,1.562-0.815,2.439-0.674C41.924,19.272,43,20.592,43,22.107V23h2c1.654,0,3,1.346,3,3v3h-2.893  c-0.537,0-1.017,0.362-1.093,0.825c-0.049,0.303,0.03,0.595,0.224,0.822C44.428,30.871,44.706,31,45,31h3v3c0,1.654-1.346,3-3,3H33  h-1h-4v-2c0-0.294-0.128-0.572-0.353-0.763c-0.227-0.192-0.518-0.273-0.822-0.223C26.362,34.09,26,34.569,26,35.107V37h-3  c-1.654,0-3-1.346-3-3V33z M34,27h0.893c1.516,0,2.834,1.076,3.066,2.503c0.143,0.88-0.103,1.769-0.674,2.44S35.881,33,35,33h-1v2  h11c0.551,0,1-0.448,1-1v-1h-1c-0.881,0-1.714-0.385-2.286-1.057s-0.817-1.561-0.674-2.439C42.273,28.076,43.591,27,45.107,27H46v-1  c0-0.552-0.449-1-1-1h-4v-2.893c0-0.538-0.362-1.018-0.825-1.093c-0.305-0.052-0.596,0.029-0.822,0.223  C39.128,21.428,39,21.706,39,22v3h-5V27z M22,31v3c0,0.552,0.449,1,1,1h1.002c0.049-1.471,1.108-2.732,2.501-2.96  c0.878-0.144,1.768,0.103,2.439,0.674C29.615,33.285,30,34.118,30,35h2v-4h3c0.294,0,0.572-0.129,0.762-0.353  c0.193-0.228,0.272-0.52,0.224-0.823C35.91,29.362,35.43,29,34.893,29H32v-4h-2.002c-0.049,1.471-1.108,2.732-2.501,2.96  c-0.876,0.142-1.768-0.103-2.439-0.674C24.385,26.715,24,25.882,24,25h-1c-0.551,0-1,0.448-1,1v3h-2.893  c-0.537,0-1.017,0.362-1.093,0.825c-0.049,0.303,0.03,0.595,0.224,0.822C18.428,30.871,18.706,31,19,31H22z"/>
</svg>
