<svg id="Capa_1" enable-background="new 0 0 512 512" height="512" viewBox="0 0 512 512" width="512" xmlns="http://www.w3.org/2000/svg"><g><g><g><g><g><g><g><g><g><g><circle cx="256" cy="256" fill="#ffce00" r="256"/></g></g></g></g></g></g></g></g></g><path d="m507.445 207.671-93.333-93.333-117.451 97.4-112.071-111.39-78.849 68.154 93.356 93.355-13.404 56.962-79.952 85.556 103.335 103.334c15.212 2.818 30.896 4.291 46.924 4.291 141.385 0 256-114.615 256-256 0-16.522-1.565-32.678-4.555-48.329z" fill="#ffa300"/><g><path d="m160.434 363.303-21.251-21.176 90.146-90.465-81.974-81.756 21.185-21.241 103.206 102.932z" fill="#ff475a"/></g><g><path d="m343.46 363.335-103.206-102.931 111.312-111.707 21.251 21.176-90.146 90.465 83.48 81.756z" fill="#d1093a"/></g><g><g><path d="m192.167 309.396c-12.101-14.451-19.387-33.073-19.387-53.396 0-45.961 37.288-83.22 83.249-83.22s83.19 37.259 83.19 83.22c0 20.323-7.285 38.945-19.386 53.396z" fill="#fff"/></g><g><path d="m256.03 172.781c45.961 0 83.19 37.259 83.19 83.22 0 20.323-7.285 38.945-19.386 53.396l-63.804 15.031z" fill="#e9edf5"/></g><g><g><g><path d="m292.475 237.72c0 20.145-16.301 36.475-36.445 36.475s-36.505-16.331-36.505-36.475c0-20.145 16.36-36.475 36.505-36.475s36.445 16.33 36.445 36.475z" fill="#7584f2"/></g></g><g><g><path d="m292.475 237.72c0-20.119-16.335-36.433-36.445-36.473v72.947c20.11-.041 36.445-16.354 36.445-36.474z" fill="#606aea"/></g></g><g><path d="m293.042 284.707h-74.084c-14.108 0-25.676 10.868-26.791 24.688 15.266 18.231 38.225 29.824 63.863 29.824z" fill="#7584f2"/></g><g><path d="m319.833 309.395c-1.115-13.82-12.684-24.688-26.791-24.688h-37.012v54.512c25.608-.022 48.553-11.611 63.803-29.824z" fill="#606aea"/></g></g></g><g><g><g><path d="m326.307 168.502c-7.578-9.05-12.141-20.712-12.141-33.439 0-28.783 23.352-52.117 52.135-52.117s52.098 23.333 52.098 52.117c0 12.727-4.562 24.389-12.141 33.439z" fill="#fff"/></g><g><path d="m366.301 82.946c28.783 0 52.098 23.333 52.098 52.117 0 12.727-4.562 24.389-12.141 33.439l-39.957 9.413z" fill="#e9edf5"/></g><g><g><g><path d="m389.125 123.615c0 12.616-10.208 22.843-22.824 22.843s-22.861-10.227-22.861-22.843 10.246-22.843 22.861-22.843c12.616 0 22.824 10.227 22.824 22.843z" fill="#7584f2"/></g></g><g><g><path d="m389.125 123.615c0-12.6-10.23-22.816-22.824-22.842v45.683c12.594-.025 22.824-10.241 22.824-22.841z" fill="#606aea"/></g></g><g><path d="m389.48 153.041h-46.395c-8.835 0-16.08 6.806-16.778 15.461 9.56 11.417 23.939 18.677 39.995 18.677s30.397-7.26 39.957-18.677c-.699-8.655-7.944-15.461-16.779-15.461z" fill="#7584f2"/></g><g><path d="m406.258 168.501c-.698-8.655-7.943-15.461-16.778-15.461h-23.179v34.139c16.037-.014 30.406-7.272 39.957-18.678z" fill="#606aea"/></g></g></g><g><g><path d="m105.742 168.502c-7.578-9.05-12.141-20.712-12.141-33.439 0-28.783 23.352-52.117 52.135-52.117s52.098 23.333 52.098 52.117c0 12.727-4.562 24.389-12.141 33.439z" fill="#fff"/></g><g><path d="m145.736 82.946c28.783 0 52.098 23.333 52.098 52.117 0 12.727-4.562 24.389-12.141 33.439l-39.957 9.413z" fill="#e9edf5"/></g><g><g><g><path d="m168.56 123.615c0 12.616-10.208 22.843-22.824 22.843s-22.861-10.227-22.861-22.843 10.246-22.843 22.861-22.843 22.824 10.227 22.824 22.843z" fill="#7584f2"/></g></g><g><g><path d="m168.56 123.615c0-12.6-10.23-22.816-22.824-22.842v45.683c12.594-.025 22.824-10.241 22.824-22.841z" fill="#606aea"/></g></g><g><path d="m168.915 153.041h-46.395c-8.835 0-16.08 6.806-16.778 15.461 9.56 11.417 23.939 18.677 39.995 18.677s30.397-7.26 39.957-18.677c-.699-8.655-7.944-15.461-16.779-15.461z" fill="#7584f2"/></g><g><path d="m185.693 168.501c-.698-8.655-7.943-15.461-16.778-15.461h-23.179v34.139c16.037-.014 30.407-7.272 39.957-18.678z" fill="#606aea"/></g></g></g></g><g><g><g><path d="m326.307 404.375c-7.578-9.05-12.141-20.712-12.141-33.439 0-28.783 23.202-52.117 51.985-52.117s52.248 23.333 52.248 52.117c0 12.727-4.562 24.389-12.141 33.439z" fill="#fff"/></g><g><path d="m366.151 318.819c28.783 0 52.248 23.333 52.248 52.117 0 12.727-4.562 24.389-12.141 33.439l-40.108 9.413v-94.969z" fill="#e9edf5"/></g><g><g><g><path d="m389.125 359.487c0 12.616-10.359 22.843-22.975 22.843s-22.711-10.227-22.711-22.843 10.095-22.843 22.711-22.843 22.975 10.228 22.975 22.843z" fill="#7584f2"/></g></g><g><g><path d="m389.125 359.487c0-12.6-10.381-22.816-22.975-22.842v45.683c12.595-.025 22.975-10.241 22.975-22.841z" fill="#606aea"/></g></g><g><path d="m389.48 388.913h-46.395c-8.835 0-16.08 6.806-16.778 15.461 9.56 11.417 23.788 18.677 39.844 18.677s30.548-7.26 40.108-18.677c-.699-8.655-7.944-15.461-16.779-15.461z" fill="#7584f2"/></g><g><path d="m406.258 404.374c-.698-8.655-7.943-15.461-16.778-15.461h-23.33v34.139c16.038-.014 30.557-7.272 40.108-18.678z" fill="#606aea"/></g></g></g><g><g><path d="m105.742 404.375c-7.578-9.05-12.141-20.712-12.141-33.439 0-28.783 23.352-52.117 52.135-52.117s52.098 23.333 52.098 52.117c0 12.727-4.562 24.389-12.141 33.439z" fill="#fff"/></g><g><path d="m145.736 318.819c28.783 0 52.098 23.333 52.098 52.117 0 12.727-4.562 24.389-12.141 33.439l-39.957 9.413z" fill="#e9edf5"/></g><g><g><g><path d="m168.56 359.487c0 12.616-10.208 22.843-22.824 22.843s-22.861-10.227-22.861-22.843 10.246-22.843 22.861-22.843 22.824 10.228 22.824 22.843z" fill="#7584f2"/></g></g><g><g><path d="m168.56 359.487c0-12.6-10.23-22.816-22.824-22.842v45.683c12.594-.025 22.824-10.241 22.824-22.841z" fill="#606aea"/></g></g><g><path d="m168.915 388.913h-46.395c-8.835 0-16.08 6.806-16.778 15.461 9.56 11.417 23.939 18.677 39.995 18.677s30.397-7.26 39.957-18.677c-.699-8.655-7.944-15.461-16.779-15.461z" fill="#7584f2"/></g><g><path d="m185.693 404.374c-.698-8.655-7.943-15.461-16.778-15.461h-23.179v34.139c16.037-.014 30.407-7.272 39.957-18.678z" fill="#606aea"/></g></g></g></g></g></svg>