<svg id="Capa_1" enable-background="new 0 0 512 512" height="512" viewBox="0 0 512 512" width="512" xmlns="http://www.w3.org/2000/svg"><g><g><path d="m134.568 275.962 174.478-275.962s53.372 33.718 105.377 66.573c49.406 31.212 97.577 61.645 97.577 61.645l-174.302 275.771z" fill="#b3ffb3"/><path d="m175.979 266.601 142.398-225.221 152.232 96.174-142.262 225.08z" fill="#78d978"/></g><g><path d="m293.87 323.613c-3.101-2.358-36.904-31.314-59.81-42.173l-8.569-4.058c.547-4.484-3.432-28.179 14.136-55.181 22.017-34.761 62.813-48.765 90.747-31.216 25.171 15.803 35.375 56.473 10.723 95.376-18.378 29.522-43.427 35.052-47.227 37.252z" fill="#56bf67"/><path d="m298.188 288.541c-12.826-10.138-27.862-21.267-41.827-29.244 1.091-6.014 3.442-13.094 8.413-20.734l.197-.308c10.868-17.158 27.096-24.839 38.357-24.839 4.216 0 7.946 1 11.087 2.974 4.69 2.944 8.289 8.662 9.881 15.691 1.542 6.81 2.482 20.83-8.54 38.223l-.128.204c-5.588 8.976-11.834 14.474-17.44 18.033z" fill="#9ef29e"/></g><g><path d="m377.895 375.584c-.599 13.2-6.599 25.501-17.1 33.6l-131.698 102.816-154.501-62.615-30-75 30-105 54.901-20.4c22.548-7.893 44.878-11.679 69.3-8.701 39.456 3.591 66.441 24.135 97.2 46.201 14.465 11.732 68.559 55.604 65.099 52.798 2.04 3.008 17.431 12.94 16.799 36.301z" fill="#ffe6cd"/></g><path d="m229.097 512 131.699-102.816c10.501-8.099 16.501-20.4 17.1-33.6.013-.463-.165-.745-.165-1.199h-333.135l30 75z" fill="#ffccb3"/><g id="Corruption_3_"><g><path d="m397.068 197.607-25.356-15.996 16.011-25.385-50.743-32.007-15.996 25.356-25.371-16.011 32.022-50.742 101.455 64.058z" fill="#56bf67"/></g></g><g><g><g><g><path d="m0 269.385v209.615h74.596v-209.615z" fill="#5f5166"/></g></g></g></g><path d="m0 374.385h74.596v104.615h-74.596z" fill="#45354d"/></g></svg>